SplineFontDB: 3.0
FontName: MountainsofChristmas-Bold
FullName: Mountains of Christmas Bold
FamilyName: Mountains of Christmas
Weight: Bold
Copyright: Copyright (c) 2011 by Font Diner, Inc DBA Tart Workshop. All rights reserved.
Version: 1.001
ItalicAngle: 0
UnderlinePosition: -116
UnderlineWidth: 20
Ascent: 819
Descent: 205
sfntRevision: 0x00010042
LayerCount: 2
Layer: 0 1 "Back"  1
Layer: 1 1 "Fore"  0
NeedsXUIDChange: 1
XUID: [1021 288 713564382 7217799]
FSType: 0
OS2Version: 3
OS2_WeightWidthSlopeOnly: 0
OS2_UseTypoMetrics: 1
CreationTime: 1292286840
ModificationTime: 1321482564
PfmFamily: 65
TTFWeight: 700
TTFWidth: 5
LineGap: 0
VLineGap: 0
Panose: 3 0 5 0 5 6 0 10 0 4
OS2TypoAscent: 1066
OS2TypoAOffset: 0
OS2TypoDescent: -354
OS2TypoDOffset: 0
OS2TypoLinegap: 0
OS2WinAscent: 1066
OS2WinAOffset: 0
OS2WinDescent: 354
OS2WinDOffset: 0
HheadAscent: 1066
HheadAOffset: 0
HheadDescent: -354
HheadDOffset: 0
OS2SubXSize: 717
OS2SubYSize: 666
OS2SubXOff: 0
OS2SubYOff: 143
OS2SupXSize: 717
OS2SupYSize: 666
OS2SupXOff: 0
OS2SupYOff: 488
OS2StrikeYSize: 51
OS2StrikeYPos: 256
OS2Vendor: 'dinr'
OS2CodePages: 00000001.00000000
OS2UnicodeRanges: 80000027.4000004a.00000000.00000000
Lookup: 258 0 0 "'kern' Horizontal Kerning in Latin lookup 0"  {"'kern' Horizontal Kerning in Latin lookup 0 subtable"  } ['kern' ('latn' <'dflt' > ) ]
MarkAttachClasses: 1
DEI: 91125
TtTable: prep
PUSHW_1
 511
SCANCTRL
PUSHB_1
 4
SCANTYPE
EndTTInstrs

StartChar: Eth
Encoding: 208 208 1
Width: 519
Flags: HW
LayerCount: 2
Fore
SplineSet
163 74 m 1,0,1
 156 67 156 67 154 63 c 1,2,3
 146 66 146 66 139.5 62.5 c 128,-1,4
 133 59 133 59 128.5 58 c 128,-1,5
 124 57 124 57 120.5 58 c 128,-1,6
 117 59 117 59 113 58.5 c 0,7,8
 101 57 101 57 94.5 56 c 128,-1,9
 88 55 88 55 77 57 c 128,-1,10
 66 59 66 59 57.5 57.5 c 128,-1,11
 49 56 49 56 44 53.5 c 0,12,13
 30.7142857143 46.8571428571 30.7142857143 46.8571428571 27.8571428571 50.4285714286 c 128,-1,14
 25 54 25 54 22 56 c 1,15,16
 14 54 14 54 10.5 54 c 128,-1,17
 7 54 7 54 0 57 c 1,18,19
 -9.61111111111 76.2222222222 -9.61111111111 76.2222222222 -1 90 c 1,20,21
 8.3488372093 97.7906976744 8.3488372093 97.7906976744 22.6744186047 96.8953488372 c 0,22,23
 49.8 95.2 49.8 95.2 61 100 c 1,24,25
 69 112.8 69 112.8 69 130 c 1,26,27
 65 140 65 140 66 144 c 128,-1,28
 67 148 67 148 65 154 c 128,-1,29
 63 160 63 160 64.5 171 c 128,-1,30
 66 182 66 182 63 192.5 c 128,-1,31
 60 203 60 203 61.5 203.5 c 128,-1,32
 63 204 63 204 63 207.5 c 128,-1,33
 63 211 63 211 61 223 c 128,-1,34
 59 235 59 235 60 244 c 128,-1,35
 61 253 61 253 63 266 c 128,-1,36
 65 279 65 279 58 291 c 1,37,38
 60 297 60 297 61 303 c 128,-1,39
 62 309 62 309 63.5 319 c 128,-1,40
 65 329 65 329 63 335.5 c 128,-1,41
 61 342 61 342 59 354 c 1,42,43
 46 359 46 359 32.5 353 c 128,-1,44
 19 347 19 347 8 349 c 1,45,46
 7 344 7 344 2 348.5 c 128,-1,47
 -3 353 -3 353 -8 353 c 1,48,49
 -15.6470588235 378.490196078 -15.6470588235 378.490196078 -1 385 c 1,50,51
 4 390 4 390 11 390 c 2,52,-1
 36 388 l 1,53,54
 52.5 391.3 52.5 391.3 54 391 c 1,55,56
 65 400 65 400 66 403 c 128,-1,57
 67 406 67 406 69 407 c 1,58,59
 72 423.5 72 423.5 72 449.25 c 128,-1,60
 72 475 72 475 68 487 c 1,61,62
 77.1515151515 523.606060606 77.1515151515 523.606060606 70 554 c 0,63,64
 69 557 69 557 67.5 559.5 c 128,-1,65
 66 562 66 562 66 569 c 128,-1,66
 66 576 66 576 64 578 c 128,-1,67
 62 580 62 580 62 581 c 2,68,-1
 66 595 l 1,69,70
 68.6131687243 649.87654321 68.6131687243 649.87654321 52 668 c 1,71,72
 55 676 55 676 52 679 c 128,-1,73
 49 682 49 682 46.5 686.5 c 128,-1,74
 44 691 44 691 44.5 696 c 128,-1,75
 45 701 45 701 42 705 c 1,76,77
 33.5142857143 710.657142857 33.5142857143 710.657142857 21.2571428571 707.828571429 c 0,78,79
 -2.12048192771 702.43373494 -2.12048192771 702.43373494 -10 709 c 1,80,81
 -15 715 -15 715 -13 724.5 c 128,-1,82
 -11 734 -11 734 -10 743 c 1,83,84
 0.960526315789 747.697368421 0.960526315789 747.697368421 20.4802631579 746.848684211 c 0,85,86
 57.0792079208 745.257425743 57.0792079208 745.257425743 70 751 c 1,87,88
 111.50862069 745.465517241 111.50862069 745.465517241 125.754310345 752.232758621 c 128,-1,89
 140 759 140 759 154.5 755 c 128,-1,90
 169 751 169 751 177.5 751 c 2,91,-1
 194 751 l 2,92,93
 210 751 210 751 214 747 c 128,-1,94
 218 743 218 743 221.5 742 c 128,-1,95
 225 741 225 741 228.5 741.5 c 128,-1,96
 232 742 232 742 236 741 c 1,97,98
 245 735 245 735 247.5 735 c 128,-1,99
 250 735 250 735 255 732.5 c 128,-1,100
 260 730 260 730 268.5 725.5 c 128,-1,101
 277 721 277 721 290 722 c 1,102,103
 300 709 300 709 315 707 c 1,104,105
 321 697 321 697 331 692 c 128,-1,106
 341 687 341 687 347 678 c 1,107,108
 355 675 355 675 358 668 c 128,-1,109
 361 661 361 661 371 659 c 1,110,111
 372 652 372 652 379 648 c 1,112,113
 384 643 384 643 389 639.5 c 128,-1,114
 394 636 394 636 401 626.5 c 128,-1,115
 408 617 408 617 413.5 610.5 c 128,-1,116
 419 604 419 604 424 596 c 128,-1,117
 429 588 429 588 435.5 577 c 128,-1,118
 442 566 442 566 450 558 c 1,119,120
 447.428571429 547.714285714 447.428571429 547.714285714 452 534 c 1,121,122
 452 525 452 525 454.5 519.5 c 128,-1,123
 457 514 457 514 456.5 512 c 128,-1,124
 456 510 456 510 457.5 507.5 c 128,-1,125
 459 505 459 505 461.5 502.5 c 128,-1,126
 464 500 464 500 465 494 c 128,-1,127
 466 488 466 488 465.5 480.5 c 128,-1,128
 465 473 465 473 466 465.5 c 128,-1,129
 467 458 467 458 468 451 c 128,-1,130
 469 444 469 444 470 437 c 1,131,-1
 470 412 l 2,132,133
 470 362 470 362 467.5 357 c 128,-1,134
 465 352 465 352 463.5 344.5 c 128,-1,135
 462 337 462 337 460 325 c 128,-1,136
 458 313 458 313 456 301 c 1,137,138
 449 296 449 296 446 288 c 128,-1,139
 443 280 443 280 438 274 c 1,140,141
 436 254 436 254 429.5 239 c 128,-1,142
 423 224 423 224 418 208 c 1,143,144
 407 200 407 200 404.5 197.5 c 2,145,-1
 397 190 l 2,146,147
 392 186 392 186 387.5 180.5 c 128,-1,148
 383 175 383 175 381 173 c 128,-1,149
 379 171 379 171 375 164.5 c 128,-1,150
 371 158 371 158 359 153 c 128,-1,151
 347 148 347 148 343.5 144.5 c 128,-1,152
 340 141 340 141 333.5 137 c 128,-1,153
 327 133 327 133 318 131.5 c 128,-1,154
 309 130 309 130 304 124 c 1,155,156
 289 121 289 121 285.5 117.5 c 128,-1,157
 282 114 282 114 275 115 c 1,158,159
 250 90 250 90 206 90 c 1,160,161
 196 83 196 83 185 81.5 c 128,-1,162
 174 80 174 80 172 76 c 128,-1,163
 170 72 170 72 163 74 c 1,0,1
167 300 m 2,164,-1
 163 273 l 1,165,166
 164 259 164 259 167 255 c 128,-1,167
 170 251 170 251 169 247 c 1,168,169
 161 233 161 233 164 216.5 c 128,-1,170
 167 200 167 200 166 184.5 c 0,171,172
 164.355648536 159.012552301 164.355648536 159.012552301 179 136 c 1,173,174
 183 136 183 136 187 134 c 128,-1,175
 191 132 191 132 196 133 c 1,176,177
 209 141 209 141 213 141.5 c 128,-1,178
 217 142 217 142 220.5 144.5 c 128,-1,179
 224 147 224 147 226 150 c 128,-1,180
 228 153 228 153 231 157 c 1,181,182
 241 157 241 157 245 163 c 128,-1,183
 249 169 249 169 254 173 c 1,184,185
 263 177 263 177 266.5 181 c 128,-1,186
 270 185 270 185 273.5 187.5 c 128,-1,187
 277 190 277 190 279.5 191 c 128,-1,188
 282 192 282 192 285.5 195 c 0,189,190
 295.588235294 203.647058824 295.588235294 203.647058824 303 216 c 1,191,192
 310.5 223.5 310.5 223.5 316 240 c 1,193,194
 322 250 322 250 325 258.5 c 128,-1,195
 328 267 328 267 332 276 c 1,196,197
 337 282 337 282 336 284.5 c 128,-1,198
 335 287 335 287 338 291 c 128,-1,199
 341 295 341 295 340 297.5 c 128,-1,200
 339 300 339 300 340.5 302.5 c 0,201,202
 346.6875 312.8125 346.6875 312.8125 347.34375 317.40625 c 128,-1,203
 348 322 348 322 348.5 324.5 c 128,-1,204
 349 327 349 327 348 330 c 128,-1,205
 347 333 347 333 348 337 c 128,-1,206
 349 341 349 341 351 345.5 c 0,207,208
 355.666666667 356 355.666666667 356 354.333333333 364 c 128,-1,209
 353 372 353 372 354 379 c 128,-1,210
 355 386 355 386 356.5 394.5 c 128,-1,211
 358 403 358 403 358 412 c 1,212,213
 356 420 356 420 354.76744186 446.720930233 c 128,-1,214
 353.534883721 473.441860465 353.534883721 473.441860465 356 487 c 1,215,216
 351 497 351 497 350.5 510 c 128,-1,217
 350 523 350 523 348 535 c 1,218,219
 341 543 341 543 340 556 c 128,-1,220
 339 569 339 569 334 580 c 1,221,222
 327 582 327 582 325 588 c 128,-1,223
 323 594 323 594 321 598.5 c 128,-1,224
 319 603 319 603 318.5 606.5 c 128,-1,225
 318 610 318 610 313.5 614.5 c 128,-1,226
 309 619 309 619 309 621 c 128,-1,227
 309 623 309 623 308 625 c 1,228,229
 299 631 299 631 299.5 633 c 128,-1,230
 300 635 300 635 298 637 c 1,231,232
 288.727272727 640.090909091 288.727272727 640.090909091 280 651 c 1,233,234
 270 650 270 650 266 654 c 128,-1,235
 262 658 262 658 254 655 c 1,236,237
 249 660 249 660 234 666 c 256,238,239
 229 668 229 668 223.5 670.5 c 128,-1,240
 218 673 218 673 209 676.5 c 0,241,242
 186.401746725 685.288209607 186.401746725 685.288209607 175 669 c 1,243,244
 172 654 172 654 174.5 644.5 c 128,-1,245
 177 635 177 635 179 625 c 1,246,-1
 171 610 l 1,247,248
 171 602 171 602 170 593.5 c 128,-1,249
 169 585 169 585 170 578.5 c 128,-1,250
 171 572 171 572 172 568.5 c 128,-1,251
 173 565 173 565 173.5 557.5 c 128,-1,252
 174 550 174 550 173 538.5 c 128,-1,253
 172 527 172 527 174 521.5 c 0,254,255
 176.8 513.8 176.8 513.8 174 497 c 1,256,-1
 173 482 l 1,257,-1
 174 467 l 1,258,-1
 171 454 l 257,259,-1
 174 440 l 2,260,261
 175 434 175 434 174 427.5 c 128,-1,262
 173 421 173 421 176 414 c 1,263,264
 181 412 181 412 186 410 c 128,-1,265
 191 408 191 408 198.5 407 c 128,-1,266
 206 406 206 406 218 408.5 c 128,-1,267
 230 411 230 411 233.5 409.5 c 128,-1,268
 237 408 237 408 247 405 c 128,-1,269
 257 402 257 402 259 398.5 c 128,-1,270
 261 395 261 395 259 383 c 1,271,272
 254 379 254 379 247.5 373.5 c 128,-1,273
 241 368 241 368 235.5 367.5 c 128,-1,274
 230 367 230 367 223.5 366.5 c 128,-1,275
 217 366 217 366 209.5 365 c 128,-1,276
 202 364 202 364 195 363.5 c 0,277,278
 176.641509434 362.188679245 176.641509434 362.188679245 171.320754717 354.594339623 c 128,-1,279
 166 347 166 347 167 340 c 128,-1,280
 168 333 168 333 166 321.5 c 128,-1,281
 164 310 164 310 165.5 306.5 c 128,-1,282
 167 303 167 303 167 300 c 2,164,-1
EndSplineSet
EndChar

StartChar: eth
Encoding: 240 240 2
Width: 337
Flags: HW
LayerCount: 2
Fore
SplineSet
93 342 m 2,0,-1
 106 344 l 2,1,2
 111 344 111 344 116 341 c 128,-1,3
 121 338 121 338 129 340 c 1,4,5
 134 337 134 337 137 332 c 128,-1,6
 140 327 140 327 147 325 c 1,7,8
 154 330 154 330 153 340 c 128,-1,9
 152 350 152 350 153 357 c 1,10,11
 152 364 152 364 153.5 367 c 128,-1,12
 155 370 155 370 155 375 c 128,-1,13
 155 380 155 380 153 387.5 c 128,-1,14
 151 395 151 395 149.5 400.5 c 128,-1,15
 148 406 148 406 149 409.5 c 128,-1,16
 150 413 150 413 149 420 c 128,-1,17
 148 427 148 427 144.5 437 c 0,18,19
 136.8 459 136.8 459 138.9 473.5 c 128,-1,20
 141 488 141 488 139.5 493 c 128,-1,21
 138 498 138 498 136 504.5 c 0,22,23
 132.285714286 516.571428571 132.285714286 516.571428571 131 523 c 1,24,25
 126 522 126 522 123 523 c 128,-1,26
 120 524 120 524 116 522.5 c 128,-1,27
 112 521 112 521 111 516.5 c 128,-1,28
 110 512 110 512 104 506 c 128,-1,29
 98 500 98 500 95 500 c 128,-1,30
 92 500 92 500 85 496 c 128,-1,31
 78 492 78 492 77.5 488 c 128,-1,32
 77 484 77 484 76 481 c 1,33,34
 63.2 476.2 63.2 476.2 52.1 465.6 c 128,-1,35
 41 455 41 455 36 453 c 128,-1,36
 31 451 31 451 23 453 c 1,37,38
 23 472 23 472 26 481 c 1,39,40
 34 488 34 488 37 489.5 c 128,-1,41
 40 491 40 491 45.5 495.5 c 128,-1,42
 51 500 51 500 51.5 501.5 c 128,-1,43
 52 503 52 503 58.5 505.5 c 0,44,45
 66.625 508.625 66.625 508.625 73 515 c 1,46,47
 80.9285714286 512.357142857 80.9285714286 512.357142857 88.9642857143 522.178571429 c 128,-1,48
 97 532 97 532 102 537.5 c 128,-1,49
 107 543 107 543 115 544 c 1,50,51
 115 550 115 550 118.5 552 c 128,-1,52
 122 554 122 554 121.5 560.5 c 128,-1,53
 121 567 121 567 118 573.5 c 128,-1,54
 115 580 115 580 115 590 c 1,55,56
 111 596 111 596 106 601 c 128,-1,57
 101 606 101 606 99 614 c 1,58,59
 93 619 93 619 85.5 619 c 128,-1,60
 78 619 78 619 73 624 c 1,61,62
 68 622 68 622 64 622 c 2,63,-1
 40 616 l 2,64,65
 36 615 36 615 32 616 c 128,-1,66
 28 617 28 617 23.5 616 c 128,-1,67
 19 615 19 615 15.5 612.5 c 0,68,69
 10 608.571428571 10 608.571428571 3.5 605.785714286 c 128,-1,70
 -3 603 -3 603 -7.5 600 c 128,-1,71
 -12 597 -12 597 -16.5 593 c 128,-1,72
 -21 589 -21 589 -26 586 c 1,73,74
 -32 588 -32 588 -39 588 c 128,-1,75
 -46 588 -46 588 -51 590 c 1,76,77
 -58.4545454545 608.636363636 -58.4545454545 608.636363636 -50.5 615 c 0,78,79
 -48 617 -48 617 -42.5 622 c 128,-1,80
 -37 627 -37 627 -35.5 626.5 c 128,-1,81
 -34 626 -34 626 -26.5 631 c 128,-1,82
 -19 636 -19 636 -13 645 c 1,83,84
 -3.8125 646.3125 -3.8125 646.3125 5.09375 651.15625 c 128,-1,85
 14 656 14 656 17.5 656 c 128,-1,86
 21 656 21 656 30 658 c 1,87,88
 40 663 40 663 42.5 661 c 128,-1,89
 45 659 45 659 49 660 c 2,90,-1
 63 664 l 2,91,92
 67 665 67 665 78 662.5 c 128,-1,93
 89 660 89 660 102.5 661 c 128,-1,94
 116 662 116 662 129 660 c 1,95,96
 133 657 133 657 136 653 c 128,-1,97
 139 649 139 649 142.5 646.5 c 128,-1,98
 146 644 146 644 149.5 642.5 c 128,-1,99
 153 641 153 641 156 639 c 128,-1,100
 159 637 159 637 170 626 c 1,101,102
 177 621 177 621 179.5 617 c 128,-1,103
 182 613 182 613 186 610 c 1,104,105
 192 609 192 609 194 613 c 128,-1,106
 196 617 196 617 199 621 c 1,107,108
 202 623 202 623 205.5 624.5 c 128,-1,109
 209 626 209 626 212.5 629.5 c 128,-1,110
 216 633 216 633 218.5 639 c 128,-1,111
 221 645 221 645 229 647 c 1,112,113
 234 654 234 654 239 662 c 1,114,115
 244 664 244 664 248 666.5 c 0,116,117
 264.591304348 676.869565217 264.591304348 676.869565217 269 658.5 c 0,118,119
 272 646 272 646 265 639 c 1,120,121
 252 630 252 630 247.5 627.5 c 128,-1,122
 243 625 243 625 240 622.5 c 128,-1,123
 237 620 237 620 236 616 c 128,-1,124
 235 612 235 612 233 610 c 1,125,126
 227 611 227 611 225.5 607 c 128,-1,127
 224 603 224 603 220 601 c 1,128,129
 218 597 218 597 214 596 c 128,-1,130
 210 595 210 595 208 592 c 1,131,132
 203.857142857 571.285714286 203.857142857 571.285714286 208.928571429 561.142857143 c 128,-1,133
 214 551 214 551 214 549.5 c 128,-1,134
 214 548 214 548 216 544 c 128,-1,135
 218 540 218 540 222.5 533.5 c 128,-1,136
 227 527 227 527 229 522.5 c 128,-1,137
 231 518 231 518 230.5 514 c 128,-1,138
 230 510 230 510 234 500.5 c 128,-1,139
 238 491 238 491 240 477 c 0,140,141
 246.078947368 434.447368421 246.078947368 434.447368421 254 422 c 1,142,143
 254 412 254 412 259.5 389.5 c 128,-1,144
 265 367 265 367 264 357 c 128,-1,145
 263 347 263 347 265 336 c 1,146,147
 263 328 263 328 260 325 c 1,148,149
 262 317 262 317 263.5 306.5 c 128,-1,150
 265 296 265 296 266.5 285 c 0,151,152
 271.452830189 248.679245283 271.452830189 248.679245283 261 233 c 1,153,154
 266 219 266 219 260.5 205 c 128,-1,155
 255 191 255 191 253.5 182 c 128,-1,156
 252 173 252 173 252 170.5 c 128,-1,157
 252 168 252 168 251 165 c 256,158,159
 250 162 250 162 250.5 157 c 128,-1,160
 251 152 251 152 248 147 c 128,-1,161
 245 142 245 142 246 139 c 128,-1,162
 247 136 247 136 246 134 c 256,163,164
 245 132 245 132 243 127.5 c 128,-1,165
 241 123 241 123 238 120.5 c 0,166,167
 232.692307692 116.076923077 232.692307692 116.076923077 227.846153846 101.038461538 c 128,-1,168
 223 86 223 86 222 86 c 128,-1,169
 221 86 221 86 219.5 83 c 128,-1,170
 218 80 218 80 217.5 74 c 128,-1,171
 217 68 217 68 213 64.5 c 128,-1,172
 209 61 209 61 205 59 c 128,-1,173
 201 57 201 57 196.5 53.5 c 128,-1,174
 192 50 192 50 188.5 47 c 128,-1,175
 185 44 185 44 178.5 38 c 128,-1,176
 172 32 172 32 169.5 32 c 128,-1,177
 167 32 167 32 164 29.5 c 128,-1,178
 161 27 161 27 158.5 22 c 128,-1,179
 156 17 156 17 151.5 14.5 c 0,180,181
 143.142857143 9.85714285714 143.142857143 9.85714285714 134.571428571 5.92857142857 c 128,-1,182
 126 2 126 2 123 -2 c 128,-1,183
 120 -6 120 -6 113.5 -9 c 128,-1,184
 107 -12 107 -12 99.5 -12 c 128,-1,185
 92 -12 92 -12 85 -16 c 1,186,187
 80 -11 80 -11 69 -6 c 128,-1,188
 58 -1 58 -1 51 -8 c 1,189,190
 47 -6 47 -6 43.5 -5.5 c 128,-1,191
 40 -5 40 -5 34 -1.5 c 128,-1,192
 28 2 28 2 28 4 c 128,-1,193
 28 6 28 6 22 9.5 c 128,-1,194
 16 13 16 13 12.5 17.5 c 128,-1,195
 9 22 9 22 2 22 c 1,196,197
 2 31 2 31 -1.5 36.5 c 128,-1,198
 -5 42 -5 42 -5 49 c 1,199,-1
 -15 60 l 1,200,201
 -15 73 -15 73 -20 79 c 0,202,203
 -27 87.4 -27 87.4 -27 96 c 1,204,-1
 -32 119 l 1,205,-1
 -30 136 l 257,206,207
 -30 151.5 -30 151.5 -33.5 160.75 c 128,-1,208
 -37 170 -37 170 -32 186 c 128,-1,209
 -27 202 -27 202 -28 216 c 1,210,211
 -9.5873015873 239.015873016 -9.5873015873 239.015873016 -8 266 c 1,212,213
 -4 271 -4 271 0.5 276.5 c 128,-1,214
 5 282 5 282 8.5 288 c 128,-1,215
 12 294 12 294 13 297 c 128,-1,216
 14 300 14 300 18 304 c 1,217,218
 28.1111111111 309.777777778 28.1111111111 309.777777778 33 322 c 1,219,220
 49.8 326.8 49.8 326.8 58 335 c 1,221,222
 69 337 69 337 77 339 c 128,-1,223
 85 341 85 341 93 342 c 2,0,-1
144 134 m 1,224,-1
 150 169 l 1,225,226
 147 177 147 177 149 179 c 128,-1,227
 151 181 151 181 151.5 185 c 128,-1,228
 152 189 152 189 151.5 192 c 128,-1,229
 151 195 151 195 153 202 c 128,-1,230
 155 209 155 209 154.5 213 c 128,-1,231
 154 217 154 217 154.5 221 c 128,-1,232
 155 225 155 225 156 228 c 128,-1,233
 157 231 157 231 156 235.5 c 128,-1,234
 155 240 155 240 150.5 245 c 128,-1,235
 146 250 146 250 144 257.5 c 0,236,237
 141 268.75 141 268.75 141 272 c 1,238,-1
 131.5 281.5 l 2,239,240
 127 286 127 286 126 295 c 1,241,242
 105 300 105 300 91.5 290 c 128,-1,243
 78 280 78 280 66 272 c 1,244,245
 59 262 59 262 54 258 c 1,246,247
 51 247 51 247 43 239 c 1,248,249
 41.2413793103 224.931034483 41.2413793103 224.931034483 32 218 c 1,250,251
 32 212 32 212 29 206 c 128,-1,252
 26 200 26 200 24.5 195 c 128,-1,253
 23 190 23 190 24 186.5 c 128,-1,254
 25 183 25 183 24 178 c 128,-1,255
 23 173 23 173 20 166 c 128,-1,256
 17 159 17 159 20 152 c 1,257,258
 19 148 19 148 17 146.5 c 128,-1,259
 15 145 15 145 15 141 c 1,260,261
 25.0588235294 127.588235294 25.0588235294 127.588235294 20 120 c 1,262,263
 30.2727272727 109.727272727 30.2727272727 109.727272727 29 97 c 1,264,265
 37 89 37 89 40 85 c 1,266,267
 50 61 50 61 55 55 c 1,268,269
 69 44 69 44 75.5 47 c 128,-1,270
 82 50 82 50 92 48 c 1,271,272
 97 50 97 50 100.5 53.5 c 128,-1,273
 104 57 104 57 110 58 c 1,274,275
 118 72 118 72 126.5 84.5 c 128,-1,276
 135 97 135 97 135 120 c 1,277,278
 139 122 139 122 140 127 c 128,-1,279
 141 132 141 132 144 134 c 1,224,-1
EndSplineSet
EndChar

StartChar: Lslash
Encoding: 321 321 3
Width: 406
Flags: HW
LayerCount: 2
Fore
SplineSet
152 787 m 1,0,-1
 164 783 l 1,1,2
 196.448598131 794.588785047 196.448598131 794.588785047 225 788 c 1,3,4
 230 780 230 780 229.5 771.5 c 128,-1,5
 229 763 229 763 232 753 c 1,6,7
 228 743 228 743 219.5 739.5 c 128,-1,8
 211 736 211 736 205 732.5 c 128,-1,9
 199 729 199 729 195.5 726 c 128,-1,10
 192 723 192 723 187 721 c 1,11,12
 184 718 184 718 181 714.5 c 128,-1,13
 178 711 178 711 173 712 c 1,14,15
 172 704 172 704 168.5 701 c 128,-1,16
 165 698 165 698 163 691 c 128,-1,17
 161 684 161 684 162.5 676 c 128,-1,18
 164 668 164 668 163 662 c 128,-1,19
 162 656 162 656 161 653.5 c 128,-1,20
 160 651 160 651 161 648.5 c 128,-1,21
 162 646 162 646 161.5 631.5 c 128,-1,22
 161 617 161 617 161 607 c 128,-1,23
 161 597 161 597 166 585 c 1,24,25
 162 574 162 574 162 561 c 128,-1,26
 162 548 162 548 158 541 c 1,27,28
 163 529 163 529 162 517 c 2,29,-1
 160 503 l 2,30,31
 160 498 160 498 161.5 493 c 128,-1,32
 163 488 163 488 164 481.5 c 128,-1,33
 165 475 165 475 164.5 467 c 128,-1,34
 164 459 164 459 163.5 451 c 0,35,36
 162.28 431.48 162.28 431.48 159 420 c 1,37,38
 161 415 161 415 161 410 c 2,39,-1
 161 396 l 1,40,41
 160 388 160 388 161 383.5 c 128,-1,42
 162 379 162 379 161 376 c 128,-1,43
 160 373 160 373 157.5 369.5 c 128,-1,44
 155 366 155 366 155 361 c 1,45,46
 159.137931034 342.379310345 159.137931034 342.379310345 155.568965517 305.689655172 c 128,-1,47
 152 269 152 269 153 265.5 c 128,-1,48
 154 262 154 262 151 254 c 128,-1,49
 148 246 148 246 149 242 c 128,-1,50
 150 238 150 238 150 232 c 128,-1,51
 150 226 150 226 147.5 221 c 128,-1,52
 145 216 145 216 144 210 c 1,53,-1
 146 183 l 2,54,55
 147 172 147 172 146.5 161.5 c 128,-1,56
 146 151 146 151 150 140 c 1,57,58
 144 131 144 131 144.5 115.5 c 128,-1,59
 145 100 145 100 144.5 88.5 c 128,-1,60
 144 77 144 77 143 70.5 c 0,61,62
 139.269776876 46.2535496957 139.269776876 46.2535496957 165.5 42 c 0,63,64
 184 39 184 39 204 40 c 1,65,-1
 220 43 l 258,66,67
 223 43 223 43 238 40 c 1,68,69
 267.333333333 40 267.333333333 40 315 51 c 1,70,71
 322.5 62.25 322.5 62.25 325.25 68.625 c 128,-1,72
 328 75 328 75 327.5 87 c 128,-1,73
 327 99 327 99 331 105.5 c 0,74,75
 343.558139535 125.906976744 343.558139535 125.906976744 361 123 c 0,76,77
 372.025641026 120.794871795 372.025641026 120.794871795 375 97 c 1,78,-1
 373 53 l 1,79,-1
 365 -41 l 1,80,81
 360 -44 360 -44 358 -48.5 c 128,-1,82
 356 -53 356 -53 348.5 -52.5 c 128,-1,83
 341 -52 341 -52 338.5 -55.5 c 128,-1,84
 336 -59 336 -59 329.5 -58 c 128,-1,85
 323 -57 323 -57 318.5 -51.5 c 128,-1,86
 314 -46 314 -46 309 -42 c 1,87,88
 306 -35 306 -35 305 -25 c 128,-1,89
 304 -15 304 -15 297.5 -13 c 128,-1,90
 291 -11 291 -11 284 -13.5 c 128,-1,91
 277 -16 277 -16 268 -15.5 c 128,-1,92
 259 -15 259 -15 248.5 -9.5 c 128,-1,93
 238 -4 238 -4 228.5 -4.5 c 128,-1,94
 219 -5 219 -5 210 -7.5 c 128,-1,95
 201 -10 201 -10 194 -1 c 1,96,97
 189 -4 189 -4 183 -3 c 128,-1,98
 177 -2 177 -2 172.5 -3.5 c 128,-1,99
 168 -5 168 -5 165 -6.5 c 128,-1,100
 162 -8 162 -8 159 -9 c 1,101,102
 140 -9 140 -9 130.5 -8 c 128,-1,103
 121 -7 121 -7 115 -12 c 1,104,105
 107 -9 107 -9 100 -12.5 c 128,-1,106
 93 -16 93 -16 86 -16 c 1,107,-1
 70 -12 l 2,108,109
 65 -11 65 -11 61 -12 c 128,-1,110
 57 -13 57 -13 49.5 -12.5 c 0,111,112
 17.6024096386 -10.3734939759 17.6024096386 -10.3734939759 12.3012048193 -5.68674698795 c 128,-1,113
 7 -1 7 -1 9 1.5 c 128,-1,114
 11 4 11 4 10 14.5 c 128,-1,115
 9 25 9 25 17.5 29 c 128,-1,116
 26 33 26 33 28.5 37 c 128,-1,117
 31 41 31 41 32.5 45 c 128,-1,118
 34 49 34 49 36 53 c 128,-1,119
 38 57 38 57 38 58 c 2,120,-1
 38 66 l 1,121,-1
 39 77 l 1,122,-1
 41 110 l 1,123,124
 39 128 39 128 39 138 c 128,-1,125
 39 148 39 148 40.5 153 c 128,-1,126
 42 158 42 158 40 164 c 1,127,128
 43 180.5 43 180.5 44 188.25 c 128,-1,129
 45 196 45 196 44 204 c 128,-1,130
 43 212 43 212 43 221 c 1,131,-1
 47 254 l 1,132,133
 47 266 47 266 48 283 c 128,-1,134
 49 300 49 300 48.5 308 c 128,-1,135
 48 316 48 316 49.5 323.5 c 128,-1,136
 51 331 51 331 49.5 335.5 c 128,-1,137
 48 340 48 340 48 344 c 2,138,-1
 53 365 l 1,139,-1
 52 379 l 1,140,-1
 54 394 l 2,141,142
 55 396 55 396 54 398.5 c 128,-1,143
 53 401 53 401 54.1111111111 411.833333333 c 128,-1,144
 55.2222222222 422.666666667 55.2222222222 422.666666667 53 436 c 1,145,-1
 52 488 l 1,146,147
 54 505 54 505 52.5 510.5 c 128,-1,148
 51 516 51 516 51 523 c 2,149,-1
 50 546 l 1,150,-1
 53 557 l 1,151,152
 50 571 50 571 51.5 577 c 128,-1,153
 53 583 53 583 53 591 c 0,154,155
 53 607 53 607 51.5 621.5 c 128,-1,156
 50 636 50 636 51.5 645 c 128,-1,157
 53 654 53 654 53.5 664.5 c 128,-1,158
 54 675 54 675 54 688 c 128,-1,159
 54 701 54 701 58 715 c 1,160,161
 56 720 56 720 54 725 c 128,-1,162
 52 730 52 730 48 735 c 1,163,164
 38 737 38 737 31.5 735 c 128,-1,165
 25 733 25 733 18 732 c 2,166,-1
 7 731 l 1,167,-1
 -9 732 l 1,168,169
 -16 742 -16 742 -17.5 741.5 c 128,-1,170
 -19 741 -19 741 -19 742 c 0,171,172
 -22.6206896552 750.448275862 -22.6206896552 750.448275862 -16 767 c 1,173,174
 -11 769 -11 769 -6.5 771 c 128,-1,175
 -2 773 -2 773 3.5 774 c 128,-1,176
 9 775 9 775 12 778 c 128,-1,177
 15 781 15 781 20 782 c 1,178,179
 49 773 49 773 75 783 c 1,180,181
 84 778 84 778 95 780 c 128,-1,182
 106 782 106 782 120 783 c 2,183,-1
 134 784 l 1,184,-1
 141.5 784 l 2,185,186
 147 784 147 784 152 787 c 1,0,-1
203 446 m 1,187,188
 214 438 214 438 221 422 c 1,189,190
 219 410 219 410 214 399 c 1,191,192
 183.447236181 394.417085427 183.447236181 394.417085427 169.5 372.5 c 0,193,194
 166 367 166 367 161 362 c 1,195,196
 150 354 150 354 138.5 351.5 c 0,197,198
 117.160427807 346.860962567 117.160427807 346.860962567 114.080213904 339.930481283 c 128,-1,199
 111 333 111 333 108 330 c 1,200,201
 100 328 100 328 96.5 324 c 128,-1,202
 93 320 93 320 88 315 c 1,203,204
 78 312 78 312 66 309.5 c 128,-1,205
 54 307 54 307 50 296 c 1,206,207
 32.0588235294 288.823529412 32.0588235294 288.823529412 28.5294117647 284.411764706 c 128,-1,208
 25 280 25 280 21 277.5 c 128,-1,209
 17 275 17 275 13 275.5 c 128,-1,210
 9 276 9 276 4 275.5 c 128,-1,211
 -1 275 -1 275 -5 273 c 128,-1,212
 -9 271 -9 271 -13 274 c 1,213,214
 -19.375 286.75 -19.375 286.75 -17 301 c 1,215,216
 3.08695652174 313.913043478 3.08695652174 313.913043478 37 340 c 1,217,218
 45 344 45 344 49 343 c 1,219,220
 56 355 56 355 69.5 359 c 128,-1,221
 83 363 83 363 92.5 370 c 128,-1,222
 102 377 102 377 110 386.5 c 128,-1,223
 118 396 118 396 127.5 403.5 c 128,-1,224
 137 411 137 411 147.5 415.5 c 128,-1,225
 158 420 158 420 168 428.5 c 128,-1,226
 178 437 178 437 186.5 438.5 c 128,-1,227
 195 440 195 440 203 446 c 1,187,188
EndSplineSet
EndChar

StartChar: lslash
Encoding: 322 322 4
Width: 256
Flags: HW
LayerCount: 2
Fore
SplineSet
204 423 m 1,0,1
 217.235294118 412.411764706 217.235294118 412.411764706 223 398 c 1,2,3
 221 392 221 392 219.5 386.5 c 128,-1,4
 218 381 218 381 215 376 c 1,5,6
 182.891891892 367.972972973 182.891891892 367.972972973 170.5 348.5 c 0,7,8
 160.777777778 333.222222222 160.777777778 333.222222222 144.888888889 329.611111111 c 128,-1,9
 129 326 129 326 122.5 322 c 128,-1,10
 116 318 116 318 114 313.5 c 128,-1,11
 112 309 112 309 109 306 c 1,12,13
 99.25 303.5625 99.25 303.5625 90 292 c 1,14,15
 79 289 79 289 67.5 286.5 c 128,-1,16
 56 284 56 284 51 272 c 1,17,18
 32.0526315789 264.421052632 32.0526315789 264.421052632 29.5263157895 260.210526316 c 128,-1,19
 27 256 27 256 22.5 254 c 128,-1,20
 18 252 18 252 14 252.5 c 128,-1,21
 10 253 10 253 5.5 252.5 c 128,-1,22
 1 252 1 252 -3 250 c 128,-1,23
 -7 248 -7 248 -12 251 c 1,24,25
 -18.1111111111 263.222222222 -18.1111111111 263.222222222 -16 278 c 1,26,27
 20.75 301.625 20.75 301.625 30.875 309.8125 c 0,28,29
 46.5290102389 322.470989761 46.5290102389 322.470989761 50 319 c 1,30,31
 57 332 57 332 71 336 c 128,-1,32
 85 340 85 340 95 346.5 c 128,-1,33
 105 353 105 353 112 363 c 128,-1,34
 119 373 119 373 128.5 380 c 128,-1,35
 138 387 138 387 149 391.5 c 128,-1,36
 160 396 160 396 169.5 405 c 128,-1,37
 179 414 179 414 187.5 415.5 c 128,-1,38
 196 417 196 417 204 423 c 1,0,1
37 622.5 m 128,-1,40
 36 625 36 625 37 640 c 128,-1,41
 38 655 38 655 38 662 c 2,42,-1
 38 674 l 1,43,44
 36 688 36 688 38 692.5 c 128,-1,45
 40 697 40 697 41 702 c 1,46,47
 39 717 39 717 42 724 c 128,-1,48
 45 731 45 731 43 739 c 1,49,50
 41 742 41 742 38.5 743.5 c 128,-1,51
 36 745 36 745 34 748 c 1,52,53
 23 749 23 749 16 745.5 c 128,-1,54
 9 742 9 742 0 740 c 1,55,56
 -5 742 -5 742 -6 739 c 128,-1,57
 -7 736 -7 736 -11.5 733.5 c 128,-1,58
 -16 731 -16 731 -22.5 732.5 c 128,-1,59
 -29 734 -29 734 -33.5 738.5 c 0,60,61
 -44 749 -44 749 -39.5 756 c 128,-1,62
 -35 763 -35 763 -27 765.5 c 128,-1,63
 -19 768 -19 768 -9.5 770.5 c 128,-1,64
 0 773 0 773 10.5 774.5 c 128,-1,65
 21 776 21 776 27.5 778 c 128,-1,66
 34 780 34 780 40.5 781 c 128,-1,67
 47 782 47 782 51.5 784 c 128,-1,68
 56 786 56 786 59 788 c 128,-1,69
 62 790 62 790 66.5 792 c 128,-1,70
 71 794 71 794 74.5 794.5 c 128,-1,71
 78 795 78 795 84.5 797.5 c 0,72,73
 118.068493151 810.410958904 118.068493151 810.410958904 126.534246575 809.705479452 c 128,-1,74
 135 809 135 809 141 808 c 1,75,76
 142 802 142 802 146 797 c 128,-1,77
 150 792 150 792 150.5 786 c 128,-1,78
 151 780 151 780 148.5 776.5 c 0,79,80
 142.578947368 768.210526316 142.578947368 768.210526316 141.789473684 761.105263158 c 128,-1,81
 141 754 141 754 137 752 c 1,82,83
 139.380952381 732.952380952 139.380952381 732.952380952 132 730 c 1,84,-1
 139 669 l 1,85,86
 136.833333333 664.666666667 136.833333333 664.666666667 140.916666667 645.333333333 c 128,-1,87
 145 626 145 626 144.5 609.5 c 128,-1,88
 144 593 144 593 145.5 582.5 c 128,-1,89
 147 572 147 572 148.5 568.5 c 128,-1,90
 150 565 150 565 151 562 c 1,91,-1
 148 542 l 2,92,93
 148 537 148 537 149.5 533 c 128,-1,94
 151 529 151 529 152.5 519 c 128,-1,95
 154 509 154 509 153 493 c 128,-1,96
 152 477 152 477 152 461 c 1,97,-1
 156 419 l 1,98,-1
 152 407 l 1,99,100
 154 399 154 399 153 398 c 128,-1,101
 152 397 152 397 152 378 c 2,102,-1
 152 359 l 1,103,-1
 156 333 l 1,104,-1
 154 322 l 1,105,-1
 158 289 l 1,106,107
 157 281 157 281 155.5 272 c 128,-1,108
 154 263 154 263 159 255 c 1,109,110
 156 248 156 248 157 239.5 c 128,-1,111
 158 231 158 231 155.5 223.5 c 128,-1,112
 153 216 153 216 156 208 c 128,-1,113
 159 200 159 200 159 189 c 1,114,-1
 156 170 l 2,115,116
 155 160 155 160 158 149.5 c 128,-1,117
 161 139 161 139 156 130 c 1,118,119
 164.933333333 106.177777778 164.933333333 106.177777778 158 90 c 1,120,121
 163 75 163 75 160 59 c 128,-1,122
 157 43 157 43 165 29 c 1,123,124
 160 21 160 21 160 9 c 128,-1,125
 160 -3 160 -3 161 -11 c 0,126,127
 165 -34 165 -34 187 -24 c 0,128,129
 193 -21 193 -21 195.5 -17.5 c 128,-1,130
 198 -14 198 -14 204 -16 c 0,131,132
 214 -18 214 -18 214 -33 c 1,133,134
 221 -40 221 -40 220 -52 c 1,135,136
 215.991150442 -61.3539823009 215.991150442 -61.3539823009 200.495575221 -63.1769911504 c 128,-1,137
 185 -65 185 -65 177 -67 c 128,-1,138
 169 -69 169 -69 166 -76 c 1,139,140
 163 -76 163 -76 161 -74.5 c 128,-1,141
 159 -73 159 -73 154 -74 c 1,142,143
 143 -81 143 -81 140 -79.5 c 128,-1,144
 137 -78 137 -78 131 -80 c 128,-1,145
 125 -82 125 -82 118 -88 c 1,146,147
 113 -86 113 -86 107 -87.5 c 128,-1,148
 101 -89 101 -89 93 -85.5 c 128,-1,149
 85 -82 85 -82 72.5 -85.5 c 128,-1,150
 60 -89 60 -89 52 -97 c 1,151,152
 41 -97 41 -97 34 -101 c 128,-1,153
 27 -105 27 -105 16 -104 c 1,154,155
 7 -92.75 7 -92.75 7 -83 c 256,156,157
 7 -81 7 -81 14 -74 c 256,158,159
 16 -72 16 -72 21.5 -69 c 128,-1,160
 27 -66 27 -66 29 -61 c 1,161,162
 49.4285714286 -57.2857142857 49.4285714286 -57.2857142857 70 -47 c 1,163,164
 73.4583333333 -22.7916666667 73.4583333333 -22.7916666667 62 7 c 0,165,166
 60 13 60 13 60.5 16 c 128,-1,167
 61 19 61 19 60 28 c 128,-1,168
 59 37 59 37 57.5 48 c 128,-1,169
 56 59 56 59 55 69 c 128,-1,170
 54 79 54 79 55 87 c 128,-1,171
 56 95 56 95 55 104.5 c 0,172,173
 52 133 52 133 52 146 c 1,174,-1
 46 196 l 1,175,-1
 46 225 l 1,176,-1
 43 248 l 2,177,178
 42 253 42 253 42.5 259 c 128,-1,179
 43 265 43 265 42.5 271.5 c 128,-1,180
 42 278 42 278 41.5 285 c 128,-1,181
 41 292 41 292 36 296 c 1,182,183
 41 308.5 41 308.5 41 314 c 258,184,-1
 38 333 l 2,185,186
 37 337 37 337 38 341.5 c 128,-1,187
 39 346 39 346 39 350 c 2,188,-1
 38 401 l 2,189,190
 38 412 38 412 40.5 423.5 c 128,-1,191
 43 435 43 435 41.5 448 c 128,-1,192
 40 461 40 461 41.5 463.5 c 128,-1,193
 43 466 43 466 43 470 c 2,194,-1
 39 508 l 1,195,-1
 41 529 l 1,196,-1
 38 551 l 2,197,198
 37 554 37 554 38 557.5 c 128,-1,199
 39 561 39 561 39 565 c 2,200,-1
 38 589 l 1,201,202
 39 600 39 600 37.5 603 c 128,-1,203
 36 606 36 606 37 613 c 128,-1,39
 38 620 38 620 37 622.5 c 128,-1,40
EndSplineSet
EndChar

StartChar: Thorn
Encoding: 222 222 9
Width: 513
Flags: HW
LayerCount: 2
Fore
SplineSet
190 644 m 1,0,-1
 220 639 l 1,1,2
 224 640 224 640 227.5 640 c 128,-1,3
 231 640 231 640 237 637.5 c 128,-1,4
 243 635 243 635 244.5 635.5 c 128,-1,5
 246 636 246 636 254 634 c 0,6,7
 285.764705882 626.058823529 285.764705882 626.058823529 300 617 c 1,8,-1
 314 617 l 1,9,10
 316 615 316 615 321 614 c 128,-1,11
 326 613 326 613 328 610 c 1,12,13
 338 612 338 612 344.5 608 c 128,-1,14
 351 604 351 604 357.5 601.5 c 128,-1,15
 364 599 364 599 368 598 c 0,16,17
 377.818181818 595.545454545 377.818181818 595.545454545 381.909090909 590.772727273 c 128,-1,18
 386 586 386 586 389.5 582.5 c 128,-1,19
 393 579 393 579 395 576.5 c 128,-1,20
 397 574 397 574 399.5 572.5 c 0,21,22
 410.571428571 565.857142857 410.571428571 565.857142857 413 561 c 1,23,24
 415 554 415 554 417.5 552 c 128,-1,25
 420 550 420 550 423 546 c 128,-1,26
 426 542 426 542 429 535 c 128,-1,27
 432 528 432 528 435 522 c 256,28,29
 438 516 438 516 440.5 509.5 c 128,-1,30
 443 503 443 503 447.5 494 c 128,-1,31
 452 485 452 485 452 479.5 c 128,-1,32
 452 474 452 474 457 469 c 1,33,34
 459.545454545 441 459.545454545 441 464.272727273 427 c 128,-1,35
 469 413 469 413 469 407.5 c 128,-1,36
 469 402 469 402 470 395 c 0,37,38
 472.727272727 375.909090909 472.727272727 375.909090909 470.863636364 368.454545455 c 128,-1,39
 469 361 469 361 469 358 c 128,-1,40
 469 355 469 355 467.5 350 c 128,-1,41
 466 345 466 345 460 339 c 128,-1,42
 454 333 454 333 456 323 c 1,43,44
 451 321 451 321 448.5 317 c 128,-1,45
 446 313 446 313 442 311 c 1,46,47
 438 291 438 291 428.5 277.5 c 128,-1,48
 419 264 419 264 411 249 c 1,49,50
 398 244 398 244 389 236 c 128,-1,51
 380 228 380 228 362 229 c 1,52,53
 358 227 358 227 358 221.5 c 128,-1,54
 358 216 358 216 353.5 213 c 128,-1,55
 349 210 349 210 342 207.5 c 128,-1,56
 335 205 335 205 333 197 c 1,57,58
 326 199 326 199 323.5 195.5 c 128,-1,59
 321 192 321 192 316 189 c 1,60,61
 302 191.333333333 302 191.333333333 287.5 185.666666667 c 128,-1,62
 273 180 273 180 268 179.5 c 128,-1,63
 263 179 263 179 255.5 177.5 c 128,-1,64
 248 176 248 176 237.5 171 c 128,-1,65
 227 166 227 166 215 168 c 1,66,-1
 172 162 l 1,67,68
 174 154 174 154 174 151 c 1,69,70
 169 146 169 146 171.5 139.5 c 128,-1,71
 174 133 174 133 174 124 c 128,-1,72
 174 115 174 115 172 103 c 1,73,74
 174 88 174 88 173.5 80 c 128,-1,75
 173 72 173 72 181 69 c 1,76,77
 183 64 183 64 183.5 60 c 128,-1,78
 184 56 184 56 186 53 c 1,79,80
 200 56 200 56 204.5 56 c 2,81,-1
 213 56 l 1,82,83
 223 55 223 55 228 46 c 128,-1,84
 233 37 233 37 232 30.5 c 128,-1,85
 231 24 231 24 224 17.5 c 128,-1,86
 217 11 217 11 211 9.5 c 128,-1,87
 205 8 205 8 200.5 9.5 c 128,-1,88
 196 11 196 11 192 11 c 128,-1,89
 188 11 188 11 185 9.5 c 128,-1,90
 182 8 182 8 178.5 7 c 128,-1,91
 175 6 175 6 169.5 8 c 128,-1,92
 164 10 164 10 159 5 c 1,93,94
 144.409836066 9.37704918033 144.409836066 9.37704918033 128 0 c 1,95,96
 124 0 124 0 120.5 1.5 c 128,-1,97
 117 3 117 3 111 2.5 c 128,-1,98
 105 2 105 2 103 -1 c 128,-1,99
 101 -4 101 -4 98 -6 c 1,100,101
 87.085106383 -3.57446808511 87.085106383 -3.57446808511 68.0425531915 -9.28723404255 c 0,102,103
 33.2857142857 -19.7142857143 33.2857142857 -19.7142857143 19 -14 c 1,104,105
 9.37974683544 3.3164556962 9.37974683544 3.3164556962 27 18 c 1,106,107
 38 16 38 16 45.5 22 c 128,-1,108
 53 28 53 28 61 28 c 1,109,110
 62 34 62 34 64.5 34.5 c 128,-1,111
 67 35 67 35 68 42 c 1,112,113
 76 51.3333333333 76 51.3333333333 76 59.1666666667 c 128,-1,114
 76 67 76 67 77.5 70.5 c 128,-1,115
 79 74 79 74 74 80 c 128,-1,116
 69 86 69 86 72 95 c 128,-1,117
 75 104 75 104 74.5 108 c 2,118,-1
 77 131 l 2,119,120
 77 133 77 133 74 148 c 1,121,122
 57 147 57 147 40.5 145 c 128,-1,123
 24 143 24 143 7 151 c 1,124,125
 -2.23076923077 165.769230769 -2.23076923077 165.769230769 14 182 c 1,126,127
 26 180 26 180 39 187.5 c 128,-1,128
 52 195 52 195 61 195 c 1,129,130
 67 207 67 207 66.5 210 c 0,131,132
 65 219 65 219 65 223 c 128,-1,133
 65 227 65 227 59 251 c 1,134,-1
 61 262 l 1,135,-1
 58 356 l 1,136,137
 60 369 60 369 59 373.5 c 128,-1,138
 58 378 58 378 58 381 c 2,139,-1
 60 396 l 257,140,141
 59 408 l 1,142,-1
 58 439 l 1,143,144
 54.25 469 54.25 469 56 490 c 1,145,-1
 58 501 l 1,146,-1
 52 536.5 l 1,147,-1
 52 549 l 1,148,-1
 54 560 l 1,149,150
 51 573 51 573 52 579.5 c 128,-1,151
 53 586 53 586 53 591 c 1,152,153
 49 595 49 595 43 596.5 c 128,-1,154
 37 598 37 598 34 602 c 1,155,156
 23 603 23 603 15 600.5 c 128,-1,157
 7 598 7 598 -4.5 598 c 128,-1,158
 -16 598 -16 598 -22 603 c 128,-1,159
 -28 608 -28 608 -29.5 611 c 128,-1,160
 -31 614 -31 614 -33 617 c 1,161,162
 -27 635 -27 635 -22 640 c 1,163,164
 8 640 8 640 17 649 c 1,165,166
 26 647 26 647 34 650.5 c 128,-1,167
 42 654 42 654 50 648 c 1,168,169
 51 652 51 652 51 656 c 128,-1,170
 51 660 51 660 51.5 668.5 c 128,-1,171
 52 677 52 677 51.5 690.5 c 128,-1,172
 51 704 51 704 55 718 c 1,173,174
 52 723 52 723 50 728 c 128,-1,175
 48 733 48 733 45 737 c 1,176,177
 34 739 34 739 27.5 737 c 128,-1,178
 21 735 21 735 14 734 c 1,179,180
 6 736 6 736 5 734 c 128,-1,181
 4 732 4 732 3 732 c 2,182,-1
 -12 733 l 1,183,184
 -18 741 -18 741 -22 745 c 0,185,186
 -29 752 -29 752 -20 767 c 1,187,188
 -15 769 -15 769 -11 771.5 c 128,-1,189
 -7 774 -7 774 -1.5 775 c 128,-1,190
 4 776 4 776 7 779 c 128,-1,191
 10 782 10 782 15 784 c 1,192,193
 43 775 43 775 70 786 c 1,194,195
 79 781 79 781 90 783.5 c 128,-1,196
 101 786 101 786 113 786.5 c 128,-1,197
 125 787 125 787 125.5 788.5 c 128,-1,198
 126 790 126 790 128 790 c 1,199,200
 135.772727273 784.818181818 135.772727273 784.818181818 146 793 c 1,201,202
 149 793 149 793 159 788 c 1,203,204
 188.849056604 800.79245283 188.849056604 800.79245283 220 796 c 1,205,206
 225 787 225 787 224.5 779 c 128,-1,207
 224 771 224 771 228 761 c 1,208,209
 224 751 224 751 215.5 747 c 128,-1,210
 207 743 207 743 201 739.5 c 128,-1,211
 195 736 195 736 191 732.5 c 128,-1,212
 187 729 187 729 183.5 726.5 c 128,-1,213
 180 724 180 724 177.5 720.5 c 128,-1,214
 175 717 175 717 170 718 c 1,215,216
 169 711 169 711 165.5 707.5 c 128,-1,217
 162 704 162 704 160 697 c 128,-1,218
 158 690 158 690 160 681.5 c 128,-1,219
 162 673 162 673 161.5 667 c 128,-1,220
 161 661 161 661 160 658.5 c 128,-1,221
 159 656 159 656 163 650.5 c 128,-1,222
 167 645 167 645 179 642 c 1,223,-1
 190 644 l 1,0,-1
168 382 m 2,224,-1
 172 357 l 1,225,226
 173 338 173 338 172 320.5 c 128,-1,227
 171 303 171 303 176 291 c 1,228,229
 171 287 171 287 172.5 280 c 128,-1,230
 174 273 174 273 174 271 c 0,231,232
 169.619047619 258.952380952 169.619047619 258.952380952 176 243 c 1,233,234
 181 238 181 238 182.5 233.5 c 128,-1,235
 184 229 184 229 186 227 c 1,236,237
 198 223 198 223 198 222 c 128,-1,238
 198 221 198 221 200 220 c 1,239,240
 218 224 218 224 229.5 224 c 128,-1,241
 241 224 241 224 248.5 226 c 128,-1,242
 256 228 256 228 261 228.5 c 128,-1,243
 266 229 266 229 269 230.5 c 128,-1,244
 272 232 272 232 274 236.5 c 0,245,246
 276.533333333 242.2 276.533333333 242.2 284.266666667 245.1 c 128,-1,247
 292 248 292 248 296 250 c 1,248,249
 299 258 299 258 306 260 c 128,-1,250
 313 262 313 262 318 267 c 1,251,252
 322 274 322 274 323.5 275 c 0,253,254
 327.294117647 277.529411765 327.294117647 277.529411765 328.647058824 282.264705882 c 128,-1,255
 330 287 330 287 332.5 290.5 c 128,-1,256
 335 294 335 294 337 300 c 128,-1,257
 339 306 339 306 344 311 c 1,258,259
 343 325 343 325 347 334 c 128,-1,260
 351 343 351 343 354 354 c 128,-1,261
 357 365 357 365 357.5 377.5 c 128,-1,262
 358 390 358 390 365 402 c 1,263,264
 360 415 360 415 356 424 c 128,-1,265
 352 433 352 433 356 445 c 1,266,267
 353.152542373 473.474576271 353.152542373 473.474576271 347.576271186 482.237288136 c 128,-1,268
 342 491 342 491 337.5 496 c 128,-1,269
 333 501 333 501 330 507 c 128,-1,270
 327 513 327 513 316.5 523.5 c 128,-1,271
 306 534 306 534 302 536 c 1,272,273
 299 541 299 541 288.5 547 c 128,-1,274
 278 553 278 553 268.5 556 c 128,-1,275
 259 559 259 559 253.5 563 c 128,-1,276
 248 567 248 567 234.5 567 c 128,-1,277
 221 567 221 567 210 569.5 c 128,-1,278
 199 572 199 572 189.5 574 c 0,279,280
 167.785714286 578.571428571 167.785714286 578.571428571 163 569 c 1,281,282
 163 561 163 561 162 557 c 1,283,284
 166 549 166 549 165 539.5 c 128,-1,285
 164 530 164 530 164 523 c 2,286,-1
 163 502 l 1,287,288
 168 487 168 487 168 475.5 c 2,289,-1
 168 456 l 1,290,291
 169.891891892 429.513513514 169.891891892 429.513513514 166 412 c 1,292,293
 170 399 170 399 169 391.5 c 128,-1,294
 168 384 168 384 168 382 c 2,224,-1
EndSplineSet
EndChar

StartChar: thorn
Encoding: 254 254 10
Width: 493
Flags: HW
LayerCount: 2
Fore
SplineSet
439 358 m 1,0,-1
 440 340 l 1,1,2
 437 338 437 338 437 333.5 c 128,-1,3
 437 329 437 329 432 327 c 1,4,5
 434 321 434 321 429.5 317.5 c 128,-1,6
 425 314 425 314 423.5 311 c 128,-1,7
 422 308 422 308 423.5 303.5 c 128,-1,8
 425 299 425 299 420 294 c 128,-1,9
 415 289 415 289 413.5 280 c 128,-1,10
 412 271 412 271 407 269 c 1,11,12
 402 265 402 265 400 257 c 1,13,14
 391 256 391 256 385 248.5 c 128,-1,15
 379 241 379 241 374.5 237.5 c 0,16,17
 366.142857143 231 366.142857143 231 361 231 c 1,18,19
 351 222 351 222 346 224 c 128,-1,20
 341 226 341 226 336.5 223.5 c 128,-1,21
 332 221 332 221 326 221 c 1,22,23
 327 215 327 215 321.5 215 c 128,-1,24
 316 215 316 215 314 212 c 1,25,26
 308 210 308 210 305.5 209 c 128,-1,27
 303 208 303 208 298.5 208.5 c 128,-1,28
 294 209 294 209 293 206 c 128,-1,29
 292 203 292 203 281.5 203.5 c 128,-1,30
 271 204 271 204 265.5 202.5 c 128,-1,31
 260 201 260 201 256 201.5 c 128,-1,32
 252 202 252 202 248.5 200.5 c 128,-1,33
 245 199 245 199 240 201 c 2,34,-1
 227 207 l 2,35,36
 222 209 222 209 216 212 c 128,-1,37
 210 215 210 215 201 213 c 1,38,39
 189.4375 219.9375 189.4375 219.9375 182 221 c 1,40,41
 180 224 180 224 178.5 228 c 128,-1,42
 177 232 177 232 172 233 c 256,43,44
 167 234 167 234 165.5 230 c 128,-1,45
 164 226 164 226 160 225 c 1,46,-1
 163 168 l 2,47,48
 164 160 164 160 163 154.5 c 128,-1,49
 162 149 162 149 165.5 139 c 128,-1,50
 169 129 169 129 169 121.5 c 2,51,-1
 169 109 l 2,52,53
 168.416666667 99.6666666667 168.416666667 99.6666666667 172 71 c 1,54,-1
 173 42 l 1,55,56
 171 31 171 31 171 21.5 c 128,-1,57
 171 12 171 12 171 6.5 c 128,-1,58
 171 1 171 1 169.5 -1 c 128,-1,59
 168 -3 168 -3 168 -6 c 2,60,-1
 175 -26 l 1,61,-1
 177 -52 l 2,62,63
 177 -63 177 -63 178 -63 c 2,64,-1
 177 -74 l 2,65,66
 177 -77 177 -77 179.5 -80 c 128,-1,67
 182 -83 182 -83 181 -90 c 128,-1,68
 180 -97 180 -97 181.5 -109 c 128,-1,69
 183 -121 183 -121 183 -132 c 1,70,71
 181 -133 181 -133 181.5 -140 c 128,-1,72
 182 -147 182 -147 182.5 -155.5 c 128,-1,73
 183 -164 183 -164 184 -171 c 128,-1,74
 185 -178 185 -178 183.5 -181.5 c 128,-1,75
 182 -185 182 -185 183.5 -196.5 c 128,-1,76
 185 -208 185 -208 183.5 -215.5 c 128,-1,77
 182 -223 182 -223 182.5 -235.5 c 128,-1,78
 183 -248 183 -248 183 -256 c 1,79,80
 197.5 -261.4375 197.5 -261.4375 209 -260 c 1,81,82
 215 -255 215 -255 217 -258.5 c 128,-1,83
 219 -262 219 -262 222.5 -260.5 c 128,-1,84
 226 -259 226 -259 228.5 -257 c 128,-1,85
 231 -255 231 -255 235 -257 c 0,86,87
 244.2 -261.6 244.2 -261.6 246 -267 c 1,88,89
 259.245901639 -276.93442623 259.245901639 -276.93442623 244.5 -298 c 0,90,91
 241 -303 241 -303 236.5 -304 c 128,-1,92
 232 -305 232 -305 225.5 -307 c 128,-1,93
 219 -309 219 -309 212.5 -308.5 c 128,-1,94
 206 -308 206 -308 196 -312 c 1,95,96
 192 -310 192 -310 187.5 -309.5 c 128,-1,97
 183 -309 183 -309 183 -304 c 1,98,-1
 167 -311 l 1,99,-1
 142 -310 l 1,100,101
 132 -314 132 -314 130.5 -314.5 c 128,-1,102
 129 -315 129 -315 125.5 -315 c 128,-1,103
 122 -315 122 -315 120 -317 c 128,-1,104
 118 -319 118 -319 115 -321 c 1,105,106
 95.3636363636 -316.636363636 95.3636363636 -316.636363636 86 -326 c 1,107,108
 77 -322 77 -322 69.5 -322.5 c 128,-1,109
 62 -323 62 -323 52 -319 c 1,110,111
 47 -322 47 -322 39 -328 c 128,-1,112
 31 -334 31 -334 23.5 -332.5 c 0,113,114
 14.5714285714 -330.714285714 14.5714285714 -330.714285714 6 -325 c 1,115,116
 2 -311 2 -311 11.5 -301 c 128,-1,117
 21 -291 21 -291 30 -288.5 c 128,-1,118
 39 -286 39 -286 44.5 -284 c 128,-1,119
 50 -282 50 -282 58.5 -279 c 128,-1,120
 67 -276 67 -276 73.5 -273.5 c 128,-1,121
 80 -271 80 -271 87 -273 c 1,122,123
 69.1967213115 -86.0655737705 69.1967213115 -86.0655737705 71 -50 c 1,124,-1
 67 -2 l 1,125,-1
 69 11 l 1,126,127
 68 19 68 19 67.5 27 c 128,-1,128
 67 35 67 35 66 42 c 128,-1,129
 65 49 65 49 63 55 c 128,-1,130
 61 61 61 61 60 70.5 c 128,-1,131
 59 80 59 80 60 91.5 c 128,-1,132
 61 103 61 103 60 113 c 128,-1,133
 59 123 59 123 57.5 130 c 128,-1,134
 56 137 56 137 55 146 c 128,-1,135
 54 155 54 155 54.5 164 c 128,-1,136
 55 173 55 173 54 184 c 128,-1,137
 53 195 53 195 52 206 c 128,-1,138
 51 217 51 217 49.5 229 c 128,-1,139
 48 241 48 241 49 243 c 128,-1,140
 50 245 50 245 49.5 249 c 128,-1,141
 49 253 49 253 47 260 c 128,-1,142
 45 267 45 267 46 274 c 2,143,-1
 48 287 l 1,144,145
 47 292 47 292 45.5 296 c 128,-1,146
 44 300 44 300 42.5 307 c 128,-1,147
 41 314 41 314 41.5 324 c 128,-1,148
 42 334 42 334 40 344 c 1,149,-1
 39 356 l 2,150,151
 38 359 38 359 36 364 c 128,-1,152
 34 369 34 369 34.5 376 c 128,-1,153
 35 383 35 383 34 386.5 c 128,-1,154
 33 390 33 390 31.5 398.5 c 0,155,156
 27 424 27 424 26.5 438 c 128,-1,157
 26 452 26 452 27 454 c 128,-1,158
 28 456 28 456 27 461 c 0,159,160
 25 466 25 466 26 475 c 128,-1,161
 27 484 27 484 28 493 c 1,162,-1
 25 512 l 2,163,164
 24 514 24 514 22 525 c 128,-1,165
 20 536 20 536 22 538 c 1,166,167
 20 541 20 541 21 544 c 128,-1,168
 22 547 22 547 20 549 c 1,169,-1
 15.5 571.5 l 2,170,171
 10.625 595.875 10.625 595.875 12.3125 600.9375 c 128,-1,172
 14 606 14 606 13 610.5 c 128,-1,173
 12 615 12 615 9.5 622 c 0,174,175
 3.83673469388 637.857142857 3.83673469388 637.857142857 4.41836734694 641.928571429 c 128,-1,176
 5 646 5 646 4.5 650 c 128,-1,177
 4 654 4 654 2.5 657 c 128,-1,178
 1 660 1 660 0 665.5 c 0,179,180
 -3 682 -3 682 -3 695 c 1,181,-1
 -6 718 l 2,182,183
 -7 726 -7 726 -4.5 734.5 c 0,184,185
 -1.0625 746.1875 -1.0625 746.1875 -7 764 c 1,186,-1
 -9 785 l 2,187,188
 -10 787 -10 787 -10.5 790.5 c 128,-1,189
 -11 794 -11 794 -11.5 796.5 c 128,-1,190
 -12 799 -12 799 -12 807.5 c 128,-1,191
 -12 816 -12 816 -14.5 816 c 128,-1,192
 -17 816 -17 816 -20 821 c 1,193,194
 -24.5 820 -24.5 820 -52 820 c 1,195,-1
 -73 822 l 1,196,197
 -74 827 -74 827 -77 828 c 128,-1,198
 -80 829 -80 829 -82 834 c 1,199,200
 -80 846 -80 846 -75 853 c 1,201,202
 -64 858 -64 858 -63 856.5 c 128,-1,203
 -62 855 -62 855 -58.5 856 c 128,-1,204
 -55 857 -55 857 -48.5 859.5 c 128,-1,205
 -42 862 -42 862 -32.5 863.5 c 128,-1,206
 -23 865 -23 865 -11 865 c 128,-1,207
 1 865 1 865 7 873 c 1,208,209
 13 869 13 869 23.5 874.5 c 128,-1,210
 34 880 34 880 41 881.5 c 128,-1,211
 48 883 48 883 55.5 878.5 c 128,-1,212
 63 874 63 874 67 880 c 1,213,214
 85 875 85 875 85 867.5 c 128,-1,215
 85 860 85 860 87 855.5 c 128,-1,216
 89 851 89 851 90 848.5 c 128,-1,217
 91 846 91 846 91.5 842.5 c 128,-1,218
 92 839 92 839 93.5 832 c 128,-1,219
 95 825 95 825 98 810 c 1,220,221
 96 802 96 802 98 791.5 c 128,-1,222
 100 781 100 781 100 770 c 2,223,-1
 99 751 l 1,224,225
 100 741 100 741 102 732 c 0,226,227
 106 714 106 714 106 700.5 c 128,-1,228
 106 687 106 687 109 678 c 128,-1,229
 112 669 112 669 111 667.5 c 128,-1,230
 110 666 110 666 110 664 c 2,231,-1
 115 643 l 257,232,-1
 115 632.5 l 2,233,234
 115 626 115 626 116 620 c 2,235,-1
 117 606 l 1,236,237
 117 589 117 589 120 570.5 c 128,-1,238
 123 552 123 552 123.5 545.5 c 128,-1,239
 124 539 124 539 126.5 528.5 c 128,-1,240
 129 518 129 518 130 511 c 128,-1,241
 131 504 131 504 139 503 c 128,-1,242
 147 502 147 502 150.5 505.5 c 128,-1,243
 154 509 154 509 157.5 513 c 128,-1,244
 161 517 161 517 164.5 521 c 128,-1,245
 168 525 168 525 173 525 c 1,246,247
 179 537 179 537 182 541 c 1,248,249
 187 542 187 542 189 545.5 c 128,-1,250
 191 549 191 549 194 551 c 128,-1,251
 197 553 197 553 200.5 553 c 128,-1,252
 204 553 204 553 207.5 555 c 128,-1,253
 211 557 211 557 216.5 561 c 128,-1,254
 222 565 222 565 229 568 c 1,255,256
 237 565 237 565 244 572 c 128,-1,257
 251 579 251 579 259 580 c 1,258,259
 268 578 268 578 274.5 579 c 128,-1,260
 281 580 281 580 292 579.5 c 128,-1,261
 303 579 303 579 312.5 579 c 128,-1,262
 322 579 322 579 330 577 c 128,-1,263
 338 575 338 575 344 574.5 c 128,-1,264
 350 574 350 574 356 571 c 128,-1,265
 362 568 362 568 367.5 561 c 128,-1,266
 373 554 373 554 379 554 c 1,267,268
 388.230769231 540.153846154 388.230769231 540.153846154 399 534 c 1,269,270
 400 532 400 532 400 527.5 c 128,-1,271
 400 523 400 523 403 519.5 c 0,272,273
 408.307692308 513.307692308 408.307692308 513.307692308 420 487 c 1,274,275
 428 475 428 475 430 468.5 c 128,-1,276
 432 462 432 462 437 457 c 1,277,278
 438 445 438 445 441 432 c 128,-1,279
 444 419 444 419 445.5 406 c 0,280,281
 449.096774194 374.827956989 449.096774194 374.827956989 439 358 c 1,0,-1
157 378 m 1,282,-1
 156 347 l 1,283,284
 159 343 159 343 162.5 340 c 128,-1,285
 166 337 166 337 169 333 c 1,286,287
 172 323 172 323 173.5 317 c 128,-1,288
 175 311 175 311 177 306 c 1,289,290
 181 304 181 304 184.5 301.5 c 128,-1,291
 188 299 188 299 191 297 c 1,292,293
 195 288 195 288 201 283 c 128,-1,294
 207 278 207 278 212 270 c 1,295,296
 225 269 225 269 236 267 c 128,-1,297
 247 265 247 265 258 263 c 1,298,299
 265 265 265 265 272 268 c 128,-1,300
 279 271 279 271 289 267 c 1,301,302
 291 271 291 271 295.5 271.5 c 0,303,304
 302.785714286 272.30952381 302.785714286 272.30952381 305.392857143 276.654761905 c 128,-1,305
 308 281 308 281 314 286 c 128,-1,306
 320 291 320 291 321 295.5 c 128,-1,307
 322 300 322 300 325 307.5 c 128,-1,308
 328 315 328 315 329 317 c 128,-1,309
 330 319 330 319 331 322.5 c 128,-1,310
 332 326 332 326 335 331 c 128,-1,311
 338 336 338 336 339.5 347.5 c 128,-1,312
 341 359 341 359 342 374.5 c 128,-1,313
 343 390 343 390 344.5 401.5 c 0,314,315
 346.204545455 414.568181818 346.204545455 414.568181818 344.602272727 424.284090909 c 128,-1,316
 343 434 343 434 344 438.5 c 128,-1,317
 345 443 345 443 341 445 c 1,318,319
 344 447 344 447 341.5 453 c 128,-1,320
 339 459 339 459 342 460 c 1,321,322
 334.692307692 471.692307692 334.692307692 471.692307692 323 498 c 1,323,324
 315 511 315 511 309 513.5 c 128,-1,325
 303 516 303 516 298 522 c 1,326,327
 293 520 293 520 289.5 521.5 c 128,-1,328
 286 523 286 523 279.5 520.5 c 128,-1,329
 273 518 273 518 270.5 519 c 128,-1,330
 268 520 268 520 260.5 518 c 0,331,332
 246.214285714 514.19047619 246.214285714 514.19047619 242 517 c 1,333,334
 240 514 240 514 235 512 c 128,-1,335
 230 510 230 510 226 508 c 128,-1,336
 222 506 222 506 216.5 502.5 c 128,-1,337
 211 499 211 499 204 497 c 1,338,339
 202 495 202 495 201.5 491 c 0,340,341
 200.290322581 481.322580645 200.290322581 481.322580645 187 478 c 1,342,343
 186 469 186 469 178 464 c 1,344,-1
 176 451 l 1,345,346
 171 446 171 446 168.5 439 c 128,-1,347
 166 432 166 432 161 427 c 1,348,349
 163 416 163 416 159 407 c 128,-1,350
 155 398 155 398 154 389 c 1,351,-1
 157 378 l 1,282,-1
EndSplineSet
EndChar

StartChar: onehalf
Encoding: 189 189 13
Width: 562
Flags: HW
LayerCount: 2
Fore
SplineSet
82 163 m 1,0,-1
 98 176 l 1,1,2
 96 180 96 180 99.5 182 c 0,3,4
 105.333333333 185.333333333 105.333333333 185.333333333 107.166666667 192.666666667 c 0,5,6
 109.923076923 203.692307692 109.923076923 203.692307692 115.461538462 207.846153846 c 128,-1,7
 121 212 121 212 123.5 216.5 c 128,-1,8
 126 221 126 221 127 226.5 c 128,-1,9
 128 232 128 232 130 237 c 1,10,11
 141 249 141 249 146 254 c 128,-1,12
 151 259 151 259 155 265 c 0,13,14
 158 271 158 271 162 277.5 c 128,-1,15
 166 284 166 284 169 293.5 c 128,-1,16
 172 303 172 303 174 304.5 c 128,-1,17
 176 306 176 306 179 311 c 0,18,19
 183.2 318 183.2 318 190 335 c 1,20,21
 200 343 200 343 205 354.5 c 128,-1,22
 210 366 210 366 212 367.5 c 128,-1,23
 214 369 214 369 216 371 c 1,24,25
 219 381 219 381 221 384.5 c 128,-1,26
 223 388 223 388 226.5 393 c 128,-1,27
 230 398 230 398 230 400.5 c 128,-1,28
 230 403 230 403 234.5 410 c 128,-1,29
 239 417 239 417 239 418.5 c 128,-1,30
 239 420 239 420 243.5 425 c 128,-1,31
 248 430 248 430 248.5 434 c 0,32,33
 249.538461538 442.307692308 249.538461538 442.307692308 253.769230769 449.653846154 c 0,34,35
 263.661764706 466.830882353 263.661764706 466.830882353 270 470 c 1,36,37
 270 475 270 475 275 480 c 256,38,39
 277 482 277 482 278 485.5 c 128,-1,40
 279 489 279 489 281 491.5 c 128,-1,41
 283 494 283 494 289 500 c 1,42,43
 293 510 293 510 301 520 c 256,44,45
 305 525 305 525 308.5 532 c 128,-1,46
 312 539 312 539 317 544.5 c 128,-1,47
 322 550 322 550 325 558 c 128,-1,48
 328 566 328 566 331.5 572.5 c 0,49,50
 340.25 588.75 340.25 588.75 343.125 593.375 c 128,-1,51
 346 598 346 598 347.5 600.5 c 128,-1,52
 349 603 349 603 353.5 610.5 c 128,-1,53
 358 618 358 618 361 623 c 128,-1,54
 364 628 364 628 366 632 c 128,-1,55
 368 636 368 636 371.5 640.5 c 128,-1,56
 375 645 375 645 376.5 644.5 c 128,-1,57
 378 644 378 644 379.5 645.5 c 128,-1,58
 381 647 381 647 381.5 650.5 c 128,-1,59
 382 654 382 654 384 656 c 0,60,61
 393 661 393 661 394 662.5 c 128,-1,62
 395 664 395 664 398.5 664.5 c 0,63,64
 413.666666667 666.666666667 413.666666667 666.666666667 419 664 c 1,65,-1
 424 649 l 2,66,67
 425 644 425 644 423 642 c 128,-1,68
 421 640 421 640 419 636.5 c 128,-1,69
 417 633 417 633 417 629 c 128,-1,70
 417 625 417 625 414.5 621.5 c 128,-1,71
 412 618 412 618 408.5 615.5 c 128,-1,72
 405 613 405 613 402 609 c 1,73,-1
 402 593 l 1,74,75
 400 591 400 591 399 587.5 c 128,-1,76
 398 584 398 584 394 580 c 128,-1,77
 390 576 390 576 391 572.5 c 0,78,79
 392.888888889 565.888888889 392.888888889 565.888888889 377 550 c 1,80,81
 376 546 376 546 375 543 c 128,-1,82
 374 540 374 540 374 535 c 1,83,84
 371 534 371 534 369 531.5 c 128,-1,85
 367 529 367 529 362 530 c 1,86,87
 362 513.857142857 362 513.857142857 346 507 c 1,88,-1
 339 487.5 l 1,89,90
 339 481 339 481 330 472 c 128,-1,91
 321 463 321 463 321 452 c 1,92,93
 313 447 313 447 310 438 c 128,-1,94
 307 429 307 429 301 423 c 1,95,-1
 299 406 l 1,96,97
 294 404 294 404 295 400.5 c 128,-1,98
 296 397 296 397 291 390.5 c 0,99,100
 280.375 376.6875 280.375 376.6875 273 373 c 1,101,102
 266.625 349.625 266.625 349.625 256 339 c 1,103,104
 255 329 255 329 250 324 c 128,-1,105
 245 319 245 319 245 308 c 1,106,107
 235 303 235 303 232 287 c 1,108,109
 222 279 222 279 216.5 268 c 128,-1,110
 211 257 211 257 203 248 c 1,111,112
 205 242 205 242 203 239.5 c 128,-1,113
 201 237 201 237 202 231 c 1,114,115
 197 226 197 226 190.5 222.5 c 128,-1,116
 184 219 184 219 180.5 215 c 128,-1,117
 177 211 177 211 175.5 206.5 c 128,-1,118
 174 202 174 202 169 203 c 1,119,120
 167.538461538 189.846153846 167.538461538 189.846153846 158.769230769 178.923076923 c 128,-1,121
 150 168 150 168 150 166.5 c 0,122,123
 150 164.2 150 164.2 145.5 160.6 c 128,-1,124
 141 157 141 157 139 154.5 c 128,-1,125
 137 152 137 152 137.5 148 c 128,-1,126
 138 144 138 144 136 141 c 0,127,128
 126.666666667 131.666666667 126.666666667 131.666666667 116 129 c 1,129,130
 112 125 112 125 109 121 c 128,-1,131
 106 117 106 117 102.5 113.5 c 128,-1,132
 99 110 99 110 96 108 c 128,-1,133
 93 106 93 106 87 110.5 c 128,-1,134
 81 115 81 115 80.5 117 c 128,-1,135
 80 119 80 119 78 126 c 0,136,137
 75 133 75 133 75 139.5 c 128,-1,138
 75 146 75 146 79 151.5 c 128,-1,139
 83 157 83 157 82 163 c 1,0,-1
76 485 m 1,140,-1
 79 497 l 1,141,142
 77 505 77 505 78.5 509.5 c 128,-1,143
 80 514 80 514 76 518 c 1,144,145
 59.0285714286 519.542857143 59.0285714286 519.542857143 50 506 c 1,146,147
 47 505 47 505 43 505 c 128,-1,148
 39 505 39 505 34 502.5 c 128,-1,149
 29 500 29 500 26 497 c 128,-1,150
 23 494 23 494 15.5 495 c 128,-1,151
 8 496 8 496 4.5 501 c 128,-1,152
 1 506 1 506 -3.5 513 c 128,-1,153
 -8 520 -8 520 -5.5 532 c 128,-1,154
 -3 544 -3 544 11 544 c 0,155,156
 17.6666666667 544 17.6666666667 544 19.3333333333 541.5 c 0,157,158
 22.2307692308 537.153846154 22.2307692308 537.153846154 29.1153846154 536.076923077 c 128,-1,159
 36 535 36 535 41.5 540.5 c 128,-1,160
 47 546 47 546 53.5 550 c 128,-1,161
 60 554 60 554 60 555.5 c 128,-1,162
 60 557 60 557 64 558 c 128,-1,163
 68 559 68 559 69.5 562 c 128,-1,164
 71 565 71 565 76 565 c 1,165,166
 81 575 81 575 80 579.5 c 128,-1,167
 79 584 79 584 82.5 593 c 0,168,169
 88.8823529412 609.411764706 88.8823529412 609.411764706 93 630 c 1,170,171
 98 635 98 635 109 638.5 c 128,-1,172
 120 642 120 642 131 637 c 1,173,174
 135 631 135 631 140 620 c 128,-1,175
 145 609 145 609 147.5 600 c 128,-1,176
 150 591 150 591 148.5 579 c 128,-1,177
 147 567 147 567 153 557 c 1,178,179
 149 555 149 555 150 549.5 c 128,-1,180
 151 544 151 544 148 542 c 1,181,182
 152 534 152 534 152 520.5 c 128,-1,183
 152 507 152 507 146 483 c 1,184,185
 146 473 146 473 148.5 465 c 128,-1,186
 151 457 151 457 148 445 c 2,187,-1
 145 434 l 2,188,189
 144 429 144 429 145.5 423.5 c 128,-1,190
 147 418 147 418 146 413 c 2,191,-1
 143 397 l 1,192,-1
 145 385 l 1,193,-1
 143 372 l 1,194,-1
 143 353.5 l 2,195,196
 143 329 143 329 139.5 325.5 c 128,-1,197
 136 322 136 322 138 317 c 1,198,199
 135 315 135 315 133 312 c 128,-1,200
 131 309 131 309 126 311 c 1,201,202
 126 306 126 306 122.5 304.5 c 128,-1,203
 119 303 119 303 117 301 c 1,204,205
 106 304 106 304 97.5 302 c 128,-1,206
 89 300 89 300 83.5 302 c 128,-1,207
 78 304 78 304 73 312.5 c 128,-1,208
 68 321 68 321 68 326 c 128,-1,209
 68 331 68 331 69 342 c 1,210,-1
 67 356 l 1,211,212
 69 368 69 368 68 371 c 128,-1,213
 67 374 67 374 67 376 c 2,214,-1
 70 395 l 1,215,-1
 69 411 l 2,216,217
 67.2142857143 425.285714286 67.2142857143 425.285714286 70.1071428571 442.142857143 c 128,-1,218
 73 459 73 459 75 463.5 c 128,-1,219
 77 468 77 468 77 473 c 2,220,-1
 76 485 l 1,140,-1
280 97 m 1,221,-1
 278 112 l 1,222,223
 279 116 279 116 280 121.5 c 128,-1,224
 281 127 281 127 283.5 132 c 0,225,226
 287 139 287 139 291.5 145 c 128,-1,227
 296 151 296 151 298 153 c 128,-1,228
 300 155 300 155 307.5 165.5 c 128,-1,229
 315 176 315 176 323 177 c 1,230,231
 326 187 326 187 332.5 193 c 128,-1,232
 339 199 339 199 343 209 c 1,233,234
 348 209 348 209 350.5 211.5 c 128,-1,235
 353 214 353 214 357 216 c 1,236,237
 361 226 361 226 371 231 c 1,238,239
 371 236 371 236 373 237.5 c 128,-1,240
 375 239 375 239 374 244 c 1,241,242
 382 249 382 249 387 257.5 c 128,-1,243
 392 266 392 266 400 271 c 1,244,245
 401 281 401 281 406.5 287.5 c 128,-1,246
 412 294 412 294 410 302 c 1,247,248
 418 305 418 305 422 309 c 1,249,250
 420 315 420 315 424 319 c 0,251,252
 437 332 437 332 437 365 c 1,253,254
 434 380 434 380 435 386.5 c 128,-1,255
 436 393 436 393 432 397 c 1,256,257
 424 399 424 399 421 395 c 128,-1,258
 418 391 418 391 414 388 c 1,259,260
 402.8 390.8 402.8 390.8 399.9 387.4 c 128,-1,261
 397 384 397 384 392.5 382.5 c 128,-1,262
 388 381 388 381 384 379 c 1,263,264
 382 373 382 373 380 366.5 c 128,-1,265
 378 360 378 360 374 355 c 1,266,267
 372 349 372 349 377.5 348 c 128,-1,268
 383 347 383 347 382 341.5 c 128,-1,269
 381 336 381 336 377 336 c 128,-1,270
 373 336 373 336 369 334 c 1,271,272
 370 328 370 328 366.5 326.5 c 128,-1,273
 363 325 363 325 361 322 c 1,274,275
 355 323 355 323 352 320.5 c 128,-1,276
 349 318 349 318 344 319 c 1,277,278
 335 331 335 331 332.5 336 c 128,-1,279
 330 341 330 341 331.5 348 c 128,-1,280
 333 355 333 355 336 357.5 c 128,-1,281
 339 360 339 360 343 364 c 1,282,283
 349 378 349 378 357 392 c 1,284,285
 366.6 404 366.6 404 375 418 c 1,286,287
 380 420 380 420 388 426 c 1,288,289
 398 429 398 429 399.5 431 c 128,-1,290
 401 433 401 433 402.5 433.5 c 128,-1,291
 404 434 404 434 408.5 433 c 128,-1,292
 413 432 413 432 419.5 434 c 128,-1,293
 426 436 426 436 427.5 435 c 128,-1,294
 429 434 429 434 436.5 436 c 0,295,296
 449 439.333333333 449 439.333333333 474 431 c 1,297,298
 502.6 409 502.6 409 511 367 c 0,299,300
 513 353 513 353 508.5 337.5 c 128,-1,301
 504 322 504 322 505 306 c 1,302,303
 501 302 501 302 497.5 298 c 128,-1,304
 494 294 494 294 487 292 c 1,305,306
 485 287 485 287 483 281.5 c 128,-1,307
 481 276 481 276 477 268 c 2,308,-1
 470 254 l 2,309,310
 466 248 466 248 460.5 243 c 128,-1,311
 455 238 455 238 454 230 c 1,312,313
 449 225 449 225 443.5 222 c 0,314,315
 433.448275862 216.517241379 433.448275862 216.517241379 431.724137931 208.75862069 c 0,316,317
 428.25 193.125 428.25 193.125 420 189 c 1,318,319
 414 183 414 183 412.5 183.5 c 128,-1,320
 411 184 411 184 406 179 c 128,-1,321
 401 174 401 174 401.5 173 c 128,-1,322
 402 172 402 172 397.5 168 c 128,-1,323
 393 164 393 164 393 163.5 c 128,-1,324
 393 163 393 163 392 163 c 0,325,326
 388 161 388 161 387.5 158.5 c 128,-1,327
 387 156 387 156 384.5 154 c 128,-1,328
 382 152 382 152 378.5 150.5 c 128,-1,329
 375 149 375 149 373 144 c 1,330,331
 365 142 365 142 362.5 135.5 c 128,-1,332
 360 129 360 129 364 121 c 1,333,334
 371.5 115 371.5 115 383.25 111.5 c 128,-1,335
 395 108 395 108 402.5 105.5 c 128,-1,336
 410 103 410 103 415 102 c 128,-1,337
 420 101 420 101 423 102.5 c 128,-1,338
 426 104 426 104 429.5 104 c 128,-1,339
 433 104 433 104 439 101.5 c 128,-1,340
 445 99 445 99 449.5 98 c 128,-1,341
 454 97 454 97 457 97.5 c 128,-1,342
 460 98 460 98 465 98 c 1,343,344
 474.043478261 82.1739130435 474.043478261 82.1739130435 470 66 c 1,345,346
 465 63 465 63 459.5 64 c 128,-1,347
 454 65 454 65 449 65 c 1,348,-1
 437 62 l 1,349,350
 428 66 428 66 426.5 64.5 c 128,-1,351
 425 63 425 63 419.5 64.5 c 128,-1,352
 414 66 414 66 403 67.5 c 128,-1,353
 392 69 392 69 386.5 70.5 c 128,-1,354
 381 72 381 72 378 74 c 128,-1,355
 375 76 375 76 371 77 c 1,356,-1
 356 75 l 2,357,358
 346 73 346 73 341 73 c 128,-1,359
 336 73 336 73 332 75 c 128,-1,360
 328 77 328 77 321 74.5 c 128,-1,361
 314 72 314 72 309.5 67 c 128,-1,362
 305 62 305 62 298 62.5 c 128,-1,363
 291 63 291 63 287 69 c 128,-1,364
 283 75 283 75 278 79 c 1,365,-1
 280 97 l 1,221,-1
EndSplineSet
EndChar

StartChar: onequarter
Encoding: 188 188 14
Width: 520
Flags: HW
LayerCount: 2
Fore
SplineSet
163 496 m 1,0,1
 156 475 156 475 156 464 c 2,2,-1
 156 445 l 1,3,4
 154 430 154 430 153 406 c 128,-1,5
 152 382 152 382 148.5 371 c 128,-1,6
 145 360 145 360 135.5 349.5 c 128,-1,7
 126 339 126 339 119 337.5 c 128,-1,8
 112 336 112 336 105 340 c 128,-1,9
 98 344 98 344 91 342 c 1,10,11
 87 353 87 353 82 359.5 c 128,-1,12
 77 366 77 366 77 372 c 2,13,-1
 77 383.5 l 2,14,15
 77 389 77 389 78 394 c 2,16,-1
 85 466 l 1,17,-1
 85 480.5 l 2,18,19
 85 488 85 488 81 494 c 1,20,21
 84 499 84 499 83 503.5 c 128,-1,22
 82 508 82 508 81 513 c 1,23,24
 69.1538461538 510.846153846 69.1538461538 510.846153846 47 497 c 1,25,26
 26.0566037736 499.094339623 26.0566037736 499.094339623 23.0283018868 494.047169811 c 128,-1,27
 20 489 20 489 14 489 c 128,-1,28
 8 489 8 489 4.5 491 c 128,-1,29
 1 493 1 493 -3 495 c 1,30,31
 -11 503 -11 503 -15.5 505 c 128,-1,32
 -20 507 -20 507 -21.5 509.5 c 128,-1,33
 -23 512 -23 512 -21.5 515.5 c 128,-1,34
 -20 519 -20 519 -22 524 c 1,35,36
 -4 531.5 -4 531.5 -1 530 c 2,37,-1
 17 525 l 1,38,39
 37 525 37 525 49 537 c 1,40,41
 57.0769230769 541.846153846 57.0769230769 541.846153846 66 553 c 1,42,43
 77 555 77 555 84 562.5 c 128,-1,44
 91 570 91 570 99 577 c 1,45,46
 97 581 97 581 99 584 c 128,-1,47
 101 587 101 587 102.5 590.5 c 128,-1,48
 104 594 104 594 104 598.5 c 128,-1,49
 104 603 104 603 106 606 c 258,50,-1
 113 616.5 l 2,51,52
 118 624 118 624 121 627 c 1,53,54
 130 629 130 629 136.5 632.5 c 128,-1,55
 143 636 143 636 148 634 c 1,56,57
 159 626 159 626 159 624 c 128,-1,58
 159 622 159 622 162.5 615 c 0,59,60
 170.473684211 599.052631579 170.473684211 599.052631579 169 574 c 1,61,62
 170 566 170 566 169 565 c 0,63,64
 166 562 166 562 166 543.5 c 1,65,-1
 163 516.5 l 2,66,67
 163 513 163 513 162 508 c 1,68,-1
 163 496 l 1,0,1
191 206 m 1,69,70
 193.913043478 182.695652174 193.913043478 182.695652174 172 169 c 1,71,72
 172 161 172 161 168 158.5 c 128,-1,73
 164 156 164 156 161 151 c 1,74,75
 161 138 161 138 154.5 133.5 c 128,-1,76
 148 129 148 129 148 116 c 1,77,78
 143 114 143 114 139.5 107 c 128,-1,79
 136 100 136 100 130.5 95 c 0,80,81
 114.455172414 80.4137931034 114.455172414 80.4137931034 99 89 c 1,82,83
 95.3333333333 89 95.3333333333 89 91.6666666667 103 c 128,-1,84
 88 117 88 117 92.5 123.5 c 128,-1,85
 97 130 97 130 103.5 141 c 128,-1,86
 110 152 110 152 113 160 c 128,-1,87
 116 168 116 168 121.5 175 c 128,-1,88
 127 182 127 182 127.5 186 c 128,-1,89
 128 190 128 190 132 197 c 128,-1,90
 136 204 136 204 140 208 c 128,-1,91
 144 212 144 212 145.5 217.5 c 128,-1,92
 147 223 147 223 149.5 226.5 c 128,-1,93
 152 230 152 230 155.5 232.5 c 128,-1,94
 159 235 159 235 162.5 239 c 128,-1,95
 166 243 166 243 169.5 249 c 128,-1,96
 173 255 173 255 178 262 c 1,97,98
 182 271 182 271 183.5 271 c 128,-1,99
 185 271 185 271 190 281 c 128,-1,100
 195 291 195 291 203.5 304 c 128,-1,101
 212 317 212 317 216 331 c 1,102,103
 221 333 221 333 222.5 337 c 128,-1,104
 224 341 224 341 226.5 345 c 128,-1,105
 229 349 229 349 231 351.5 c 128,-1,106
 233 354 233 354 235.5 359.5 c 128,-1,107
 238 365 238 365 239 369.5 c 128,-1,108
 240 374 240 374 245.5 382.5 c 128,-1,109
 251 391 251 391 253 396 c 128,-1,110
 255 401 255 401 260 403 c 1,111,112
 259 411 259 411 262 413 c 128,-1,113
 265 415 265 415 264 423 c 1,114,115
 273 430 273 430 272 434.5 c 128,-1,116
 271 439 271 439 274 439 c 1,117,118
 276 445 276 445 281 448.5 c 128,-1,119
 286 452 286 452 288 455.5 c 128,-1,120
 290 459 290 459 290.5 462 c 128,-1,121
 291 465 291 465 293 469 c 128,-1,122
 295 473 295 473 298.5 479 c 128,-1,123
 302 485 302 485 303 494 c 1,124,125
 313.56 503.24 313.56 503.24 316.78 516.12 c 128,-1,126
 320 529 320 529 325 536 c 256,127,128
 331.666666667 545.333333333 331.666666667 545.333333333 337.333333333 554.666666667 c 128,-1,129
 343 564 343 564 343.5 568 c 0,130,131
 344.924528302 579.396226415 344.924528302 579.396226415 357 596 c 1,132,133
 361 604 361 604 364 608 c 128,-1,134
 367 612 367 612 369 616 c 128,-1,135
 371 620 371 620 372 622.5 c 128,-1,136
 373 625 373 625 375 628.5 c 128,-1,137
 377 632 377 632 379 637.5 c 128,-1,138
 381 643 381 643 386 649 c 0,139,140
 400.468085106 666.361702128 400.468085106 666.361702128 409.234042553 664.680851064 c 0,141,142
 427.750959488 661.130277186 427.750959488 661.130277186 423 635 c 256,143,144
 421 624 421 624 420.5 624.5 c 2,145,-1
 421 621 l 2,146,147
 421 619 421 619 415 607 c 1,148,149
 410.259259259 585.666666667 410.259259259 585.666666667 400.62962963 572.333333333 c 128,-1,150
 391 559 391 559 387 547 c 1,151,152
 379 538 379 538 375.5 534.5 c 128,-1,153
 372 531 372 531 370.5 524 c 128,-1,154
 369 517 369 517 367.5 515 c 128,-1,155
 366 513 366 513 364 509 c 128,-1,156
 362 505 362 505 360.5 499 c 128,-1,157
 359 493 359 493 354 483.5 c 0,158,159
 322.513513514 423.675675676 322.513513514 423.675675676 318.256756757 420.837837838 c 128,-1,160
 314 418 314 418 311.5 411.5 c 128,-1,161
 309 405 309 405 307 397 c 128,-1,162
 305 389 305 389 297 384 c 1,163,-1
 297 373 l 1,164,165
 295 370 295 370 292 368 c 128,-1,166
 289 366 289 366 287.5 361 c 128,-1,167
 286 356 286 356 285 354.5 c 128,-1,168
 284 353 284 353 278 341.5 c 128,-1,169
 272 330 272 330 261 310 c 128,-1,170
 250 290 250 290 240.5 274 c 128,-1,171
 231 258 231 258 228.5 254.5 c 128,-1,172
 226 251 226 251 222 242.5 c 128,-1,173
 218 234 218 234 217 234.5 c 128,-1,174
 216 235 216 235 214 233 c 0,175,176
 210 226 210 226 208.5 225 c 128,-1,177
 207 224 207 224 205 222 c 1,178,179
 205 219 205 219 203.5 217.5 c 128,-1,180
 202 216 202 216 203 211 c 1,181,182
 199 211 199 211 197 209 c 128,-1,183
 195 207 195 207 191 206 c 1,69,70
425 215 m 2,184,-1
 423 177 l 258,185,186
 423 161.5 423 161.5 428 154 c 1,187,188
 440 145 440 145 443.5 148 c 128,-1,189
 447 151 447 151 451.5 152.5 c 128,-1,190
 456 154 456 154 460 156 c 128,-1,191
 464 158 464 158 468 156 c 0,192,193
 476 154 476 154 478 145 c 128,-1,194
 480 136 480 136 482 127 c 1,195,196
 480 123 480 123 476.5 122.5 c 128,-1,197
 473 122 473 122 469.5 120 c 0,198,199
 458.102564103 113.487179487 458.102564103 113.487179487 452.051282051 114.243589744 c 128,-1,200
 446 115 446 115 442 115 c 1,201,202
 428 110 428 110 425 111 c 128,-1,203
 422 112 422 112 419 109 c 1,204,205
 410.333333333 70 410.333333333 70 408.166666667 63.5 c 128,-1,206
 406 57 406 57 407.5 54.5 c 128,-1,207
 409 52 409 52 409 49 c 256,208,209
 409 46 409 46 407.5 44 c 128,-1,210
 406 42 406 42 404.5 38.5 c 128,-1,211
 403 35 403 35 405 29.5 c 128,-1,212
 407 24 407 24 402 19 c 0,213,214
 390 8 390 8 384 2 c 128,-1,215
 378 -4 378 -4 371.5 -6.5 c 0,216,217
 362.974025974 -9.77922077922 362.974025974 -9.77922077922 347 3 c 1,218,219
 346 15 346 15 344.5 17 c 128,-1,220
 343 19 343 19 343 29 c 128,-1,221
 343 39 343 39 348.5 56.5 c 128,-1,222
 354 74 354 74 347 91 c 1,223,224
 343 94 343 94 336 94 c 1,225,226
 330 96 330 96 324 96 c 1,227,-1
 305 91 l 1,228,229
 297 90 297 90 288 92.5 c 128,-1,230
 279 95 279 95 271 89 c 1,231,232
 263 91 263 91 257.5 91 c 2,233,-1
 241 91 l 1,234,235
 237 93 237 93 234 96 c 128,-1,236
 231 99 231 99 226 100 c 1,237,238
 223.391304348 114.347826087 223.391304348 114.347826087 236 132 c 1,239,240
 243 146 243 146 248.5 150.5 c 128,-1,241
 254 155 254 155 256.5 159.5 c 128,-1,242
 259 164 259 164 260.5 168.5 c 128,-1,243
 262 173 262 173 264 176.5 c 128,-1,244
 266 180 266 180 270 183.5 c 0,245,246
 277.525423729 190.084745763 277.525423729 190.084745763 279.762711864 197.542372881 c 128,-1,247
 282 205 282 205 285 211.5 c 128,-1,248
 288 218 288 218 292.5 226.5 c 128,-1,249
 297 235 297 235 298 246 c 1,250,251
 306 253 306 253 310 263.5 c 128,-1,252
 314 274 314 274 322 282 c 1,253,-1
 322 293 l 1,254,255
 328 295 328 295 330.5 299.5 c 128,-1,256
 333 304 333 304 335.5 308 c 0,257,258
 340.777777778 316.444444444 340.777777778 316.444444444 343 322 c 1,259,260
 351 333 351 333 353.5 340 c 128,-1,261
 356 347 356 347 364 350 c 1,262,-1
 367 367 l 1,263,264
 375.465116279 370.627906977 375.465116279 370.627906977 383.73255814 379.813953488 c 0,265,266
 397.4 395 397.4 395 414 395 c 1,267,268
 418 386 418 386 420 383.5 c 128,-1,269
 422 381 422 381 423 376 c 256,270,271
 424 371 424 371 427.5 368 c 128,-1,272
 431 365 431 365 433 359 c 1,273,274
 429 346 429 346 437 336 c 1,275,276
 425.8 285.6 425.8 285.6 433 255 c 0,277,278
 435 249 435 249 431.5 247.5 c 0,279,280
 423.916666667 244.25 423.916666667 244.25 430 226 c 1,281,282
 425 221 425 221 425 215 c 2,184,-1
364 188 m 2,283,-1
 367 207 l 1,284,285
 365 224 365 224 365.5 230.5 c 128,-1,286
 366 237 366 237 361 241 c 1,287,-1
 356 243 l 1,288,289
 354 235 354 235 350.5 233 c 128,-1,290
 347 231 347 231 345 226.5 c 128,-1,291
 343 222 343 222 344 219.5 c 128,-1,292
 345 217 345 217 340 210 c 128,-1,293
 335 203 335 203 334 198.5 c 128,-1,294
 333 194 333 194 328 191 c 1,295,296
 325 178 325 178 319 168.5 c 128,-1,297
 313 159 313 159 309 146 c 1,298,299
 292.870967742 139.548387097 292.870967742 139.548387097 298 131 c 1,300,301
 304 127 304 127 311 127 c 1,302,-1
 352 134 l 1,303,304
 354 139 354 139 358 146.5 c 128,-1,305
 362 154 362 154 363.5 160.5 c 128,-1,306
 365 167 365 167 363.5 174 c 128,-1,307
 362 181 362 181 364 188 c 2,283,-1
EndSplineSet
EndChar

StartChar: onesuperior
Encoding: 185 185 15
Width: 222
Flags: HW
LayerCount: 2
Fore
SplineSet
76 485 m 1,0,-1
 79 497 l 1,1,2
 77 505 77 505 78.5 509.5 c 128,-1,3
 80 514 80 514 76 518 c 1,4,5
 59.0285714286 519.542857143 59.0285714286 519.542857143 50 506 c 1,6,7
 47 505 47 505 43 505 c 128,-1,8
 39 505 39 505 34 502.5 c 128,-1,9
 29 500 29 500 26 497 c 128,-1,10
 23 494 23 494 15.5 495 c 128,-1,11
 8 496 8 496 4.5 501 c 128,-1,12
 1 506 1 506 -3.5 513 c 128,-1,13
 -8 520 -8 520 -5.5 532 c 128,-1,14
 -3 544 -3 544 11 544 c 0,15,16
 17.6666666667 544 17.6666666667 544 19.3333333333 541.5 c 0,17,18
 22.2307692308 537.153846154 22.2307692308 537.153846154 29.1153846154 536.076923077 c 128,-1,19
 36 535 36 535 41.5 540.5 c 128,-1,20
 47 546 47 546 53.5 550 c 128,-1,21
 60 554 60 554 60 555.5 c 128,-1,22
 60 557 60 557 64 558 c 128,-1,23
 68 559 68 559 69.5 562 c 128,-1,24
 71 565 71 565 76 565 c 1,25,26
 81 575 81 575 80 579.5 c 128,-1,27
 79 584 79 584 82.5 593 c 0,28,29
 88.8823529412 609.411764706 88.8823529412 609.411764706 93 630 c 1,30,31
 98 635 98 635 109 638.5 c 128,-1,32
 120 642 120 642 131 637 c 1,33,34
 135 631 135 631 140 620 c 128,-1,35
 145 609 145 609 147.5 600 c 128,-1,36
 150 591 150 591 148.5 579 c 128,-1,37
 147 567 147 567 153 557 c 1,38,39
 149 555 149 555 150 549.5 c 128,-1,40
 151 544 151 544 148 542 c 1,41,42
 152 534 152 534 152 520.5 c 128,-1,43
 152 507 152 507 146 483 c 1,44,45
 146 473 146 473 148.5 465 c 128,-1,46
 151 457 151 457 148 445 c 2,47,-1
 145 434 l 2,48,49
 144 429 144 429 145.5 423.5 c 128,-1,50
 147 418 147 418 146 413 c 2,51,-1
 143 397 l 1,52,-1
 145 385 l 1,53,-1
 143 372 l 1,54,-1
 143 353.5 l 2,55,56
 143 329 143 329 139.5 325.5 c 128,-1,57
 136 322 136 322 138 317 c 1,58,59
 135 315 135 315 133 312 c 128,-1,60
 131 309 131 309 126 311 c 1,61,62
 126 306 126 306 122.5 304.5 c 128,-1,63
 119 303 119 303 117 301 c 1,64,65
 106 304 106 304 97.5 302 c 128,-1,66
 89 300 89 300 83.5 302 c 128,-1,67
 78 304 78 304 73 312.5 c 128,-1,68
 68 321 68 321 68 326 c 128,-1,69
 68 331 68 331 69 342 c 1,70,-1
 67 356 l 1,71,72
 69 368 69 368 68 371 c 128,-1,73
 67 374 67 374 67 376 c 2,74,-1
 70 395 l 1,75,-1
 69 411 l 2,76,77
 67.2142857143 425.285714286 67.2142857143 425.285714286 70.1071428571 442.142857143 c 128,-1,78
 73 459 73 459 75 463.5 c 128,-1,79
 77 468 77 468 77 473 c 2,80,-1
 76 485 l 1,0,-1
EndSplineSet
EndChar

StartChar: threequarters
Encoding: 190 190 16
Width: 610
Flags: HW
LayerCount: 2
Fore
SplineSet
137 70 m 1,0,1
 135 77 135 77 133 81 c 128,-1,2
 131 85 131 85 132.5 92 c 128,-1,3
 134 99 134 99 140 106.5 c 128,-1,4
 146 114 146 114 146 123 c 1,5,6
 160 133 160 133 171 147 c 1,7,8
 176 159 176 159 177.5 160.5 c 128,-1,9
 179 162 179 162 180.5 165 c 128,-1,10
 182 168 182 168 184 172.5 c 128,-1,11
 186 177 186 177 191.5 185 c 128,-1,12
 197 193 197 193 199 196.5 c 128,-1,13
 201 200 201 200 203.5 204.5 c 128,-1,14
 206 209 206 209 210.5 215 c 128,-1,15
 215 221 215 221 217 225.5 c 128,-1,16
 219 230 219 230 220 235 c 128,-1,17
 221 240 221 240 223 245 c 1,18,19
 230 253 230 253 231 257 c 128,-1,20
 232 261 232 261 234.5 265.5 c 0,21,22
 238.666666667 273 238.666666667 273 247.333333333 285.5 c 128,-1,23
 256 298 256 298 262.5 310.5 c 128,-1,24
 269 323 269 323 278 336 c 1,25,26
 283 350 283 350 285.5 358 c 128,-1,27
 288 366 288 366 293 371 c 1,28,29
 291 380 291 380 295 385 c 128,-1,30
 299 390 299 390 303 396 c 1,31,32
 308.5 411.125 308.5 411.125 315.75 420.0625 c 128,-1,33
 323 429 323 429 327.5 437.5 c 128,-1,34
 332 446 332 446 337.5 453.5 c 128,-1,35
 343 461 343 461 343 464.5 c 0,36,37
 343 471 343 471 349 475.5 c 0,38,39
 362.733333333 485.8 362.733333333 485.8 367 505 c 1,40,41
 371 507 371 507 373 511 c 128,-1,42
 375 515 375 515 379 520.5 c 128,-1,43
 383 526 383 526 387.5 537.5 c 128,-1,44
 392 549 392 549 396.5 558.5 c 128,-1,45
 401 568 401 568 406.5 576.5 c 128,-1,46
 412 585 412 585 415.5 590.5 c 0,47,48
 423.846153846 603.615384615 423.846153846 603.615384615 425.923076923 607.807692308 c 128,-1,49
 428 612 428 612 430 615 c 128,-1,50
 432 618 432 618 435 623.5 c 128,-1,51
 438 629 438 629 441 632 c 128,-1,52
 444 635 444 635 448 641.5 c 128,-1,53
 452 648 452 648 454 652.5 c 128,-1,54
 456 657 456 657 461.5 658.5 c 128,-1,55
 467 660 467 660 470.5 659.5 c 128,-1,56
 474 659 474 659 477 659 c 1,57,58
 482.647058824 666.529411765 482.647058824 666.529411765 487.823529412 658.764705882 c 0,59,60
 501.272727273 638.590909091 501.272727273 638.590909091 494 629.5 c 0,61,62
 492 627 492 627 489 624 c 1,63,64
 479.052631579 591.671052632 479.052631579 591.671052632 468 582 c 1,65,66
 465.513513514 568.324324324 465.513513514 568.324324324 456.756756757 552.662162162 c 128,-1,67
 448 537 448 537 445.5 530 c 128,-1,68
 443 523 443 523 440 516 c 1,69,70
 434 508 434 508 434 507 c 128,-1,71
 434 506 434 506 431 503 c 0,72,73
 424 496 424 496 418.5 487.5 c 0,74,75
 409.333333333 473.333333333 409.333333333 473.333333333 400 464 c 1,76,77
 396 447 396 447 388.5 436.5 c 128,-1,78
 381 426 381 426 375 413 c 1,79,80
 375 408 375 408 371 406.5 c 128,-1,81
 367 405 367 405 364 401 c 1,82,83
 364 397 364 397 364 393 c 128,-1,84
 364 389 364 389 362 385 c 1,85,86
 354 380 354 380 352.5 369.5 c 128,-1,87
 351 359 351 359 344 354 c 1,88,89
 343 350 343 350 342 346.5 c 128,-1,90
 341 343 341 343 340 339 c 1,91,92
 337 337 337 337 335.5 334.5 c 128,-1,93
 334 332 334 332 332 329.5 c 0,94,95
 323 318.25 323 318.25 323 311.125 c 128,-1,96
 323 304 323 304 321 299.5 c 128,-1,97
 319 295 319 295 315.5 293.5 c 128,-1,98
 312 292 312 292 314 287 c 1,99,100
 305 282 305 282 299.5 272.5 c 128,-1,101
 294 263 294 263 289 255.5 c 128,-1,102
 284 248 284 248 280 243.5 c 128,-1,103
 276 239 276 239 274 235 c 128,-1,104
 272 231 272 231 272 226 c 128,-1,105
 272 221 272 221 269 215 c 128,-1,106
 266 209 266 209 260.5 204.5 c 128,-1,107
 255 200 255 200 251 191 c 1,108,-1
 245 181 l 2,109,110
 237 169 237 169 233 163.5 c 128,-1,111
 229 158 229 158 227 148 c 1,112,113
 215 142 215 142 213 137 c 128,-1,114
 211 132 211 132 205 130 c 1,115,116
 204 116 204 116 195.5 106.5 c 128,-1,117
 187 97 187 97 183 83 c 1,118,119
 178 81 178 81 176.5 77 c 128,-1,120
 175 73 175 73 169 71 c 128,-1,121
 163 69 163 69 156 69.5 c 128,-1,122
 149 70 149 70 137 70 c 1,0,1
134 615 m 2,123,-1
 145 617 l 1,124,125
 162 619 162 619 177 618.5 c 128,-1,126
 192 618 192 618 202 620.5 c 128,-1,127
 212 623 212 623 217.5 624.5 c 128,-1,128
 223 626 223 626 227.5 625 c 128,-1,129
 232 624 232 624 238.5 616.5 c 128,-1,130
 245 609 245 609 243.5 602 c 128,-1,131
 242 595 242 595 237.5 595 c 128,-1,132
 233 595 233 595 229 590 c 1,133,134
 214 584 214 584 210.5 580.5 c 128,-1,135
 207 577 207 577 199 579 c 1,136,137
 195 573 195 573 189 569.5 c 128,-1,138
 183 566 183 566 182 558 c 1,139,140
 175 557 175 557 172 552 c 128,-1,141
 169 547 169 547 163 545 c 1,142,143
 172 533 172 533 184.5 527.5 c 128,-1,144
 197 522 197 522 198.5 519 c 128,-1,145
 200 516 200 516 203 513 c 1,146,147
 210 510 210 510 210.5 507.5 c 128,-1,148
 211 505 211 505 213 503 c 256,149,150
 216.5 499.5 216.5 499.5 219.25 491.75 c 0,151,152
 223.157894737 480.736842105 223.157894737 480.736842105 229.078947368 468.868421053 c 128,-1,153
 235 457 235 457 238 451.5 c 128,-1,154
 241 446 241 446 242 443 c 1,155,156
 240 432 240 432 244 424 c 1,157,158
 247.585365854 398.902439024 247.585365854 398.902439024 238.5 388 c 0,159,160
 230 377.8 230 377.8 230 366 c 1,161,162
 223 359 223 359 223 350 c 1,163,164
 215.142857143 346.857142857 215.142857143 346.857142857 210 334 c 1,165,166
 205 332 205 332 201.5 328.5 c 2,167,-1
 194 321 l 2,168,169
 186 313 186 313 179 307 c 128,-1,170
 172 301 172 301 158 298 c 1,171,172
 149 291 149 291 143 278 c 1,173,174
 132 276 132 276 122.5 271.5 c 128,-1,175
 113 267 113 267 102 272 c 1,176,-1
 77 261 l 1,177,178
 72.3636363636 267.181818182 72.3636363636 267.181818182 64.6818181818 272.090909091 c 128,-1,179
 57 277 57 277 52.5 280 c 128,-1,180
 48 283 48 283 43 284 c 1,181,182
 43 288 43 288 40 290.5 c 128,-1,183
 37 293 37 293 33.5 298 c 128,-1,184
 30 303 30 303 26 304.5 c 128,-1,185
 22 306 22 306 18 309 c 1,186,187
 11 322 11 322 11 330 c 0,188,189
 7.90909090909 354.727272727 7.90909090909 354.727272727 10.4545454545 363.863636364 c 128,-1,190
 13 373 13 373 20 378.5 c 128,-1,191
 27 384 27 384 29 391 c 1,192,193
 36 392 36 392 40 395.5 c 128,-1,194
 44 399 44 399 52 398 c 1,195,196
 55 393 55 393 57 387.5 c 128,-1,197
 59 382 59 382 62 378 c 1,198,199
 63.4615384615 370.692307692 63.4615384615 370.692307692 59 364 c 1,200,201
 69 349 69 349 79 343 c 1,202,203
 84 332 84 332 89 321 c 128,-1,204
 94 310 94 310 102 302 c 1,205,206
 116 307 116 307 122.5 318.5 c 128,-1,207
 129 330 129 330 138 339 c 1,208,209
 140 355 140 355 146.5 359 c 128,-1,210
 153 363 153 363 156 371 c 1,211,212
 156 379 156 379 158 380 c 0,213,214
 164.823529412 383.411764706 164.823529412 383.411764706 161 414 c 1,215,216
 161 447.2 161 447.2 153 460 c 1,217,218
 153 473 153 473 151 478 c 1,219,220
 145 484 145 484 143.5 487 c 128,-1,221
 142 490 142 490 139 492 c 1,222,-1
 127 494 l 1,223,224
 116 488 116 488 113 489 c 128,-1,225
 110 490 110 490 104.5 488.5 c 128,-1,226
 99 487 99 487 91 483.5 c 128,-1,227
 83 480 83 480 76 482 c 1,228,229
 67 490 67 490 63 491.5 c 128,-1,230
 59 493 59 493 57 497 c 1,231,232
 55.3504273504 513.495726496 55.3504273504 513.495726496 69.5 522.5 c 0,233,234
 75 526 75 526 81 529.5 c 128,-1,235
 87 533 87 533 90.5 536.5 c 128,-1,236
 94 540 94 540 95 544.5 c 128,-1,237
 96 549 96 549 98 551 c 0,238,239
 102 553 102 553 107.5 554 c 128,-1,240
 113 555 113 555 115 560 c 1,241,242
 118 563 118 563 123.5 563.5 c 128,-1,243
 129 564 129 564 127 572 c 1,244,245
 115 581 115 581 110 582 c 128,-1,246
 105 583 105 583 95 582 c 1,247,248
 88 590 88 590 83.5 590 c 128,-1,249
 79 590 79 590 77 593 c 1,250,251
 74 593 74 593 59 590 c 1,252,253
 48.5 593.5 48.5 593.5 40 602 c 1,254,-1
 40 617 l 1,255,256
 69.375 631.6875 69.375 631.6875 81 622 c 1,257,258
 85 625 85 625 89 622.5 c 128,-1,259
 93 620 93 620 98 619 c 128,-1,260
 103 618 103 618 108 619.5 c 128,-1,261
 113 621 113 621 118 619.5 c 128,-1,262
 123 618 123 618 126 616.5 c 128,-1,263
 129 615 129 615 134 615 c 2,123,-1
369 167 m 1,264,-1
 349 164 l 1,265,266
 335 169 335 169 332 168.5 c 128,-1,267
 329 168 329 168 326 170 c 1,268,269
 320.666666667 186 320.666666667 186 324.333333333 200.5 c 128,-1,270
 328 215 328 215 334 225 c 256,271,272
 337 230 337 230 340 235.5 c 128,-1,273
 343 241 343 241 346 245.5 c 128,-1,274
 349 250 349 250 351.5 253 c 128,-1,275
 354 256 354 256 358 264 c 128,-1,276
 362 272 362 272 366 277.5 c 0,277,278
 376.222222222 291.555555556 376.222222222 291.555555556 381.111111111 299.277777778 c 128,-1,279
 386 307 386 307 388.5 310.5 c 128,-1,280
 391 314 391 314 393.5 318 c 128,-1,281
 396 322 396 322 399 326 c 128,-1,282
 402 330 402 330 404 333.5 c 128,-1,283
 406 337 406 337 406.5 340 c 128,-1,284
 407 343 407 343 409 346.5 c 128,-1,285
 411 350 411 350 413.5 352.5 c 128,-1,286
 416 355 416 355 418 359 c 256,287,288
 425.285714286 373.571428571 425.285714286 373.571428571 431 377 c 1,289,290
 430 384 430 384 433 386.5 c 128,-1,291
 436 389 436 389 435 394 c 1,292,293
 443 399 443 399 449 409 c 1,294,295
 455 414 455 414 458 416.5 c 128,-1,296
 461 419 461 419 467 424.5 c 0,297,298
 486.078651685 441.988764045 486.078651685 441.988764045 507 439 c 1,299,300
 509 437 509 437 511.5 436 c 128,-1,301
 514 435 514 435 515.5 431 c 128,-1,302
 517 427 517 427 520.5 423 c 128,-1,303
 524 419 524 419 525 410 c 128,-1,304
 526 401 526 401 530 392 c 128,-1,305
 534 383 534 383 532.5 377 c 128,-1,306
 531 371 531 371 537 366 c 1,307,308
 533 361 533 361 535 357 c 128,-1,309
 537 353 537 353 536 349 c 2,310,-1
 531 335 l 1,311,312
 531 331 531 331 532.5 326.5 c 128,-1,313
 534 322 534 322 533 317 c 128,-1,314
 532 312 532 312 530.5 307.5 c 128,-1,315
 529 303 529 303 527 290.5 c 128,-1,316
 525 278 525 278 524.5 258 c 128,-1,317
 524 238 524 238 521 217 c 1,318,319
 534 205 534 205 538 205 c 128,-1,320
 542 205 542 205 551.5 206 c 128,-1,321
 561 207 561 207 562 206 c 128,-1,322
 563 205 563 205 566.5 205 c 128,-1,323
 570 205 570 205 574 207 c 128,-1,324
 578 209 578 209 581 208 c 0,325,326
 598 202.333333333 598 202.333333333 598 191.5 c 0,327,328
 598 186 598 186 600 178 c 1,329,330
 592 172 592 172 583.5 173 c 128,-1,331
 575 174 575 174 559 171 c 128,-1,332
 543 168 543 168 533.5 168.5 c 128,-1,333
 524 169 524 169 520.5 163 c 128,-1,334
 517 157 517 157 515.5 150.5 c 128,-1,335
 514 144 514 144 512 137 c 128,-1,336
 510 130 510 130 508.5 120.5 c 128,-1,337
 507 111 507 111 502 103 c 1,338,339
 502 98 502 98 502 93 c 128,-1,340
 502 88 502 88 500 84 c 1,341,342
 500 79 500 79 496 78.5 c 128,-1,343
 492 78 492 78 488 76 c 1,344,345
 486 68 486 68 480.5 64 c 128,-1,346
 475 60 475 60 470 55 c 1,347,348
 462 56 462 56 458 56 c 128,-1,349
 454 56 454 56 449 54 c 1,350,351
 443 59 443 59 435.5 61.5 c 128,-1,352
 428 64 428 64 426 72 c 1,353,354
 428 92 428 92 431 115.5 c 128,-1,355
 434 139 434 139 433 159 c 1,356,357
 417 165 417 165 410 162 c 1,358,359
 398 166 398 166 395 167 c 128,-1,360
 392 168 392 168 390.5 165 c 128,-1,361
 389 162 389 162 384.5 163 c 128,-1,362
 380 164 380 164 377 165 c 128,-1,363
 374 166 374 166 369 167 c 1,264,-1
445 233 m 1,364,365
 443.875 239.75 443.875 239.75 447 246 c 1,366,367
 446 264 446 264 447.5 273.5 c 128,-1,368
 449 283 449 283 447 292 c 1,369,370
 434 285 434 285 428.5 272.5 c 128,-1,371
 423 260 423 260 417 249 c 1,372,373
 411 247 411 247 408.5 240 c 128,-1,374
 406 233 406 233 400 229 c 1,375,376
 397 216 397 216 394 215 c 128,-1,377
 391 214 391 214 392 209 c 0,378,379
 394 202 394 202 401.5 203.5 c 128,-1,380
 409 205 409 205 414 204.5 c 128,-1,381
 419 204 419 204 421.5 202.5 c 128,-1,382
 424 201 424 201 428 202 c 128,-1,383
 432 203 432 203 434.5 206 c 128,-1,384
 437 209 437 209 440 210 c 1,385,386
 438 217 438 217 441 223.5 c 128,-1,387
 444 230 444 230 445 233 c 1,364,365
EndSplineSet
EndChar

StartChar: threesuperior
Encoding: 179 179 17
Width: 284
Flags: HW
LayerCount: 2
Fore
SplineSet
133 615 m 2,0,-1
 144 617 l 1,1,2
 161 619 161 619 176 618.5 c 128,-1,3
 191 618 191 618 201 620.5 c 128,-1,4
 211 623 211 623 216.5 624.5 c 128,-1,5
 222 626 222 626 226.5 625 c 128,-1,6
 231 624 231 624 237.5 616.5 c 128,-1,7
 244 609 244 609 242.5 602 c 128,-1,8
 241 595 241 595 236.5 595 c 128,-1,9
 232 595 232 595 228 590 c 1,10,11
 213 584 213 584 209.5 580.5 c 128,-1,12
 206 577 206 577 198 579 c 1,13,14
 194 573 194 573 188 569.5 c 128,-1,15
 182 566 182 566 181 558 c 1,16,17
 174 557 174 557 171 552 c 128,-1,18
 168 547 168 547 162 545 c 1,19,20
 171 533 171 533 183.5 527.5 c 128,-1,21
 196 522 196 522 197.5 519 c 128,-1,22
 199 516 199 516 202 513 c 1,23,24
 209 510 209 510 209.5 507.5 c 128,-1,25
 210 505 210 505 212 503 c 256,26,27
 215.5 499.5 215.5 499.5 218.25 491.75 c 0,28,29
 222.157894737 480.736842105 222.157894737 480.736842105 228 471 c 1,30,31
 233 457 233 457 236.5 451.5 c 128,-1,32
 240 446 240 446 241 443 c 1,33,34
 239 432 239 432 243 424 c 1,35,36
 246.585365854 398.902439024 246.585365854 398.902439024 237.5 388 c 0,37,38
 229 377.8 229 377.8 229 366 c 1,39,40
 222 359 222 359 222 350 c 1,41,42
 214.142857143 346.857142857 214.142857143 346.857142857 209 334 c 1,43,44
 204 332 204 332 200.5 328.5 c 2,45,-1
 193 321 l 2,46,47
 185 313 185 313 178 307 c 128,-1,48
 171 301 171 301 157 298 c 1,49,50
 148 291 148 291 142 278 c 1,51,52
 131 276 131 276 121.5 271.5 c 128,-1,53
 112 267 112 267 101 272 c 1,54,55
 76 261 l 1,56,57
 71.3636363636 267.181818182 71.3636363636 267.181818182 63.6818181818 272.090909091 c 128,-1,58
 56 277 56 277 51.5 280 c 128,-1,59
 47 283 47 283 42 284 c 1,60,61
 42 288 42 288 39 290.5 c 128,-1,62
 36 293 36 293 32.5 298 c 128,-1,63
 29 303 29 303 25 304.5 c 128,-1,64
 21 306 21 306 17 309 c 1,65,66
 10 322 10 322 10 330 c 0,67,68
 6.90909090909 354.727272727 6.90909090909 354.727272727 9.45454545455 363.863636364 c 128,-1,69
 12 373 12 373 19 378.5 c 128,-1,70
 26 384 26 384 28 391 c 1,71,72
 35 392 35 392 39 395.5 c 128,-1,73
 43 399 43 399 51 398 c 1,74,75
 54 393 54 393 56 387.5 c 128,-1,76
 58 382 58 382 61 378 c 1,77,78
 62.4615384615 370.692307692 62.4615384615 370.692307692 58 364 c 1,79,80
 65 351 65 351 78 343 c 1,81,82
 83 332 83 332 88 321 c 128,-1,83
 93 310 93 310 101 302 c 1,84,85
 115 307 115 307 121.5 318.5 c 128,-1,86
 128 330 128 330 137 339 c 1,87,88
 139 355 139 355 145.5 359 c 128,-1,89
 152 363 152 363 155 371 c 1,90,91
 155 379 155 379 157 380 c 0,92,93
 163.823529412 383.411764706 163.823529412 383.411764706 160 414 c 1,94,95
 160 447.2 160 447.2 152 460 c 1,96,97
 152 473 152 473 150 478 c 1,98,99
 144 484 144 484 142.5 487 c 128,-1,100
 141 490 141 490 138 492 c 1,101,-1
 126 494 l 1,102,103
 115 488 115 488 112 489 c 128,-1,104
 109 490 109 490 103.5 488.5 c 128,-1,105
 98 487 98 487 90 483.5 c 128,-1,106
 82 480 82 480 75 482 c 1,107,108
 66 490 66 490 62 491.5 c 128,-1,109
 58 493 58 493 56 497 c 1,110,111
 54.3504273504 513.495726496 54.3504273504 513.495726496 68.5 522.5 c 0,112,113
 74 526 74 526 80 529.5 c 128,-1,114
 86 533 86 533 89.5 536.5 c 128,-1,115
 93 540 93 540 94 544.5 c 128,-1,116
 95 549 95 549 97 551 c 0,117,118
 101 553 101 553 106.5 554 c 128,-1,119
 112 555 112 555 114 560 c 1,120,121
 117 563 117 563 122.5 563.5 c 128,-1,122
 128 564 128 564 126 572 c 1,123,124
 110 583 110 583 94 582 c 1,125,126
 87 590 87 590 82.5 590 c 128,-1,127
 78 590 78 590 76 593 c 1,128,129
 73 593 73 593 58 590 c 1,130,131
 47.5 593.5 47.5 593.5 39 602 c 1,132,-1
 39 617 l 1,133,134
 68.375 631.6875 68.375 631.6875 80 622 c 1,135,136
 84 625 84 625 88 622.5 c 128,-1,137
 92 620 92 620 97 619 c 128,-1,138
 102 618 102 618 107 619.5 c 128,-1,139
 112 621 112 621 117 619.5 c 128,-1,140
 122 618 122 618 125 616.5 c 128,-1,141
 128 615 128 615 133 615 c 2,0,-1
EndSplineSet
EndChar

StartChar: twosuperior
Encoding: 178 178 18
Width: 263
Flags: HW
LayerCount: 2
Fore
SplineSet
13 310 m 1,0,-1
 10 325 l 1,1,2
 10 346.4 10 346.4 22 356 c 1,3,4
 26 364 26 364 27.5 366 c 128,-1,5
 29 368 29 368 36 378.5 c 128,-1,6
 43 389 43 389 49 390 c 1,7,8
 51 400 51 400 57.5 406 c 128,-1,9
 64 412 64 412 67 422 c 1,10,11
 72 422 72 422 74.5 424.5 c 128,-1,12
 77 427 77 427 81 429 c 1,13,14
 84 439 84 439 92 444 c 1,15,16
 92 449 92 449 94 450.5 c 128,-1,17
 96 452 96 452 95 457 c 1,18,19
 103 462 103 462 107 470.5 c 128,-1,20
 111 479 111 479 119 484 c 1,21,22
 119 494 119 494 123.5 500.5 c 128,-1,23
 128 507 128 507 126 515 c 1,24,25
 134 519 134 519 137 522 c 1,26,27
 135 528 135 528 138 532 c 128,-1,28
 141 536 141 536 143 542.5 c 0,29,30
 147 555.5 147 555.5 147 578 c 1,31,32
 142 593 142 593 142.5 599.5 c 128,-1,33
 143 606 143 606 139 610 c 1,34,35
 131 612 131 612 128.5 608 c 128,-1,36
 126 604 126 604 122 601 c 1,37,38
 111.6 603.6 111.6 603.6 108.8 600.3 c 128,-1,39
 106 597 106 597 101.5 595.5 c 128,-1,40
 97 594 97 594 93 592 c 1,41,42
 91 586 91 586 89.5 579.5 c 128,-1,43
 88 573 88 573 84 568 c 1,44,45
 83 562 83 562 88.5 561 c 128,-1,46
 94 560 94 560 93.5 554.5 c 128,-1,47
 93 549 93 549 89 549 c 128,-1,48
 85 549 85 549 82 547 c 1,49,50
 83 541 83 541 80.5 539.5 c 128,-1,51
 78 538 78 538 76 535 c 1,52,53
 70 536 70 536 66.5 533.5 c 128,-1,54
 63 531 63 531 58 532 c 1,55,56
 47 544 47 544 44 549 c 128,-1,57
 41 554 41 554 42.5 561 c 128,-1,58
 44 568 44 568 46.5 570.5 c 128,-1,59
 49 573 49 573 52 578.5 c 128,-1,60
 55 584 55 584 58 591 c 128,-1,61
 61 598 61 598 67 608.5 c 128,-1,62
 73 619 73 619 80 631 c 1,63,64
 85 633 85 633 93 639 c 1,65,66
 102 642 102 642 103.5 644 c 128,-1,67
 105 646 105 646 106.5 646.5 c 128,-1,68
 108 647 108 647 112.5 646 c 128,-1,69
 117 645 117 645 123 647 c 128,-1,70
 129 649 129 649 131 648 c 128,-1,71
 133 647 133 647 140.5 649 c 0,72,73
 153 652.333333333 153 652.333333333 178 644 c 1,74,75
 207.873239437 622.661971831 207.873239437 622.661971831 221 580 c 1,76,77
 224 566 224 566 221 550.5 c 128,-1,78
 218 535 218 535 220 519 c 1,79,80
 216 515 216 515 213 511 c 128,-1,81
 210 507 210 507 205 505 c 1,82,83
 203 500 203 500 201 494 c 128,-1,84
 199 488 199 488 197 483 c 0,85,86
 189.666666667 464.666666667 189.666666667 464.666666667 182.833333333 457.833333333 c 128,-1,87
 176 451 176 451 175 443 c 1,88,89
 171 438 171 438 166 435 c 128,-1,90
 161 432 161 432 158.5 427.5 c 128,-1,91
 156 423 156 423 156 418.5 c 0,92,93
 156 410.8 156 410.8 145 402 c 1,94,95
 140 396 140 396 138.5 396.5 c 128,-1,96
 137 397 137 397 132.5 392 c 128,-1,97
 128 387 128 387 128.5 386 c 128,-1,98
 129 385 129 385 125 381 c 0,99,100
 120 376 120 376 118 376 c 1,101,102
 112 365 112 365 107.5 363 c 128,-1,103
 103 361 103 361 102 357 c 1,104,105
 85.8125 352.375 85.8125 352.375 95 334 c 1,106,107
 103.625 328.25 103.625 328.25 115.8125 324.625 c 128,-1,108
 128 321 128 321 135 318.5 c 128,-1,109
 142 316 142 316 148 315 c 128,-1,110
 154 314 154 314 156.5 315.5 c 128,-1,111
 159 317 159 317 162.5 317 c 128,-1,112
 166 317 166 317 172 314.5 c 128,-1,113
 178 312 178 312 182.5 311 c 128,-1,114
 187 310 187 310 190.5 310.5 c 128,-1,115
 194 311 194 311 199 311 c 1,116,117
 210.130434783 291.52173913 210.130434783 291.52173913 207 279 c 1,118,119
 202 276 202 276 196.5 277 c 128,-1,120
 191 278 191 278 185 278 c 1,121,-1
 174 275 l 1,122,123
 165 279 165 279 163.5 277.5 c 128,-1,124
 162 276 162 276 156.5 277.5 c 128,-1,125
 151 279 151 279 139.5 280.5 c 128,-1,126
 128 282 128 282 122.5 283.5 c 128,-1,127
 117 285 117 285 114 287 c 128,-1,128
 111 289 111 289 106 290 c 1,129,-1
 92 288 l 2,130,131
 82 286 82 286 77 286 c 128,-1,132
 72 286 72 286 68 288 c 128,-1,133
 64 290 64 290 57 287.5 c 128,-1,134
 50 285 50 285 46 280 c 128,-1,135
 42 275 42 275 35 275.5 c 128,-1,136
 28 276 28 276 22.5 282 c 128,-1,137
 17 288 17 288 12 292 c 1,138,-1
 13 310 l 1,0,-1
EndSplineSet
EndChar

StartChar: brokenbar
Encoding: 166 166 19
Width: 177
Flags: HW
LayerCount: 2
Fore
SplineSet
90 505 m 1,0,1
 103.666666667 480.4 103.666666667 480.4 94 463 c 1,2,3
 95 458 95 458 98 455.5 c 128,-1,4
 101 453 101 453 98 445 c 0,5,6
 89.75 423 89.75 423 81 418 c 1,7,8
 66 418 66 418 57.5 422.5 c 128,-1,9
 49 427 49 427 40 432 c 1,10,11
 38 441 38 441 40 450.5 c 128,-1,12
 42 460 42 460 42.5 475 c 128,-1,13
 43 490 43 490 39.5 511.5 c 128,-1,14
 36 533 36 533 38 558 c 128,-1,15
 40 583 40 583 45 603.5 c 128,-1,16
 50 624 50 624 47 647 c 1,17,18
 59.1212121212 656.696969697 59.1212121212 656.696969697 68.5606060606 655.848484848 c 128,-1,19
 78 655 78 655 79 654 c 128,-1,20
 80 653 80 653 83.5 650 c 0,21,22
 93.0869565217 641.782608696 93.0869565217 641.782608696 97 632 c 1,23,24
 94 615 94 615 96.5 606 c 128,-1,25
 99 597 99 597 99 589 c 1,26,-1
 92 544 l 1,27,28
 97 528 l 1,29,30
 97 519 97 519 90 505 c 1,0,1
97 144 m 2,31,-1
 99 125 l 258,32,33
 99 120 99 120 98.5 114.5 c 128,-1,34
 98 109 98 109 99 103.5 c 128,-1,35
 100 98 100 98 102.5 93 c 128,-1,36
 105 88 105 88 105.5 83 c 128,-1,37
 106 78 106 78 104 72 c 128,-1,38
 102 66 102 66 105 61 c 1,39,40
 100 59 100 59 98.5 55 c 128,-1,41
 97 51 97 51 95 46 c 1,42,43
 88 45 88 45 82 42.5 c 128,-1,44
 76 40 76 40 66.5 37.5 c 0,45,46
 51.4583333333 33.5416666667 51.4583333333 33.5416666667 35 50 c 1,47,48
 34 65 34 65 32.5 81.5 c 128,-1,49
 31 98 31 98 31 115 c 1,50,-1
 35 156 l 1,51,-1
 33 168 l 1,52,-1
 38 213.5 l 2,53,54
 38 219.666666667 38 219.666666667 40.5 226.333333333 c 128,-1,55
 43 233 43 233 44.5 241.5 c 128,-1,56
 46 250 46 250 45.5 258.5 c 128,-1,57
 45 267 45 267 52 275 c 1,58,59
 57 276 57 276 63.5 279 c 128,-1,60
 70 282 70 282 75.5 280.5 c 128,-1,61
 81 279 81 279 85 272 c 128,-1,62
 89 265 89 265 92 259 c 0,63,64
 99 245 99 245 99 217 c 1,65,-1
 95 205 l 1,66,-1
 101 177 l 257,67,-1
 99 166 l 1,68,69
 101 154 101 154 99 151.5 c 128,-1,70
 97 149 97 149 97 144 c 2,31,-1
EndSplineSet
EndChar

StartChar: minus
Encoding: 8722 8722 20
Width: 318
Flags: HW
LayerCount: 2
Fore
SplineSet
164.25 252 m 128,-1,1
 159.5 251 159.5 251 142 244 c 1,2,3
 135 246 135 246 130.5 244 c 128,-1,4
 126 242 126 242 120 240 c 1,5,6
 109 242 109 242 97 246 c 128,-1,7
 85 250 85 250 77 242 c 1,8,9
 72 241 72 241 67 241.5 c 0,10,11
 57 242.5 57 242.5 51.5 239.75 c 128,-1,12
 46 237 46 237 42 237.5 c 128,-1,13
 38 238 38 238 34.5 240 c 0,14,15
 24 246 24 246 18 246 c 128,-1,16
 12 246 12 246 10 251 c 1,17,18
 10 262.666666667 10 262.666666667 18 276 c 1,19,20
 35 279 35 279 52.5 281 c 128,-1,21
 70 283 70 283 85 286 c 1,22,23
 92 286 92 286 97 283 c 1,24,25
 109 291 109 291 123 288 c 128,-1,26
 137 285 137 285 149.5 287 c 128,-1,27
 162 289 162 289 172.5 293.5 c 128,-1,28
 183 298 183 298 195 300 c 128,-1,29
 207 302 207 302 218 301 c 128,-1,30
 229 300 229 300 242 303 c 128,-1,31
 255 306 255 306 263.5 303.5 c 128,-1,32
 272 301 272 301 282 303 c 1,33,34
 288.615384615 289.769230769 288.615384615 289.769230769 287 272 c 1,35,36
 278 261 278 261 269 256 c 1,37,38
 239 263.5 239 263.5 218 253 c 0,39,40
 199.459459459 243.72972973 199.459459459 243.72972973 184.22972973 248.364864865 c 128,-1,0
 169 253 169 253 164.25 252 c 128,-1,1
EndSplineSet
EndChar

StartChar: multiply
Encoding: 215 215 21
Width: 482
Flags: HW
LayerCount: 2
Fore
SplineSet
242 216 m 1,0,1
 215.365853659 209.853658537 215.365853659 209.853658537 190 220 c 1,2,3
 178 208 178 208 173 205.5 c 128,-1,4
 168 203 168 203 164 197.5 c 128,-1,5
 160 192 160 192 151.5 187 c 128,-1,6
 143 182 143 182 138 177 c 1,7,8
 136 169 136 169 131 164.5 c 128,-1,9
 126 160 126 160 124 152 c 1,10,11
 118 155 118 155 114.5 151.5 c 0,12,13
 107 144 107 144 100 144 c 1,14,15
 99 139 99 139 97 136 c 128,-1,16
 95 133 95 133 93 129 c 1,17,18
 85.5 127.5 85.5 127.5 78 125 c 1,19,20
 71 116 71 116 70.5 114.5 c 128,-1,21
 70 113 70 113 69 111 c 1,22,23
 59 105 59 105 53 97.5 c 128,-1,24
 47 90 47 90 38.5 91.5 c 128,-1,25
 30 93 30 93 30.5 98 c 128,-1,26
 31 103 31 103 26 113 c 1,27,28
 29 120 29 120 34.5 124.5 c 128,-1,29
 40 129 40 129 42 137 c 1,30,31
 47 138 47 138 49 141 c 0,32,33
 53.2857142857 147.428571429 53.2857142857 147.428571429 61.6428571429 152.714285714 c 128,-1,34
 70 158 70 158 72.5 161 c 128,-1,35
 75 164 75 164 80.5 169.5 c 128,-1,36
 86 175 86 175 91 177.5 c 128,-1,37
 96 180 96 180 97 187 c 1,38,39
 101 187 101 187 102.5 190 c 128,-1,40
 104 193 104 193 108 194 c 1,41,42
 110 198 110 198 112.5 201 c 128,-1,43
 115 204 115 204 117 208 c 1,44,45
 126 210 126 210 130.5 217 c 128,-1,46
 135 224 135 224 143 227 c 1,47,48
 148 239 148 239 159.5 247.5 c 128,-1,49
 171 256 171 256 177 268 c 1,50,51
 168 286 168 286 162 292 c 1,52,53
 153.428571429 297.714285714 153.428571429 297.714285714 147 299 c 1,54,55
 144 313 144 313 129 318 c 1,56,57
 128 322 128 322 126 325.5 c 128,-1,58
 124 329 124 329 118.5 336.5 c 128,-1,59
 113 344 113 344 113 345 c 0,60,61
 113 348.428571429 113 348.428571429 90 355 c 1,62,63
 87 363 87 363 80.5 366 c 128,-1,64
 74 369 74 369 72 377 c 1,65,66
 59 390 59 390 52 393 c 1,67,68
 50 406 50 406 42.5 413 c 128,-1,69
 35 420 35 420 36 436 c 1,70,71
 51 451 51 451 85 446 c 1,72,73
 86 442 86 442 89.5 440.5 c 128,-1,74
 93 439 93 439 93 434 c 1,75,76
 112 425 112 425 124.5 411 c 128,-1,77
 137 397 137 397 156 389 c 1,78,79
 158 384 158 384 162 382 c 128,-1,80
 166 380 166 380 169 376 c 1,81,82
 172 368 172 368 174.5 366 c 128,-1,83
 177 364 177 364 180 360 c 0,84,85
 184 354.666666667 184 354.666666667 194 348.333333333 c 128,-1,86
 204 342 204 342 206.5 338.5 c 128,-1,87
 209 335 209 335 217 336 c 1,88,89
 219 334 219 334 220.5 331.5 c 128,-1,90
 222 329 222 329 224 327 c 1,91,92
 232 324 232 324 237.5 321.5 c 128,-1,93
 243 319 243 319 250.5 324 c 128,-1,94
 258 329 258 329 262.5 334.5 c 128,-1,95
 267 340 267 340 273 345.5 c 128,-1,96
 279 351 279 351 284.5 356 c 128,-1,97
 290 361 290 361 290 367 c 1,98,99
 296 367 296 367 300 372.5 c 0,100,101
 309 384.875 309 384.875 309 389 c 1,102,103
 319 393 319 393 326 403 c 128,-1,104
 333 413 333 413 335.5 414 c 128,-1,105
 338 415 338 415 344 422.5 c 0,106,107
 368.714285714 453.392857143 368.714285714 453.392857143 374.857142857 455.696428571 c 128,-1,108
 381 458 381 458 381 463 c 1,109,110
 388 461 388 461 392.5 464.5 c 128,-1,111
 397 468 397 468 402 466.5 c 0,112,113
 414 462.9 414 462.9 414 453.95 c 128,-1,114
 414 445 414 445 411 442 c 128,-1,115
 408 439 408 439 407 434 c 1,116,117
 396 432 396 432 391.5 423.5 c 128,-1,118
 387 415 387 415 378 411 c 1,119,120
 370 397 370 397 365.5 391 c 128,-1,121
 361 385 361 385 351 383 c 1,122,123
 349 380 349 380 349 372 c 1,124,125
 341 370 341 370 339 362.5 c 128,-1,126
 337 355 337 355 333 350 c 1,127,128
 323.333333333 348.619047619 323.333333333 348.619047619 317.166666667 339.80952381 c 128,-1,129
 311 331 311 331 307.5 327 c 128,-1,130
 304 323 304 323 297 322 c 1,131,132
 292 307 292 307 296 292 c 128,-1,133
 300 277 300 277 302 261 c 0,134,135
 303 258 303 258 306.5 257.5 c 128,-1,136
 310 257 310 257 313 256 c 1,137,138
 326 245 326 245 330.5 237.5 c 128,-1,139
 335 230 335 230 342 225.5 c 128,-1,140
 349 221 349 221 351 217.5 c 128,-1,141
 353 214 353 214 357 209.5 c 128,-1,142
 361 205 361 205 367.5 201.5 c 128,-1,143
 374 198 374 198 374 191 c 1,144,145
 379 191 379 191 381.5 188 c 128,-1,146
 384 185 384 185 390 186 c 1,147,148
 389 180 389 180 392.5 176.5 c 0,149,150
 407.5 161.5 407.5 161.5 412 159 c 1,151,152
 415 149 415 149 421 142 c 128,-1,153
 427 135 427 135 426 122 c 1,154,155
 428 117 428 117 430 112.5 c 128,-1,156
 432 108 432 108 431 100 c 1,157,158
 415 88 415 88 402.5 89.5 c 128,-1,159
 390 91 390 91 379 95 c 1,160,161
 363.117647059 117.941176471 363.117647059 117.941176471 351 124 c 1,162,163
 346 135 346 135 337.5 142 c 128,-1,164
 329 149 329 149 321 158 c 1,165,166
 317 160 317 160 315.5 158.5 c 128,-1,167
 314 157 314 157 309 159 c 1,168,169
 303.785714286 174.642857143 303.785714286 174.642857143 282 179 c 1,170,171
 277 184 277 184 272 187.5 c 128,-1,172
 267 191 267 191 265 199 c 1,173,174
 250 203 250 203 242 216 c 1,0,1
EndSplineSet
EndChar

StartChar: exclam
Encoding: 33 33 23
Width: 218
Flags: HW
LayerCount: 2
Fore
SplineSet
69.5 695 m 2,0,-1
 96 701 l 1,1,2
 104 700 104 700 110.5 696.5 c 128,-1,3
 117 693 117 693 123 691 c 1,4,5
 127 683 127 683 129 675 c 128,-1,6
 131 667 131 667 134 660 c 2,7,-1
 138.5 649.5 l 2,8,9
 144 636.666666667 144 636.666666667 144 632.333333333 c 128,-1,10
 144 628 144 628 148 619.5 c 128,-1,11
 152 611 152 611 150.5 605.5 c 128,-1,12
 149 600 149 600 154 595 c 1,13,14
 149 590 149 590 151.5 580 c 128,-1,15
 154 570 154 570 148 564 c 1,16,17
 153 558 153 558 152.5 546 c 128,-1,18
 152 534 152 534 157 529 c 1,19,20
 154 517 154 517 156.5 501 c 128,-1,21
 159 485 159 485 152 476 c 1,22,23
 157.886792453 440.679245283 157.886792453 440.679245283 146 422 c 0,24,25
 142 416 142 416 137 413.5 c 128,-1,26
 132 411 132 411 130 404 c 128,-1,27
 128 397 128 397 130 392 c 128,-1,28
 132 387 132 387 134 380 c 1,29,30
 127 370 127 370 129 357.5 c 128,-1,31
 131 345 131 345 129 336 c 128,-1,32
 127 327 127 327 124 321 c 128,-1,33
 121 315 121 315 119.5 310 c 128,-1,34
 118 305 118 305 119 299.5 c 128,-1,35
 120 294 120 294 120 289 c 1,36,37
 114 270 114 270 114 264 c 128,-1,38
 114 258 114 258 109 253 c 1,39,40
 109 245 109 245 109.5 238.5 c 128,-1,41
 110 232 110 232 109 225 c 128,-1,42
 108 218 108 218 105.5 211.5 c 128,-1,43
 103 205 103 205 101 199 c 1,44,45
 94 198 94 198 90.5 192.5 c 128,-1,46
 87 187 87 187 79 188 c 1,47,48
 74 197 74 197 72.5 197.5 c 128,-1,49
 71 198 71 198 69.5 199.5 c 128,-1,50
 68 201 68 201 65 203 c 128,-1,51
 62 205 62 205 59 210 c 0,52,53
 55 216.666666667 55 216.666666667 55 241.333333333 c 128,-1,54
 55 266 55 266 54.5 272.5 c 128,-1,55
 54 279 54 279 57 283 c 1,56,57
 52 294 52 294 52 310.5 c 128,-1,58
 52 327 52 327 46 345 c 1,59,60
 46 350 46 350 46.5 355.5 c 128,-1,61
 47 361 47 361 46 368 c 128,-1,62
 45 375 45 375 43.5 383.5 c 128,-1,63
 42 392 42 392 46 401 c 1,64,65
 40.7333333333 416.8 40.7333333333 416.8 41.8666666667 433.4 c 128,-1,66
 43 450 43 450 42.5 455 c 128,-1,67
 42 460 42 460 46 463 c 1,68,69
 46 466 46 466 44 468 c 128,-1,70
 42 470 42 470 40.5 474.5 c 128,-1,71
 39 479 39 479 40 485 c 128,-1,72
 41 491 41 491 37.5 501 c 0,73,74
 31.8461538462 517.153846154 31.8461538462 517.153846154 39 541 c 1,75,76
 36 550 36 550 36 552 c 2,77,-1
 37 566 l 1,78,-1
 34 582 l 1,79,80
 34 606.583333333 34 606.583333333 42.5 641.291666667 c 128,-1,81
 51 676 51 676 60 693 c 1,82,83
 65 695 65 695 69.5 695 c 2,0,-1
65 119 m 1,84,85
 67 124 67 124 75 124 c 1,86,87
 87.2033898305 129.423728814 87.2033898305 129.423728814 115 119 c 1,88,89
 115 108 115 108 120.5 104 c 128,-1,90
 126 100 126 100 127 91 c 1,91,92
 145.714285714 72.2857142857 145.714285714 72.2857142857 142 50 c 1,93,-1
 142 44 l 2,94,95
 142 40 142 40 141 38 c 1,96,97
 134 33 134 33 134.5 31.5 c 128,-1,98
 135 30 135 30 133.5 28.5 c 128,-1,99
 132 27 132 27 128 25.5 c 128,-1,100
 124 24 124 24 121 21 c 0,101,102
 107.0625 7.0625 107.0625 7.0625 98.53125 9.03125 c 128,-1,103
 90 11 90 11 82 11 c 1,104,105
 74 21 74 21 58 25 c 1,106,107
 55 30 55 30 53 36 c 128,-1,108
 51 42 51 42 46 46 c 1,109,110
 48 54 48 54 46.5 58.5 c 128,-1,111
 45 63 45 63 43 70 c 1,112,113
 42 94 42 94 53 113 c 0,114,115
 55 115 55 115 58.5 115.5 c 128,-1,116
 62 116 62 116 65 119 c 1,84,85
EndSplineSet
EndChar

StartChar: quotedbl
Encoding: 34 34 24
Width: 313
Flags: HW
LayerCount: 2
Fore
SplineSet
108 655.5 m 2,0,1
 108 650 108 650 108.5 637 c 2,2,-1
 109 624 l 2,3,4
 109 619 109 619 107.5 615.5 c 128,-1,5
 106 612 106 612 105 603 c 128,-1,6
 104 594 104 594 103.5 590 c 128,-1,7
 103 586 103 586 106 574 c 128,-1,8
 109 562 109 562 105.5 556 c 128,-1,9
 102 550 102 550 101 545 c 128,-1,10
 100 540 100 540 100 533.5 c 0,11,12
 100 518 100 518 94 506 c 1,13,14
 80.1 497.3125 80.1 497.3125 63 508 c 256,15,16
 55 513 55 513 52 519 c 128,-1,17
 49 525 49 525 44 537 c 1,18,19
 46 553 46 553 46 570.5 c 128,-1,20
 46 588 46 588 41 605 c 1,21,22
 44 608 44 608 44 613.5 c 2,23,-1
 44 624 l 1,24,-1
 43 665 l 1,25,-1
 45 677 l 1,26,-1
 43 695 l 2,27,28
 43 700 43 700 45 710.5 c 128,-1,29
 47 721 47 721 49 725.5 c 128,-1,30
 51 730 51 730 50 735 c 1,31,32
 53 740 53 740 58.5 742.5 c 128,-1,33
 64 745 64 745 69 750 c 0,34,35
 71 751 71 751 80 744 c 1,36,37
 89 739 89 739 96 727 c 1,38,39
 100 715 100 715 101 715 c 0,40,41
 105 715 105 715 105 697 c 1,42,43
 102.9 682.3 102.9 682.3 108 667 c 1,44,-1
 108 655.5 l 2,0,1
241 655.5 m 128,-1,46
 241 650 241 650 241.5 637 c 2,47,-1
 242 624 l 2,48,49
 242 619 242 619 241 615.5 c 128,-1,50
 240 612 240 612 239 603 c 128,-1,51
 238 594 238 594 237.5 590 c 128,-1,52
 237 586 237 586 239.5 574 c 128,-1,53
 242 562 242 562 238.5 556 c 128,-1,54
 235 550 235 550 234 545 c 128,-1,55
 233 540 233 540 233 533.5 c 0,56,57
 233 518 233 518 227 506 c 1,58,59
 213.6 497.625 213.6 497.625 197 508 c 256,60,61
 186.295774648 514.690140845 186.295774648 514.690140845 177 537 c 1,62,63
 179 553 179 553 179 570.5 c 128,-1,64
 179 588 179 588 174 605 c 1,65,66
 177 608 177 608 177 613.5 c 2,67,-1
 177 624 l 1,68,-1
 176 665 l 1,69,-1
 178 677 l 1,70,-1
 176 695 l 2,71,72
 176 700 176 700 178 710.5 c 128,-1,73
 180 721 180 721 182 725.5 c 128,-1,74
 184 730 184 730 183 735 c 1,75,76
 186 740 186 740 191.5 742.5 c 128,-1,77
 197 745 197 745 202 750 c 0,78,79
 204 751 204 751 213 744 c 1,80,81
 222 739 222 739 229 727 c 1,82,83
 233 715 233 715 234.5 715 c 0,84,85
 239 715 239 715 239 697 c 1,86,87
 237 683 237 683 238.5 678 c 128,-1,88
 240 673 240 673 240.5 667 c 128,-1,45
 241 661 241 661 241 655.5 c 128,-1,46
EndSplineSet
EndChar

StartChar: numbersign
Encoding: 35 35 25
Width: 583
Flags: HW
LayerCount: 2
Fore
SplineSet
251 300 m 258,0,-1
 275 302 l 1,1,2
 281 304 281 304 287.5 303 c 128,-1,3
 294 302 294 302 300 302 c 1,4,5
 305 314 305 314 305 318.5 c 128,-1,6
 305 323 305 323 307.5 328.5 c 128,-1,7
 310 334 310 334 313.5 347.5 c 128,-1,8
 317 361 317 361 326.5 383 c 128,-1,9
 336 405 336 405 339 432 c 1,10,11
 344 437 344 437 345.5 444 c 128,-1,12
 347 451 347 451 349 458 c 1,13,14
 313.24137931 451.689655172 313.24137931 451.689655172 300.120689655 454.844827586 c 128,-1,15
 287 458 287 458 286.5 459.5 c 128,-1,16
 286 461 286 461 272.618421053 459.828947368 c 128,-1,17
 259.236842105 458.657894737 259.236842105 458.657894737 247 466 c 1,18,19
 237.454545455 463.272727273 237.454545455 463.272727273 222 454 c 1,20,21
 215 446 215 446 216 438.5 c 128,-1,22
 217 431 217 431 215.5 423 c 128,-1,23
 214 415 214 415 210 409.5 c 128,-1,24
 206 404 206 404 208 396 c 1,25,26
 197.888888889 385.888888889 197.888888889 385.888888889 196.444444444 368.944444444 c 128,-1,27
 195 352 195 352 191.5 349.5 c 128,-1,28
 188 347 188 347 185 340.5 c 128,-1,29
 182 334 182 334 181 329 c 128,-1,30
 180 324 180 324 178 319.5 c 128,-1,31
 176 315 176 315 176 299 c 1,32,-1
 194 300 l 1,33,-1
 211 298 l 257,34,-1
 228 301 l 2,35,36
 234 302 234 302 239.5 301 c 128,-1,37
 245 300 245 300 251 300 c 258,0,-1
485 521 m 1,38,-1
 528 518 l 1,39,40
 546.064220183 509.788990826 546.064220183 509.788990826 541 487 c 0,41,42
 540 484 540 484 536 480 c 128,-1,43
 532 476 532 476 530 473 c 128,-1,44
 528 470 528 470 523 466 c 0,45,46
 504.904761905 451.523809524 504.904761905 451.523809524 487.452380952 455.761904762 c 128,-1,47
 470 460 470 460 463 459.5 c 128,-1,48
 456 459 456 459 445.5 458 c 128,-1,49
 435 457 435 457 426 461 c 1,50,51
 421 461 421 461 415 458 c 1,52,53
 410.3125 423.625 410.3125 423.625 390 383 c 1,54,55
 388 376 388 376 385.5 371 c 128,-1,56
 383 366 383 366 381.5 360 c 128,-1,57
 380 354 380 354 381 351.5 c 128,-1,58
 382 349 382 349 383 346 c 1,59,60
 380 342 380 342 379 337.5 c 128,-1,61
 378 333 378 333 376 328.5 c 128,-1,62
 374 324 374 324 372 320.5 c 128,-1,63
 370 317 370 317 368 313 c 1,64,65
 377 311 377 311 388 313 c 128,-1,66
 399 315 399 315 412.5 316.5 c 128,-1,67
 426 318 426 318 438.5 319 c 128,-1,68
 451 320 451 320 462 327 c 1,69,70
 472 326 472 326 482 325 c 128,-1,71
 492 324 492 324 502 322 c 1,72,73
 504 316 504 316 511 312 c 128,-1,74
 518 308 518 308 519 302.5 c 128,-1,75
 520 297 520 297 517.5 294 c 128,-1,76
 515 291 515 291 513 286 c 1,77,78
 504 285 504 285 495 281.5 c 128,-1,79
 486 278 486 278 477 276.5 c 128,-1,80
 468 275 468 275 460.5 277.5 c 128,-1,81
 453 280 453 280 446 279.5 c 0,82,83
 420.333333333 277.666666667 420.333333333 277.666666667 412.666666667 273.833333333 c 128,-1,84
 405 270 405 270 399 268.5 c 128,-1,85
 393 267 393 267 383 266.5 c 128,-1,86
 373 266 373 266 367 264.5 c 0,87,88
 359 262.5 359 262.5 354 260 c 1,89,90
 338.634146341 210.829268293 338.634146341 210.829268293 343 189 c 1,91,-1
 319 138 l 1,92,93
 322 131 322 131 325 127 c 128,-1,94
 328 123 328 123 327.5 117 c 128,-1,95
 327 111 327 111 323.5 108.5 c 128,-1,96
 320 106 320 106 315.5 102 c 128,-1,97
 311 98 311 98 308 94.5 c 128,-1,98
 305 91 305 91 300 89.5 c 128,-1,99
 295 88 295 88 288.5 90.5 c 128,-1,100
 282 93 282 93 276 91 c 1,101,-1
 259 106 l 1,102,-1
 259 123 l 1,103,104
 257 128 257 128 254 130 c 128,-1,105
 251 132 251 132 250 137 c 1,106,107
 251 142 251 142 252 148 c 128,-1,108
 253 154 253 154 256 156 c 1,109,110
 258 164 258 164 259 170.5 c 128,-1,111
 260 177 260 177 262 184.5 c 128,-1,112
 264 192 264 192 266.5 198.5 c 128,-1,113
 269 205 269 205 270 210.5 c 128,-1,114
 271 216 271 216 270.5 221 c 128,-1,115
 270 226 270 226 272.5 234.5 c 128,-1,116
 275 243 275 243 275 246.5 c 128,-1,117
 275 250 275 250 276 252 c 1,118,119
 259 255 259 255 251 252 c 128,-1,120
 243 249 243 249 230 252 c 128,-1,121
 217 255 217 255 202 258 c 1,122,123
 186.080645161 246.629032258 186.080645161 246.629032258 160 249 c 1,124,-1
 129 175 l 1,125,126
 133 164 133 164 131 164 c 128,-1,127
 129 164 129 164 129 161 c 128,-1,128
 129 158 129 158 130.5 153.5 c 128,-1,129
 132 149 132 149 131.5 142.5 c 128,-1,130
 131 136 131 136 127.5 135.5 c 128,-1,131
 124 135 124 135 123 130 c 256,132,133
 122 125 122 125 119.5 123.5 c 128,-1,134
 117 122 117 122 116 117 c 1,135,136
 113 115 113 115 109 115.5 c 0,137,138
 101.444444444 116.444444444 101.444444444 116.444444444 98.2222222222 113.222222222 c 128,-1,139
 95 110 95 110 90.5 111 c 128,-1,140
 86 112 86 112 79.5 117 c 128,-1,141
 73 122 73 122 71 128 c 1,142,143
 73 137 73 137 71.5 144.5 c 128,-1,144
 70 152 70 152 72 155.5 c 128,-1,145
 74 159 74 159 73 162.5 c 128,-1,146
 72 166 72 166 73.5 170.5 c 128,-1,147
 75 175 75 175 77 178.5 c 128,-1,148
 79 182 79 182 80 185.5 c 128,-1,149
 81 189 81 189 80 193 c 128,-1,150
 79 197 79 197 80 200.5 c 128,-1,151
 81 204 81 204 83 206.5 c 128,-1,152
 85 209 85 209 86.5 214 c 128,-1,153
 88 219 88 219 88.5 226 c 128,-1,154
 89 233 89 233 91 241 c 1,155,156
 93 243 93 243 94.5 245.5 c 128,-1,157
 96 248 96 248 98 251 c 1,158,159
 85 250 85 250 80.5 251 c 128,-1,160
 76 252 76 252 70 250.5 c 128,-1,161
 64 249 64 249 57 245 c 128,-1,162
 50 241 50 241 39 240.5 c 128,-1,163
 28 240 28 240 21 244 c 128,-1,164
 14 248 14 248 7 250 c 1,165,166
 5 258 5 258 1 263 c 128,-1,167
 -3 268 -3 268 -3 278 c 1,168,169
 2 282 2 282 8 283 c 128,-1,170
 14 284 14 284 21.5 285.5 c 128,-1,171
 29 287 29 287 35.5 286 c 128,-1,172
 42 285 42 285 47.5 286 c 128,-1,173
 53 287 53 287 56 288.5 c 128,-1,174
 59 290 59 290 65 291.5 c 128,-1,175
 71 293 71 293 77 292.5 c 128,-1,176
 83 292 83 292 91 292 c 1,177,178
 101.384615385 296.153846154 101.384615385 296.153846154 110 294 c 1,179,180
 112.3 305.5 112.3 305.5 111 312 c 1,181,182
 125 354 125 354 127 358 c 1,183,184
 127 363 127 363 126 366 c 128,-1,185
 125 369 125 369 126 372.5 c 128,-1,186
 127 376 127 376 129 379 c 0,187,188
 134.741935484 387.612903226 134.741935484 387.612903226 135.370967742 398.306451613 c 128,-1,189
 136 409 136 409 137 417 c 1,190,191
 142 431 142 431 143 437 c 128,-1,192
 144 443 144 443 146 449 c 1,193,-1
 127.5 449 l 2,194,195
 121 449 121 449 112 445.5 c 128,-1,196
 103 442 103 442 94 447.5 c 128,-1,197
 85 453 85 453 77 455 c 1,198,199
 70 453 70 453 67.5 448.5 c 128,-1,200
 65 444 65 444 51 442.5 c 128,-1,201
 37 441 37 441 24.5 450 c 128,-1,202
 12 459 12 459 14 473 c 1,203,204
 16 478 16 478 21.5 481 c 128,-1,205
 27 484 27 484 29 489 c 1,206,207
 37 491 37 491 43.5 490.5 c 128,-1,208
 50 490 50 490 58 492 c 128,-1,209
 66 494 66 494 73 498 c 128,-1,210
 80 502 80 502 88 504 c 1,211,212
 98 504 98 504 101 502.5 c 128,-1,213
 104 501 104 501 109 500 c 1,214,-1
 136 500 l 1,215,216
 141 501 141 501 147.5 501.5 c 128,-1,217
 154 502 154 502 160 503 c 1,218,219
 161.238095238 519.095238095 161.238095238 519.095238095 164.619047619 529.047619048 c 128,-1,220
 168 539 168 539 169 546.5 c 128,-1,221
 170 554 170 554 172 560 c 128,-1,222
 174 566 174 566 175 572.5 c 128,-1,223
 176 579 176 579 180 584 c 1,224,225
 178 597 178 597 184 604 c 128,-1,226
 190 611 190 611 193 619 c 128,-1,227
 196 627 196 627 195.5 634 c 128,-1,228
 195 641 195 641 197 646 c 0,229,230
 200 651 200 651 202 658 c 128,-1,231
 204 665 204 665 207.5 670 c 128,-1,232
 211 675 211 675 215 682 c 1,233,234
 232.620689655 687.034482759 232.620689655 687.034482759 244 686 c 1,235,236
 267.903703704 660.388888889 267.903703704 660.388888889 259 627 c 1,237,238
 260 623 260 623 257.5 621 c 128,-1,239
 255 619 255 619 253 617 c 1,240,241
 257 608 257 608 253 596.5 c 128,-1,242
 249 585 249 585 254 579 c 1,243,244
 252 571 252 571 249 566.5 c 128,-1,245
 246 562 246 562 248 552 c 1,246,247
 243 550 243 550 241.5 546 c 128,-1,248
 240 542 240 542 238 538 c 128,-1,249
 236 534 236 534 238 532 c 128,-1,250
 240 530 240 530 239 525.5 c 128,-1,251
 238 521 238 521 237 516 c 128,-1,252
 236 511 236 511 234 506 c 1,253,254
 243 506 243 506 247 507 c 2,255,-1
 262 509 l 2,256,257
 267 510 267 510 272 508.5 c 128,-1,258
 277 507 277 507 283 507 c 1,259,-1
 297 510 l 1,260,-1
 338 509 l 1,261,-1
 366 514 l 1,262,-1
 366 520.5 l 2,263,264
 366 526 366 526 370 534.5 c 0,265,266
 378.06557377 551.639344262 378.06557377 551.639344262 381.532786885 567.819672131 c 128,-1,267
 385 584 385 584 388 593.5 c 0,268,269
 394 612.5 394 612.5 393.5 619.25 c 128,-1,270
 393 626 393 626 395.5 629 c 128,-1,271
 398 632 398 632 400 639.5 c 128,-1,272
 402 647 402 647 402.5 658 c 128,-1,273
 403 669 403 669 407 677 c 128,-1,274
 411 685 411 685 410.5 686.5 c 128,-1,275
 410 688 410 688 413 691 c 128,-1,276
 416 694 416 694 416.5 696.5 c 128,-1,277
 417 699 417 699 423.5 702 c 128,-1,278
 430 705 430 705 434.5 702.5 c 128,-1,279
 439 700 439 700 444 702 c 1,280,281
 457.951612903 693.629032258 457.951612903 693.629032258 458.975806452 680.314516129 c 128,-1,282
 460 667 460 667 459 654.5 c 128,-1,283
 458 642 458 642 458 639 c 258,284,-1
 460 628 l 1,285,286
 457 622.75 457 622.75 457 615 c 1,287,-1
 452 604 l 1,288,289
 454 595 454 595 451 589 c 128,-1,290
 448 583 448 583 444.5 575.5 c 128,-1,291
 441 568 441 568 439.5 556.5 c 128,-1,292
 438 545 438 545 436 536 c 128,-1,293
 434 527 434 527 433.5 523.5 c 128,-1,294
 433 520 433 520 431 516 c 1,295,-1
 485 521 l 1,38,-1
EndSplineSet
EndChar

StartChar: dollar
Encoding: 36 36 26
Width: 364
Flags: HW
LayerCount: 2
Fore
SplineSet
141 730 m 1,0,1
 143 732 143 732 156.5 732 c 128,-1,2
 170 732 170 732 170 735 c 1,3,4
 178 734 178 734 178.5 729.5 c 128,-1,5
 179 725 179 725 185 723 c 1,6,7
 188 703 188 703 187 689.5 c 128,-1,8
 186 676 186 676 188 662 c 0,9,10
 189.8 653 189.8 653 214 653 c 1,11,12
 224 648 224 648 229 646.5 c 128,-1,13
 234 645 234 645 241 642 c 128,-1,14
 248 639 248 639 250.5 637 c 128,-1,15
 253 635 253 635 257 633 c 1,16,17
 267 624 267 624 273 618 c 128,-1,18
 279 612 279 612 282.5 609 c 128,-1,19
 286 606 286 606 288.5 599 c 128,-1,20
 291 592 291 592 296 589 c 1,21,22
 293 582 293 582 298.5 576.5 c 128,-1,23
 304 571 304 571 304.5 564.5 c 0,24,25
 305.625 549.875 305.625 549.875 298.8125 528.9375 c 128,-1,26
 292 508 292 508 279 506 c 1,27,28
 248.601694915 507.788135593 248.601694915 507.788135593 244 540 c 1,29,30
 236 548 236 548 228 554.5 c 128,-1,31
 220 561 220 561 213 569 c 1,32,33
 206 573 206 573 199 574 c 128,-1,34
 192 575 192 575 185.5 578.5 c 128,-1,35
 179 582 179 582 175.5 587.5 c 0,36,37
 168.956521739 597.782608696 168.956521739 597.782608696 147 589 c 1,38,-1
 138 589 l 2,39,40
 134 589 134 589 132 591 c 1,41,42
 123 586 123 586 117.5 583.5 c 128,-1,43
 112 581 112 581 104 573 c 1,44,45
 103 567 103 567 98.5 562 c 128,-1,46
 94 557 94 557 95 551 c 256,47,48
 96 545 96 545 94 539 c 128,-1,49
 92 533 92 533 94 527.5 c 128,-1,50
 96 522 96 522 100 517 c 128,-1,51
 104 512 104 512 107.5 507 c 128,-1,52
 111 502 111 502 113 492.5 c 128,-1,53
 115 483 115 483 118 478.5 c 128,-1,54
 121 474 121 474 125 471.5 c 128,-1,55
 129 469 129 469 133 465 c 1,56,57
 138 454 138 454 139 453.5 c 128,-1,58
 140 453 140 453 142.5 449.5 c 128,-1,59
 145 446 145 446 153 443 c 128,-1,60
 161 440 161 440 167 437 c 1,61,62
 168 429 168 429 174.5 423 c 128,-1,63
 181 417 181 417 187 409.5 c 128,-1,64
 193 402 193 402 200 395.5 c 128,-1,65
 207 389 207 389 213.5 388.5 c 128,-1,66
 220 388 220 388 224 379 c 1,67,68
 229 375 229 375 234 370 c 128,-1,69
 239 365 239 365 246 361 c 1,70,71
 256.172413793 334.551724138 256.172413793 334.551724138 284 316 c 1,72,73
 286 311 286 311 287 306 c 128,-1,74
 288 301 288 301 295 301 c 1,75,76
 297 295 297 295 298.5 290 c 128,-1,77
 300 285 300 285 303 279.5 c 128,-1,78
 306 274 306 274 310 270 c 0,79,80
 318.222222222 261.777777778 318.222222222 261.777777778 317.611111111 245.888888889 c 128,-1,81
 317 230 317 230 317.5 221.5 c 128,-1,82
 318 213 318 213 315 202.5 c 128,-1,83
 312 192 312 192 315 180 c 1,84,85
 303.586956522 161.739130435 303.586956522 161.739130435 298.793478261 160.369565217 c 128,-1,86
 294 159 294 159 290.5 155.5 c 128,-1,87
 287 152 287 152 283 146.5 c 128,-1,88
 279 141 279 141 274 136 c 1,89,90
 266 135 266 135 262 130.5 c 128,-1,91
 258 126 258 126 252.5 122.5 c 128,-1,92
 247 119 247 119 240 117 c 128,-1,93
 233 115 233 115 230 109 c 1,94,95
 223 111 223 111 216.5 105 c 128,-1,96
 210 99 210 99 204 97 c 1,97,98
 205 89 205 89 204.5 88 c 128,-1,99
 204 87 204 87 205.5 82.5 c 128,-1,100
 207 78 207 78 205 74.5 c 128,-1,101
 203 71 203 71 203 67 c 2,102,-1
 206 50 l 1,103,104
 205 39 205 39 206.5 38 c 128,-1,105
 208 37 208 37 208.5 32 c 128,-1,106
 209 27 209 27 207.5 18.5 c 128,-1,107
 206 10 206 10 208 1 c 1,108,109
 204 -1 204 -1 201.5 -4.5 c 128,-1,110
 199 -8 199 -8 190 -10.5 c 0,111,112
 176.304347826 -14.3043478261 176.304347826 -14.3043478261 166 -4 c 1,113,114
 153.685393258 5.23595505618 153.685393258 5.23595505618 155.842696629 19.6179775281 c 128,-1,115
 158 34 158 34 159 45 c 1,116,-1
 157 60 l 2,117,118
 157 65 157 65 159 69 c 128,-1,119
 161 73 161 73 157.5 80 c 128,-1,120
 154 87 154 87 144 91 c 128,-1,121
 134 95 134 95 126 95 c 1,122,123
 124 98 124 98 119.5 99 c 128,-1,124
 115 100 115 100 110.5 102 c 128,-1,125
 106 104 106 104 101 104 c 128,-1,126
 96 104 96 104 92 106.5 c 128,-1,127
 88 109 88 109 86.5 112.5 c 128,-1,128
 85 116 85 116 80 115 c 1,129,130
 78 121 78 121 73 125.5 c 128,-1,131
 68 130 68 130 68.5 131.5 c 128,-1,132
 69 133 69 133 65.5 136 c 128,-1,133
 62 139 62 139 59.5 142.5 c 128,-1,134
 57 146 57 146 52 151 c 1,135,136
 57 160 57 160 51 165.5 c 128,-1,137
 45 171 45 171 44 177.5 c 0,138,139
 42.2941176471 188.588235294 42.2941176471 188.588235294 49.1470588235 202.294117647 c 128,-1,140
 56 216 56 216 55 222 c 1,141,142
 58 223 58 223 63 228 c 2,143,-1
 74 239 l 2,144,145
 93 258 93 258 103.5 258 c 2,146,-1
 121 258 l 1,147,148
 128 249 128 249 124 241 c 128,-1,149
 120 233 120 233 121 220 c 1,150,151
 112.232876712 205.97260274 112.232876712 205.97260274 113.616438356 190.98630137 c 128,-1,152
 115 176 115 176 117 173.5 c 128,-1,153
 119 171 119 171 122 168.5 c 0,154,155
 129.105263158 162.578947368 129.105263158 162.578947368 131 155 c 1,156,-1
 140 148 l 1,157,158
 150 144 150 144 169 144 c 1,159,-1
 192 150 l 1,160,161
 201 150 201 150 207 154 c 128,-1,162
 213 158 213 158 222 156 c 1,163,164
 227 161 227 161 232.5 164.5 c 128,-1,165
 238 168 238 168 244 172 c 1,166,167
 246 182 246 182 252 188 c 128,-1,168
 258 194 258 194 258.5 203.5 c 128,-1,169
 259 213 259 213 254.5 219.5 c 128,-1,170
 250 226 250 226 250 237 c 1,171,172
 245 245 245 245 236 249 c 128,-1,173
 227 253 227 253 224 262 c 1,174,175
 219 263 219 263 215.5 264.5 c 128,-1,176
 212 266 212 266 207 268 c 1,177,178
 179.181818182 301.779220779 179.181818182 301.779220779 139 319 c 1,179,180
 130.5 332.6 130.5 332.6 121 344 c 1,181,182
 109 346 109 346 99 350 c 1,183,184
 98 354 98 354 95 356 c 128,-1,185
 92 358 92 358 89 360.5 c 0,186,187
 80.5853658537 367.512195122 80.5853658537 367.512195122 82 376 c 1,188,189
 71.3333333333 386.666666667 71.3333333333 386.666666667 58 390 c 1,190,191
 51 401.666666667 51 401.666666667 43 403 c 1,192,193
 44 415 44 415 38.5 419.5 c 128,-1,194
 33 424 33 424 28 430 c 1,195,196
 33 441 33 441 26 450 c 128,-1,197
 19 459 19 459 17 466 c 128,-1,198
 15 473 15 473 15 477.5 c 128,-1,199
 15 482 15 482 13.5 490 c 0,200,201
 5.23222748815 534.09478673 5.23222748815 534.09478673 19 557.5 c 0,202,203
 24 566 24 566 26 575 c 1,204,205
 36.85 595.15 36.85 595.15 58 621 c 1,206,207
 62 623 62 623 66.5 624 c 128,-1,208
 71 625 71 625 74.5 626.5 c 0,209,210
 92 634 92 634 96 638 c 1,211,212
 108 642 108 642 116.5 643.5 c 0,213,214
 141.146118721 647.849315068 141.146118721 647.849315068 136.5 659 c 0,215,216
 134 665 134 665 139 671 c 1,217,218
 140 687 140 687 140.5 693 c 128,-1,219
 141 699 141 699 141 706 c 1,220,221
 136 716 136 716 138 720.5 c 128,-1,222
 140 725 140 725 141 730 c 1,0,1
EndSplineSet
EndChar

StartChar: percent
Encoding: 37 37 27
Width: 510
Flags: HW
LayerCount: 2
Fore
SplineSet
248 261 m 1,0,1
 248 250.083333333 248 250.083333333 238.5 235.041666667 c 128,-1,2
 229 220 229 220 229 213.25 c 128,-1,3
 229 206.5 229 206.5 215 189 c 1,4,-1
 215 176 l 1,5,6
 206 168 206 168 201.5 156 c 128,-1,7
 197 144 197 144 186 137 c 1,8,9
 186 129 186 129 182.5 125.5 c 128,-1,10
 179 122 179 122 177 117 c 1,11,-1
 177 106 l 1,12,13
 169 96 169 96 165 82 c 128,-1,14
 161 68 161 68 150 60 c 1,15,16
 139 62 139 62 130.5 61 c 128,-1,17
 122 60 122 60 115 62 c 1,18,19
 110 67 110 67 107.5 66.5 c 128,-1,20
 105 66 105 66 103 67.5 c 0,21,22
 97.4444444444 71.6666666667 97.4444444444 71.6666666667 94.7222222222 81.8333333333 c 128,-1,23
 92 92 92 92 94 101.5 c 128,-1,24
 96 111 96 111 99.5 119.5 c 128,-1,25
 103 128 103 128 106.5 136.5 c 128,-1,26
 110 145 110 145 110 154 c 1,27,28
 126 170 126 170 126 193 c 0,29,30
 126 208.363636364 126 208.363636364 133.5 215.181818182 c 128,-1,31
 141 222 141 222 139 230 c 1,32,33
 151 246 151 246 157.5 266.5 c 128,-1,34
 164 287 164 287 175 302 c 1,35,-1
 177 317 l 1,36,37
 183 326 183 326 186 335.5 c 128,-1,38
 189 345 189 345 193.5 354 c 128,-1,39
 198 363 198 363 202.5 372 c 128,-1,40
 207 381 207 381 207 392 c 1,41,42
 211 394 211 394 212 399 c 128,-1,43
 213 404 213 404 218 406 c 1,44,45
 217 412 217 412 219 416 c 128,-1,46
 221 420 221 420 224.5 427.5 c 128,-1,47
 228 435 228 435 228.5 436.5 c 128,-1,48
 229 438 229 438 232 443.5 c 0,49,50
 242 461.833333333 242 461.833333333 242 477 c 1,51,52
 250 482 250 482 250 490.5 c 128,-1,53
 250 499 250 499 252.5 505 c 128,-1,54
 255 511 255 511 258.5 514.5 c 0,55,56
 264 520 264 520 266.5 530 c 128,-1,57
 269 540 269 540 272 547 c 128,-1,58
 275 554 275 554 281 562.5 c 128,-1,59
 287 571 287 571 290 582 c 1,60,-1
 283 597 l 1,61,62
 264 593 264 593 245 590 c 128,-1,63
 226 587 226 587 216 573 c 1,64,65
 212 571 212 571 207.5 571 c 128,-1,66
 203 571 203 571 200.5 568 c 128,-1,67
 198 565 198 565 196 561.5 c 128,-1,68
 194 558 194 558 191.5 554.5 c 128,-1,69
 189 551 189 551 186.5 548.5 c 128,-1,70
 184 546 184 546 183.5 539.5 c 0,71,72
 182.807017544 530.49122807 182.807017544 530.49122807 196 514 c 1,73,74
 197 511 197 511 196 505.5 c 128,-1,75
 195 500 195 500 197 495 c 1,76,77
 196 485 196 485 196 480 c 128,-1,78
 196 475 196 475 194.5 469 c 0,79,80
 192.714285714 461.857142857 192.714285714 461.857142857 185 449 c 1,81,82
 181 439 181 439 175 432 c 128,-1,83
 169 425 169 425 169 422.5 c 128,-1,84
 169 420 169 420 168 418 c 0,85,86
 158 409 158 409 154.5 403 c 128,-1,87
 151 397 151 397 149.5 397.5 c 128,-1,88
 148 398 148 398 147 398 c 0,89,90
 146 397 146 397 144.5 392.5 c 128,-1,91
 143 388 143 388 142 387 c 0,92,93
 135 383 135 383 131.5 379.5 c 128,-1,94
 128 376 128 376 125 374.5 c 128,-1,95
 122 373 122 373 113 374.5 c 128,-1,96
 104 376 104 376 98 375 c 2,97,-1
 83 373 l 1,98,99
 77 374 77 374 70.5 377 c 128,-1,100
 64 380 64 380 58 381 c 128,-1,101
 52 382 52 382 48 381 c 128,-1,102
 44 380 44 380 39.5 381.5 c 128,-1,103
 35 383 35 383 30.5 388.5 c 128,-1,104
 26 394 26 394 18 392 c 1,105,106
 16 394 16 394 15.5 397.5 c 128,-1,107
 15 401 15 401 11.5 405.5 c 128,-1,108
 8 410 8 410 3 418 c 1,109,110
 5.27272727273 424.818181818 5.27272727273 424.818181818 1.63636363636 434.909090909 c 128,-1,111
 -2 445 -2 445 -2.5 452.5 c 128,-1,112
 -3 460 -3 460 -6 468 c 1,113,114
 -4 476 -4 476 -1 484 c 128,-1,115
 2 492 2 492 2 504 c 1,116,117
 6 509 6 509 7.5 516 c 128,-1,118
 9 523 9 523 11 531 c 1,119,120
 17 539 17 539 20.5 547.5 c 128,-1,121
 24 556 24 556 27.5 561 c 128,-1,122
 31 566 31 566 33.5 568 c 128,-1,123
 36 570 36 570 36 573 c 1,124,125
 44 578 44 578 50.5 582 c 128,-1,126
 57 586 57 586 59 595 c 1,127,128
 76 593 76 593 84 600.5 c 128,-1,129
 92 608 92 608 100 616 c 1,130,131
 106 617 106 617 111.5 618.5 c 128,-1,132
 117 620 117 620 125 621 c 1,133,134
 129 618 129 618 132.5 621 c 128,-1,135
 136 624 136 624 138 624 c 2,136,-1
 156 624 l 1,137,138
 165 626 165 626 166.5 625 c 128,-1,139
 168 624 168 624 170 624 c 2,140,-1
 193 630 l 1,141,142
 206 629 206 629 209.5 631 c 128,-1,143
 213 633 213 633 218 634 c 128,-1,144
 223 635 223 635 229 635 c 128,-1,145
 235 635 235 635 242 636 c 2,146,-1
 254 637 l 2,147,148
 266.375 638.125 266.375 638.125 272.6875 640.0625 c 128,-1,149
 279 642 279 642 282.5 642 c 128,-1,150
 286 642 286 642 292.5 645 c 128,-1,151
 299 648 299 648 304 648.5 c 128,-1,152
 309 649 309 649 315 651 c 128,-1,153
 321 653 321 653 326.5 658.5 c 128,-1,154
 332 664 332 664 337 666.5 c 128,-1,155
 342 669 342 669 346 668.5 c 128,-1,156
 350 668 350 668 352 672 c 1,157,158
 357 668 357 668 362.5 670.5 c 128,-1,159
 368 673 368 673 372 674 c 1,160,161
 380 672 380 672 381.5 663.5 c 128,-1,162
 383 655 383 655 388.5 643 c 128,-1,163
 394 631 394 631 394 622.5 c 2,164,-1
 393 591 l 1,165,166
 388 580 388 580 387 578 c 128,-1,167
 386 576 386 576 384.5 572 c 128,-1,168
 383 568 383 568 382.5 564.5 c 128,-1,169
 382 561 382 561 380 556.5 c 128,-1,170
 378 552 378 552 376.5 549 c 128,-1,171
 375 546 375 546 373 541.5 c 128,-1,172
 371 537 371 537 370.5 532 c 128,-1,173
 370 527 370 527 366 525 c 1,174,175
 363.2 508.2 363.2 508.2 359 504 c 1,176,177
 364 493 364 493 358.5 483 c 128,-1,178
 353 473 353 473 349.5 467 c 128,-1,179
 346 461 346 461 344.5 458 c 0,180,181
 338 445 338 445 332 442 c 1,182,183
 331 437 331 437 333 436.5 c 128,-1,184
 335 436 335 436 334 431 c 1,185,186
 329.6 428.8 329.6 428.8 323.3 419.4 c 128,-1,187
 317 410 317 410 315.5 408.5 c 128,-1,188
 314 407 314 407 314.5 403.5 c 0,189,190
 315.466666667 396.733333333 315.466666667 396.733333333 310 394 c 1,191,192
 309 389 309 389 311 388.5 c 128,-1,193
 313 388 313 388 311 383 c 1,194,195
 305 379 305 379 305.5 374 c 128,-1,196
 306 369 306 369 304 359 c 1,197,198
 297 348.5 297 348.5 297 342 c 1,199,200
 284 335 284 335 278.5 326.5 c 128,-1,201
 273 318 273 318 273.5 315.5 c 128,-1,202
 274 313 274 313 275 309 c 1,203,204
 268 298 268 298 268.5 296 c 128,-1,205
 269 294 269 294 264.5 285.5 c 128,-1,206
 260 277 260 277 257.5 271 c 128,-1,207
 255 265 255 265 248 261 c 1,0,1
82 488 m 1,208,-1
 81 468 l 2,209,210
 80 454 80 454 84 445.5 c 128,-1,211
 88 437 88 437 89 429 c 1,212,213
 121.712328767 420.821917808 121.712328767 420.821917808 135 466 c 1,214,215
 138 468 138 468 140 470 c 128,-1,216
 142 472 142 472 145 473 c 1,217,218
 146 481 146 481 148.5 487.5 c 128,-1,219
 151 494 151 494 152 501 c 1,220,221
 144 517 144 517 140 536 c 1,222,223
 129 535 129 535 121 540 c 128,-1,224
 113 545 113 545 108 544 c 0,225,226
 96.75 541.75 96.75 541.75 89 534 c 0,227,228
 88 532 88 532 87 527 c 128,-1,229
 86 522 86 522 84 518.5 c 0,230,231
 76.0408163265 504.571428571 76.0408163265 504.571428571 78.5204081633 498.785714286 c 128,-1,232
 81 493 81 493 82 488 c 1,208,-1
489 258 m 1,233,234
 494 250 494 250 499 242 c 128,-1,235
 504 234 504 234 502 225 c 128,-1,236
 500 216 500 216 499 213 c 128,-1,237
 498 210 498 210 496.5 201 c 128,-1,238
 495 192 495 192 494.5 180.5 c 128,-1,239
 494 169 494 169 484 165 c 1,240,241
 478.585365854 150.56097561 478.585365854 150.56097561 468 143 c 1,242,243
 458 139 458 139 455.5 136 c 128,-1,244
 453 133 453 133 450 131 c 128,-1,245
 447 129 447 129 443.5 130 c 128,-1,246
 440 131 440 131 439 127 c 1,247,248
 430 132 430 132 423 126.5 c 128,-1,249
 416 121 416 121 411 117 c 128,-1,250
 406 113 406 113 403 116 c 128,-1,251
 400 119 400 119 394 118 c 1,252,253
 389 120 389 120 387.5 115.5 c 128,-1,254
 386 111 386 111 381 112 c 1,255,256
 377 115 377 115 373 114.5 c 128,-1,257
 369 114 369 114 363 116 c 128,-1,258
 357 118 357 118 351.5 122.5 c 128,-1,259
 346 127 346 127 338 127 c 1,260,261
 336 128 336 128 334.5 131.5 c 128,-1,262
 333 135 333 135 327.5 141 c 128,-1,263
 322 147 322 147 320 152 c 128,-1,264
 318 157 318 157 314 159 c 1,265,266
 314 181 314 181 305 196 c 1,267,268
 300.939393939 219.01010101 300.939393939 219.01010101 309 262 c 1,269,270
 318 272 318 272 322 284.5 c 128,-1,271
 326 297 326 297 331 303 c 128,-1,272
 336 309 336 309 345 315 c 1,273,274
 360.857142857 333.5 360.857142857 333.5 374 345 c 1,275,-1
 386 345 l 1,276,277
 394 350 394 350 405 352.5 c 128,-1,278
 416 355 416 355 422 358.5 c 128,-1,279
 428 362 428 362 431.5 361 c 128,-1,280
 435 360 435 360 438.5 358 c 128,-1,281
 442 356 442 356 446 353.5 c 128,-1,282
 450 351 450 351 454 350 c 1,283,284
 461.114285714 323.914285714 461.114285714 323.914285714 473 315 c 1,285,286
 475 298 475 298 481 286.5 c 128,-1,287
 487 275 487 275 489 258 c 1,233,234
455 212 m 128,-1,289
 455 216 455 216 456 223.5 c 0,290,291
 458.473684211 242.052631579 458.473684211 242.052631579 453.236842105 252.526315789 c 0,292,293
 444.5 270 444.5 270 441 284 c 1,294,295
 426.428571429 281.571428571 426.428571429 281.571428571 422 286 c 1,296,297
 416.8 288.6 416.8 288.6 406.4 284.8 c 128,-1,298
 396 281 396 281 389.5 264 c 128,-1,299
 383 247 383 247 386 222.5 c 128,-1,300
 389 198 389 198 388 178 c 1,301,302
 396.918032787 164.62295082 396.918032787 164.62295082 412.959016393 166.31147541 c 0,303,304
 443 169.473684211 443 169.473684211 443 191 c 1,305,306
 445 194 445 194 449 195.5 c 128,-1,307
 453 197 453 197 452 202 c 1,308,288
 455 208 455 208 455 212 c 128,-1,289
EndSplineSet
EndChar

StartChar: ampersand
Encoding: 38 38 28
Width: 499
Flags: HW
LayerCount: 2
Fore
SplineSet
152 524 m 1,0,-1
 154 535 l 2,1,2
 154 540 154 540 153 551 c 128,-1,3
 152 562 152 562 153.5 567 c 128,-1,4
 155 572 155 572 159 576 c 128,-1,5
 163 580 163 580 165 584.5 c 128,-1,6
 167 589 167 589 167 594.5 c 128,-1,7
 167 600 167 600 170.5 605 c 128,-1,8
 174 610 174 610 181 613 c 128,-1,9
 188 616 188 616 195.5 619.5 c 128,-1,10
 203 623 203 623 208 625 c 128,-1,11
 213 627 213 627 217 629.5 c 0,12,13
 230.6 638 230.6 638 239.8 638 c 128,-1,14
 249 638 249 638 259 641.5 c 128,-1,15
 269 645 269 645 276.5 643.5 c 128,-1,16
 284 642 284 642 290 643 c 1,17,18
 292 641 292 641 294.5 640.5 c 0,19,20
 303.25 638.75 303.25 638.75 312 630 c 1,21,22
 323 624 323 624 329 618 c 1,23,24
 352.181818182 611.045454545 352.181818182 611.045454545 365 626 c 0,25,26
 367 628 367 628 367 631 c 128,-1,27
 367 634 367 634 370.5 636 c 128,-1,28
 374 638 374 638 378.5 638 c 2,29,-1
 384 638 l 1,30,31
 392 632 392 632 391 630.5 c 128,-1,32
 390 629 390 629 391 628 c 0,33,34
 398 607 398 607 386 595 c 1,35,36
 385 587 385 587 384 578.5 c 128,-1,37
 383 570 383 570 379 565 c 1,38,-1
 379 552 l 2,39,40
 379 544 379 544 375 539 c 1,41,42
 357 523 357 523 338 529 c 1,43,44
 336 537 336 537 333 539 c 1,45,-1
 333 551 l 2,46,47
 333 558 333 558 333.5 563 c 128,-1,48
 334 568 334 568 328.5 573 c 128,-1,49
 323 578 323 578 315 580.5 c 128,-1,50
 307 583 307 583 304 590 c 1,51,52
 292.882352941 591.588235294 292.882352941 591.588235294 283 599 c 1,53,54
 244.5 599 244.5 599 234 587 c 0,55,56
 231 583 231 583 230.5 576.5 c 128,-1,57
 230 570 230 570 225 566 c 1,58,59
 227 556 227 556 225.5 542 c 128,-1,60
 224 528 224 528 238 524 c 1,61,62
 243 513 243 513 243.5 511.5 c 128,-1,63
 244 510 244 510 248.5 505 c 128,-1,64
 253 500 253 500 256 496 c 128,-1,65
 259 492 259 492 263.5 487.5 c 128,-1,66
 268 483 268 483 273.5 480 c 128,-1,67
 279 477 279 477 283 473.5 c 128,-1,68
 287 470 287 470 288.5 466.5 c 128,-1,69
 290 463 290 463 295 461 c 1,70,71
 297 452 297 452 302.5 448 c 128,-1,72
 308 444 308 444 309 437.5 c 0,73,74
 311.209302326 423.139534884 311.209302326 423.139534884 302 417 c 1,75,76
 294 409 294 409 290.5 409.5 c 128,-1,77
 287 410 287 410 282 408 c 0,78,79
 260.461538462 399.384615385 260.461538462 399.384615385 250.730769231 404.692307692 c 128,-1,80
 241 410 241 410 236 412 c 1,81,82
 225 407 225 407 215 406.5 c 128,-1,83
 205 406 205 406 195.5 402.5 c 128,-1,84
 186 399 186 399 178 393.5 c 128,-1,85
 170 388 170 388 159 390 c 1,86,87
 145.368421053 380.263157895 145.368421053 380.263157895 135.184210526 367.631578947 c 128,-1,88
 125 355 125 355 125 351 c 128,-1,89
 125 347 125 347 123.5 342.5 c 128,-1,90
 122 338 122 338 120 335.5 c 128,-1,91
 118 333 118 333 116 329 c 1,92,93
 120 315 120 315 112.5 302 c 128,-1,94
 105 289 105 289 105 279.5 c 128,-1,95
 105 270 105 270 107.5 265.5 c 128,-1,96
 110 261 110 261 111 257 c 128,-1,97
 112 253 112 253 109 244 c 1,98,-1
 111 229 l 1,99,-1
 111 206 l 1,100,-1
 109 189 l 1,101,102
 110 186 110 186 112 182.5 c 128,-1,103
 114 179 114 179 116 174.5 c 128,-1,104
 118 170 118 170 119.5 166.5 c 128,-1,105
 121 163 121 163 123 159 c 128,-1,106
 125 155 125 155 126 150.5 c 128,-1,107
 127 146 127 146 131 140.5 c 128,-1,108
 135 135 135 135 137 131 c 1,109,110
 146 122 146 122 147.5 120 c 128,-1,111
 149 118 149 118 152.5 115 c 128,-1,112
 156 112 156 112 162 110 c 128,-1,113
 168 108 168 108 170 100 c 1,114,115
 181.304347826 97.7391304348 181.304347826 97.7391304348 184 91 c 1,116,117
 193 89 193 89 201 86 c 128,-1,118
 209 83 209 83 217 81 c 0,119,120
 237.4 75.9 237.4 75.9 249.2 77.45 c 128,-1,121
 261 79 261 79 261 83 c 128,-1,122
 261 87 261 87 266 88.5 c 128,-1,123
 271 90 271 90 276 91.5 c 128,-1,124
 281 93 281 93 283.5 95.5 c 0,125,126
 292 104 292 104 297 105 c 1,127,128
 299 111 299 111 303 115 c 128,-1,129
 307 119 307 119 310.5 123.5 c 128,-1,130
 314 128 314 128 317 132.5 c 128,-1,131
 320 137 320 137 327 139 c 1,132,133
 331 149 331 149 337 156.5 c 128,-1,134
 343 164 343 164 345.5 168.5 c 128,-1,135
 348 173 348 173 352 177 c 1,136,137
 356 188 356 188 361.5 197.5 c 128,-1,138
 367 207 367 207 372 216 c 1,139,140
 367 222.25 367 222.25 367 230.625 c 0,141,142
 367 249 367 249 361.5 254.5 c 128,-1,143
 356 260 356 260 352.5 268.5 c 0,144,145
 344.053892216 289.011976048 344.053892216 289.011976048 317 283 c 0,146,147
 297 278.555555556 297 278.555555556 291.5 279.777777778 c 128,-1,148
 286 281 286 281 280 279 c 128,-1,149
 274 277 274 277 269.5 271.5 c 128,-1,150
 265 266 265 266 257 261 c 1,151,152
 248.365853659 237.975609756 248.365853659 237.975609756 240 232 c 1,153,154
 241 225 241 225 237.5 219.5 c 128,-1,155
 234 214 234 214 235 202.5 c 128,-1,156
 236 191 236 191 234 189.5 c 128,-1,157
 232 188 232 188 232 184 c 1,158,159
 226 176 226 176 225 173 c 128,-1,160
 224 170 224 170 218 170 c 128,-1,161
 212 170 212 170 208.5 177 c 128,-1,162
 205 184 205 184 199 186 c 1,163,164
 193.785714286 206.857142857 193.785714286 206.857142857 187 215 c 1,165,166
 186 225 186 225 191 230 c 1,167,168
 187 232 187 232 190 237 c 128,-1,169
 193 242 193 242 191 247 c 1,170,-1
 202 261 l 1,171,-1
 202 275 l 1,172,173
 204 283 204 283 208.5 285.5 c 128,-1,174
 213 288 213 288 214 295 c 1,175,176
 220 297 220 297 224.5 301 c 128,-1,177
 229 305 229 305 236.5 309.5 c 128,-1,178
 244 314 244 314 254.5 318.5 c 128,-1,179
 265 323 265 323 273 331 c 1,180,181
 278 332 278 332 281 332 c 128,-1,182
 284 332 284 332 287.5 333 c 128,-1,183
 291 334 291 334 293.5 335.5 c 128,-1,184
 296 337 296 337 299 338 c 128,-1,185
 302 339 302 339 305.5 338.5 c 128,-1,186
 309 338 309 338 314.5 340 c 128,-1,187
 320 342 320 342 325 346 c 128,-1,188
 330 350 330 350 335.5 352 c 128,-1,189
 341 354 341 354 345 352.5 c 128,-1,190
 349 351 349 351 352.5 352 c 0,191,192
 370.538461538 357.153846154 370.538461538 357.153846154 375.769230769 361.076923077 c 128,-1,193
 381 365 381 365 388.5 368 c 128,-1,194
 396 371 396 371 398.5 373 c 128,-1,195
 401 375 401 375 404.5 376.5 c 128,-1,196
 408 378 408 378 413 377.5 c 128,-1,197
 418 377 418 377 421.5 379.5 c 128,-1,198
 425 382 425 382 428 387.5 c 128,-1,199
 431 393 431 393 435 401 c 128,-1,200
 439 409 439 409 443.5 415.5 c 128,-1,201
 448 422 448 422 463 419 c 1,202,203
 463 411 463 411 468.5 404 c 128,-1,204
 474 397 474 397 473.5 390.5 c 128,-1,205
 473 384 473 384 470.5 381 c 128,-1,206
 468 378 468 378 467 372.5 c 128,-1,207
 466 367 466 367 463.5 364 c 128,-1,208
 461 361 461 361 459 356 c 1,209,210
 445 351 445 351 436.5 344 c 128,-1,211
 428 337 428 337 413 335 c 1,212,-1
 403 326 l 2,213,214
 401 323 401 323 399 318.5 c 128,-1,215
 397 314 397 314 394.5 310 c 128,-1,216
 392 306 392 306 390 303 c 0,217,218
 382.408163265 291.612244898 382.408163265 291.612244898 396 275 c 1,219,220
 397 262 397 262 404 251 c 128,-1,221
 411 240 411 240 411 231.5 c 128,-1,222
 411 223 411 223 410 221 c 128,-1,223
 409 219 409 219 407.5 214.5 c 128,-1,224
 406 210 406 210 406.5 204 c 128,-1,225
 407 198 407 198 405.5 192 c 128,-1,226
 404 186 404 186 400 182.5 c 128,-1,227
 396 179 396 179 398 170 c 1,228,229
 393 167 393 167 391 162 c 128,-1,230
 389 157 389 157 386.5 151.5 c 0,231,232
 380.25 137.75 380.25 137.75 374 134 c 1,233,234
 368.351851852 112.537037037 368.351851852 112.537037037 351.5 100.5 c 0,235,236
 348 98 348 98 345 98 c 1,237,238
 341 69 341 69 311 62 c 1,239,240
 306 59 306 59 304 55 c 0,241,242
 300 47 300 47 287.5 47 c 128,-1,243
 275 47 275 47 257 38 c 1,244,245
 246 40 246 40 232 34 c 1,246,247
 221.444444444 38.2222222222 221.444444444 38.2222222222 209 40 c 1,248,-1
 195 38 l 1,249,-1
 182 41 l 2,250,251
 179 42 179 42 176 41.5 c 0,252,253
 160.032258065 38.8387096774 160.032258065 38.8387096774 137 52 c 1,254,255
 125 55 125 55 120 55 c 1,256,257
 108.082278481 73.7278481013 108.082278481 73.7278481013 74 76 c 1,258,259
 61.2 88.8 61.2 88.8 50 93 c 1,260,261
 36 101 36 101 34 110.5 c 128,-1,262
 32 120 32 120 27 127 c 1,263,264
 18 136 18 136 18.5 139 c 128,-1,265
 19 142 19 142 14.5 150 c 128,-1,266
 10 158 10 158 10 162.5 c 128,-1,267
 10 167 10 167 5 170 c 1,268,269
 7 176 7 176 4 181.5 c 128,-1,270
 1 187 1 187 0 194 c 1,271,272
 2 210 2 210 1 220.5 c 128,-1,273
 0 231 0 231 3.5 246.5 c 128,-1,274
 7 262 7 262 7.5 269 c 128,-1,275
 8 276 8 276 10 281.5 c 128,-1,276
 12 287 12 287 13 288.5 c 128,-1,277
 14 290 14 290 16 295 c 256,278,279
 18 300 18 300 20.5 304 c 128,-1,280
 23 308 23 308 25.5 314 c 128,-1,281
 28 320 28 320 29 324 c 128,-1,282
 30 328 30 328 33.5 332.5 c 0,283,284
 46.9696969697 349.818181818 46.9696969697 349.818181818 48 356 c 1,285,286
 56 360 56 360 60.5 368 c 128,-1,287
 65 376 65 376 70 383 c 1,288,289
 81 389 81 389 83.5 389 c 128,-1,290
 86 389 86 389 88 391 c 0,291,292
 94 400 94 400 95 399.5 c 128,-1,293
 96 399 96 399 98 400 c 0,294,295
 103 406 103 406 107 407 c 0,296,297
 117.666666667 409.666666667 117.666666667 409.666666667 125 417 c 1,298,299
 131 420 131 420 138 422 c 128,-1,300
 145 424 145 424 151 429 c 1,301,302
 156 429 156 429 159.5 430.5 c 128,-1,303
 163 432 163 432 168 433 c 1,304,305
 173 439 173 439 178.5 440.5 c 128,-1,306
 184 442 184 442 185.5 449.5 c 128,-1,307
 187 457 187 457 179 461.5 c 0,308,309
 170.179487179 466.461538462 170.179487179 466.461538462 165.58974359 480.230769231 c 128,-1,310
 161 494 161 494 158.5 498 c 128,-1,311
 156 502 156 502 157 504 c 128,-1,312
 158 506 158 506 158 510 c 1,313,-1
 152 524 l 1,0,-1
EndSplineSet
EndChar

StartChar: quotesingle
Encoding: 39 39 29
Width: 180
Flags: HW
LayerCount: 2
Fore
SplineSet
108 655.5 m 2,0,1
 108 650 108 650 108.5 637 c 2,2,-1
 109 624 l 2,3,4
 109 619 109 619 107.5 615.5 c 128,-1,5
 106 612 106 612 105 603 c 128,-1,6
 104 594 104 594 103.5 590 c 128,-1,7
 103 586 103 586 106 574 c 128,-1,8
 109 562 109 562 105.5 556 c 128,-1,9
 102 550 102 550 101 545 c 128,-1,10
 100 540 100 540 100 533.5 c 0,11,12
 100 518 100 518 94 506 c 1,13,14
 80.1 497.3125 80.1 497.3125 63 508 c 256,15,16
 55 513 55 513 52 519 c 128,-1,17
 49 525 49 525 44 537 c 1,18,19
 46 553 46 553 46 570.5 c 128,-1,20
 46 588 46 588 41 605 c 1,21,22
 44 608 44 608 44 613.5 c 2,23,-1
 44 624 l 1,24,-1
 43 665 l 1,25,-1
 45 677 l 1,26,-1
 43 695 l 2,27,28
 43 700 43 700 45 710.5 c 128,-1,29
 47 721 47 721 49 725.5 c 128,-1,30
 51 730 51 730 50 735 c 1,31,32
 53 740 53 740 58.5 742.5 c 128,-1,33
 64 745 64 745 69 750 c 0,34,35
 71 751 71 751 80 744 c 1,36,37
 89 739 89 739 96 727 c 1,38,39
 100 715 100 715 101 715 c 0,40,41
 105 715 105 715 105 697 c 1,42,43
 102.9 682.3 102.9 682.3 108 667 c 1,44,-1
 108 655.5 l 2,0,1
EndSplineSet
EndChar

StartChar: parenleft
Encoding: 40 40 30
Width: 323
Flags: HW
LayerCount: 2
Fore
SplineSet
5 395 m 1,0,-1
 8 409 l 2,1,2
 10 419 10 419 9.5 426.5 c 128,-1,3
 9 434 9 434 14 442 c 1,4,5
 16 448 16 448 16.5 461.5 c 128,-1,6
 17 475 17 475 19 483 c 128,-1,7
 21 491 21 491 24 497.5 c 128,-1,8
 27 504 27 504 29.5 512 c 0,9,10
 36.4285714286 534.171428571 36.4285714286 534.171428571 40.2142857143 542.085714286 c 128,-1,11
 44 550 44 550 47 555 c 0,12,13
 53 565 53 565 55 567.5 c 128,-1,14
 57 570 57 570 57 574 c 128,-1,15
 57 578 57 578 58.5 581 c 128,-1,16
 60 584 60 584 64.5 587 c 128,-1,17
 69 590 69 590 71.5 594 c 128,-1,18
 74 598 74 598 76.5 602 c 128,-1,19
 79 606 79 606 84 607 c 1,20,21
 86 612 86 612 88 617 c 128,-1,22
 90 622 90 622 91 628 c 1,23,24
 100 634 100 634 103 637 c 1,25,26
 108 647 108 647 110 647 c 128,-1,27
 112 647 112 647 115 655.5 c 128,-1,28
 118 664 118 664 121.5 667.5 c 128,-1,29
 125 671 125 671 131.5 679.5 c 128,-1,30
 138 688 138 688 152 699 c 1,31,32
 161 709 161 709 163.5 710 c 128,-1,33
 166 711 166 711 169 714 c 128,-1,34
 172 717 172 717 175 721 c 0,35,36
 182 730.333333333 182 730.333333333 188.5 734.666666667 c 128,-1,37
 195 739 195 739 197 744 c 1,38,39
 208.571428571 753 208.571428571 753 211.785714286 753 c 128,-1,40
 215 753 215 753 218 755 c 256,41,42
 221 757 221 757 225 759 c 128,-1,43
 229 761 229 761 232.5 764.5 c 128,-1,44
 236 768 236 768 242.5 767.5 c 128,-1,45
 249 767 249 767 257.5 768.5 c 128,-1,46
 266 770 266 770 275.5 775 c 128,-1,47
 285 780 285 780 295 776 c 1,48,49
 295 771 295 771 297.5 769 c 128,-1,50
 300 767 300 767 302 765 c 1,51,52
 303 757 303 757 300.5 752.5 c 128,-1,53
 298 748 298 748 296 740 c 1,54,55
 292 738 292 738 279 738 c 1,56,57
 271 736 271 736 267 731.5 c 128,-1,58
 263 727 263 727 255 725 c 1,59,60
 253 722 253 722 251.5 718 c 128,-1,61
 250 714 250 714 248 711 c 1,62,63
 243 709 243 709 240.5 704 c 128,-1,64
 238 699 238 699 232 697 c 1,65,66
 224.016129032 667.725806452 224.016129032 667.725806452 216 662 c 1,67,68
 216 651 216 651 211 644.5 c 128,-1,69
 206 638 206 638 209 630 c 1,70,71
 203 623 203 623 198 615.5 c 128,-1,72
 193 608 193 608 185 603 c 1,73,74
 183 592 183 592 176.5 584.5 c 128,-1,75
 170 577 170 577 164 569 c 1,76,77
 166.2 551.4 166.2 551.4 160.1 539.2 c 128,-1,78
 154 527 154 527 152.5 523.5 c 128,-1,79
 151 520 151 520 151 516.5 c 128,-1,80
 151 513 151 513 149.5 508.5 c 128,-1,81
 148 504 148 504 145 491 c 128,-1,82
 142 478 142 478 137 472 c 256,83,84
 130.75 464.5 130.75 464.5 128 459 c 1,85,86
 126 448 126 448 127 437 c 128,-1,87
 128 426 128 426 126 420 c 128,-1,88
 124 414 124 414 122 411 c 128,-1,89
 120 408 120 408 118 404.5 c 128,-1,90
 116 401 116 401 115 398 c 128,-1,91
 114 395 114 395 111 393 c 1,92,93
 113.074074074 387.814814815 113.074074074 387.814814815 112.037037037 376.407407407 c 0,94,95
 110.25 356.75 110.25 356.75 116 351 c 1,96,97
 114 346 114 346 112 341 c 128,-1,98
 110 336 110 336 109 328 c 128,-1,99
 108 320 108 320 110.5 311 c 128,-1,100
 113 302 113 302 111 294.5 c 128,-1,101
 109 287 109 287 113 286 c 128,-1,102
 117 285 117 285 116 280 c 1,103,104
 118 270 118 270 117 262 c 128,-1,105
 116 254 116 254 118 244 c 0,106,107
 121.666666667 225.666666667 121.666666667 225.666666667 130.833333333 207.333333333 c 128,-1,108
 140 189 140 189 141.5 185 c 128,-1,109
 143 181 143 181 142.5 173.5 c 128,-1,110
 142 166 142 166 144 160 c 1,111,112
 151 149 151 149 151 147.5 c 128,-1,113
 151 146 151 146 152.5 142.5 c 128,-1,114
 154 139 154 139 157.5 134 c 128,-1,115
 161 129 161 129 161 123 c 1,116,117
 168 115 168 115 172.5 104 c 128,-1,118
 177 93 177 93 182 83 c 1,119,120
 185 71 185 71 191.5 62 c 128,-1,121
 198 53 198 53 200 39 c 1,122,123
 203 35 203 35 208 33.5 c 128,-1,124
 213 32 213 32 214 25 c 1,125,-1
 226 22 l 1,126,127
 236 6 236 6 249.5 -3 c 128,-1,128
 263 -12 263 -12 276 -23 c 1,129,130
 280 -21.6666666667 280 -21.6666666667 280 -25.3333333333 c 128,-1,131
 280 -29 280 -29 280.5 -30.5 c 128,-1,132
 281 -32 281 -32 284 -31 c 1,133,134
 293 -46 293 -46 290.5 -51 c 128,-1,135
 288 -56 288 -56 284 -60 c 1,136,137
 276 -62 276 -62 269 -60 c 128,-1,138
 262 -58 262 -58 254 -60 c 1,139,140
 243 -52 243 -52 228 -48 c 1,141,142
 223 -42 223 -42 219.5 -34.5 c 128,-1,143
 216 -27 216 -27 207 -25 c 1,144,145
 206 -16 206 -16 200 -10 c 1,146,147
 190 -8 190 -8 183.5 -8 c 128,-1,148
 177 -8 177 -8 169.5 -4 c 128,-1,149
 162 0 162 0 159.5 4.5 c 128,-1,150
 157 9 157 9 149.5 17 c 128,-1,151
 142 25 142 25 141 27 c 1,152,153
 131 32 131 32 131 34.5 c 128,-1,154
 131 37 131 37 122.5 42.5 c 128,-1,155
 114 48 114 48 109 62 c 1,156,157
 102 69 102 69 98 76 c 128,-1,158
 94 83 94 83 86 87 c 1,159,160
 84.4489795918 107.163265306 84.4489795918 107.163265306 66 121 c 1,161,162
 64 133 64 133 59.5 134.5 c 128,-1,163
 55 136 55 136 53 142 c 128,-1,164
 51 148 51 148 50.5 155.5 c 128,-1,165
 50 163 50 163 48 169 c 0,166,167
 45 178 45 178 42 186.5 c 128,-1,168
 39 195 39 195 38.5 201.5 c 128,-1,169
 38 208 38 208 36 214 c 1,170,171
 31 221 31 221 31.5 224 c 128,-1,172
 32 227 32 227 29 231.5 c 128,-1,173
 26 236 26 236 27 238 c 128,-1,174
 28 240 28 240 24 247.5 c 128,-1,175
 20 255 20 255 20.5 261.5 c 128,-1,176
 21 268 21 268 15 273 c 1,177,-1
 15 309 l 2,178,179
 15 312 15 312 14 314.5 c 128,-1,180
 13 317 13 317 11.5 324 c 128,-1,181
 10 331 10 331 11 341 c 128,-1,182
 12 351 12 351 10.5 360.5 c 128,-1,183
 9 370 9 370 7 378.5 c 128,-1,184
 5 387 5 387 5 395 c 1,0,-1
EndSplineSet
EndChar

StartChar: parenright
Encoding: 41 41 31
Width: 333
Flags: HW
LayerCount: 2
Fore
SplineSet
201 292 m 1,0,-1
 199 315 l 2,1,2
 199 323 199 323 202.5 332.5 c 128,-1,3
 206 342 206 342 204.5 349 c 128,-1,4
 203 356 203 356 200 362 c 0,5,6
 193.333333333 375.333333333 193.333333333 375.333333333 195.166666667 382.666666667 c 128,-1,7
 197 390 197 390 197 395 c 256,8,9
 197 400 197 400 196 407 c 128,-1,10
 195 414 195 414 194 418.5 c 128,-1,11
 193 423 193 423 191.5 425.5 c 128,-1,12
 190 428 190 428 189 431.5 c 128,-1,13
 188 435 188 435 189 438.5 c 128,-1,14
 190 442 190 442 187 448 c 2,15,-1
 182 458 l 2,16,17
 180 462 180 462 177 465 c 1,18,19
 178 470 178 470 175.5 474 c 128,-1,20
 173 478 173 478 171.5 482.5 c 128,-1,21
 170 487 170 487 170 491.5 c 128,-1,22
 170 496 170 496 168 502 c 128,-1,23
 166 508 166 508 162 515 c 128,-1,24
 158 522 158 522 156 530 c 1,25,26
 148 537 148 537 145.5 546 c 128,-1,27
 143 555 143 555 139 564 c 128,-1,28
 135 573 135 573 132 579.5 c 128,-1,29
 129 586 129 586 129 598 c 1,30,31
 126 603 126 603 122.5 606.5 c 128,-1,32
 119 610 119 610 118 617 c 1,33,34
 113 616 113 616 112 622 c 128,-1,35
 111 628 111 628 108 630 c 0,36,37
 96 637 96 637 91.5 642.5 c 128,-1,38
 87 648 87 648 84.5 657.5 c 128,-1,39
 82 667 82 667 81.5 671 c 128,-1,40
 81 675 81 675 76 679 c 1,41,42
 65 684 65 684 60 689 c 128,-1,43
 55 694 55 694 50 699 c 1,44,45
 50 704 50 704 47.5 706 c 128,-1,46
 45 708 45 708 47 713 c 1,47,48
 37 727 37 727 27 742.5 c 128,-1,49
 17 758 17 758 22 782 c 1,50,51
 24 786 24 786 27 784.5 c 0,52,53
 32 782 32 782 38 785 c 128,-1,54
 44 788 44 788 48.5 788 c 128,-1,55
 53 788 53 788 58.5 786.5 c 128,-1,56
 64 785 64 785 75 785.5 c 128,-1,57
 86 786 86 786 90 781.5 c 128,-1,58
 94 777 94 777 98.5 772.5 c 128,-1,59
 103 768 103 768 107.5 764 c 128,-1,60
 112 760 112 760 113 755 c 1,61,62
 118 756 118 756 120 752 c 128,-1,63
 122 748 122 748 125 744 c 1,64,65
 128 742 128 742 131.5 740.5 c 0,66,67
 138.37037037 737.555555556 138.37037037 737.555555556 145.685185185 728.777777778 c 128,-1,68
 153 720 153 720 158 715 c 1,69,70
 163 714 163 714 165.5 709.5 c 128,-1,71
 168 705 168 705 173 703 c 1,72,73
 176 693 176 693 181.5 688 c 128,-1,74
 187 683 187 683 189 673 c 1,75,76
 192 669 192 669 195 667 c 128,-1,77
 198 665 198 665 201 662 c 1,78,79
 205 652 205 652 206 652 c 128,-1,80
 207 652 207 652 208.5 647.5 c 128,-1,81
 210 643 210 643 213.5 639 c 128,-1,82
 217 635 217 635 218.5 630 c 128,-1,83
 220 625 220 625 223 617.5 c 128,-1,84
 226 610 226 610 231.5 602 c 128,-1,85
 237 594 237 594 242 585.5 c 128,-1,86
 247 577 247 577 250 567.5 c 128,-1,87
 253 558 253 558 259.5 543 c 128,-1,88
 266 528 266 528 271 508 c 128,-1,89
 276 488 276 488 286 468 c 1,90,91
 286 451 286 451 290 436.5 c 128,-1,92
 294 422 294 422 295 410 c 128,-1,93
 296 398 296 398 295 389.5 c 128,-1,94
 294 381 294 381 297 373 c 1,95,96
 292 360 292 360 291.5 350.5 c 128,-1,97
 291 341 291 341 293 338 c 128,-1,98
 295 335 295 335 294 327 c 128,-1,99
 293 319 293 319 293.5 316 c 128,-1,100
 294 313 294 313 292 307 c 128,-1,101
 290 301 290 301 291.5 297.5 c 128,-1,102
 293 294 293 294 290 287 c 128,-1,103
 287 280 287 280 287 276.5 c 128,-1,104
 287 273 287 273 286 270 c 128,-1,105
 285 267 285 267 283 264.5 c 128,-1,106
 281 262 281 262 279 257 c 128,-1,107
 277 252 277 252 277 243 c 0,108,109
 277 226 277 226 271 214 c 1,110,111
 269 205 269 205 268 200 c 128,-1,112
 267 195 267 195 263 188 c 1,113,114
 259 184 259 184 258.5 180.5 c 128,-1,115
 258 177 258 177 254 178 c 1,116,117
 252 166 252 166 246.5 157.5 c 128,-1,118
 241 149 241 149 237.5 141 c 128,-1,119
 234 133 234 133 231.5 132 c 128,-1,120
 229 131 229 131 227 127.5 c 128,-1,121
 225 124 225 124 224 120 c 128,-1,122
 223 116 223 116 220.5 109.5 c 128,-1,123
 218 103 218 103 215 95.5 c 128,-1,124
 212 88 212 88 202 85 c 1,125,126
 203 77 203 77 197.5 75 c 128,-1,127
 192 73 192 73 187 69 c 1,128,129
 183 61 183 61 180 53.5 c 128,-1,130
 177 46 177 46 170 41 c 0,131,132
 158 34 158 34 155.5 30 c 128,-1,133
 153 26 153 26 148 24 c 1,134,135
 141 18 141 18 133.5 15 c 128,-1,136
 126 12 126 12 120 8 c 128,-1,137
 114 4 114 4 111 0 c 128,-1,138
 108 -4 108 -4 103 -9 c 1,139,140
 89 -14 89 -14 78.5 -24 c 128,-1,141
 68 -34 68 -34 52 -37 c 1,142,143
 44 -33 44 -33 38.5 -22.5 c 128,-1,144
 33 -12 33 -12 35.5 -3 c 128,-1,145
 38 6 38 6 42.5 8 c 128,-1,146
 47 10 47 10 52 12.5 c 128,-1,147
 57 15 57 15 60.5 19.5 c 128,-1,148
 64 24 64 24 72 24 c 1,149,150
 84 36 84 36 90 40 c 128,-1,151
 96 44 96 44 100 47.5 c 128,-1,152
 104 51 104 51 105 55 c 128,-1,153
 106 59 106 59 108 62 c 1,154,155
 123 73 123 73 131.5 90 c 128,-1,156
 140 107 140 107 153 121 c 1,157,-1
 156 142 l 1,158,-1
 165 160 l 2,159,160
 167 165 167 165 168 169.5 c 128,-1,161
 169 174 169 174 173 176 c 1,162,163
 173 190 173 190 178.5 199 c 128,-1,164
 184 208 184 208 186.5 217 c 128,-1,165
 189 226 189 226 190.5 233.5 c 128,-1,166
 192 241 192 241 194.5 251 c 128,-1,167
 197 261 197 261 196.5 266.5 c 128,-1,168
 196 272 196 272 197 277.5 c 128,-1,169
 198 283 198 283 201 292 c 1,0,-1
EndSplineSet
EndChar

StartChar: asterisk
Encoding: 42 42 32
Width: 389
Flags: HW
LayerCount: 2
Fore
SplineSet
207 605 m 1,0,-1
 209 594 l 2,1,2
 209 591 209 591 207.5 588 c 128,-1,3
 206 585 206 585 207 581.5 c 128,-1,4
 208 578 208 578 210 575.5 c 128,-1,5
 212 573 212 573 214 570 c 1,6,7
 219 571 219 571 222.5 575 c 128,-1,8
 226 579 226 579 233 584.5 c 128,-1,9
 240 590 240 590 250.5 599.5 c 128,-1,10
 261 609 261 609 272 617 c 1,11,12
 274 621 274 621 277 623 c 0,13,14
 281.714285714 626.142857143 281.714285714 626.142857143 284.857142857 630.071428571 c 128,-1,15
 288 634 288 634 293 634 c 1,16,17
 294 636 294 636 296 638 c 128,-1,18
 298 640 298 640 298 644 c 1,19,20
 305 646 305 646 310.5 652 c 128,-1,21
 316 658 316 658 322.5 663 c 0,22,23
 338.454545455 675.272727273 338.454545455 675.272727273 353 668 c 1,24,25
 351 661 351 661 352 656.5 c 128,-1,26
 353 652 353 652 351.5 648 c 128,-1,27
 350 644 350 644 346 642 c 128,-1,28
 342 640 342 640 343 635 c 1,29,30
 330 632 330 632 325 620 c 1,31,32
 319 618 319 618 316 613.5 c 128,-1,33
 313 609 313 609 307 608 c 1,34,35
 302 598 302 598 292.5 592 c 128,-1,36
 283 586 283 586 279 574 c 1,37,38
 260 570 260 570 259 551 c 1,39,40
 232.146496815 541.522292994 232.146496815 541.522292994 221 517 c 1,41,42
 220 512 220 512 224 509.5 c 128,-1,43
 228 507 228 507 232 500 c 128,-1,44
 236 493 236 493 242 489.5 c 128,-1,45
 248 486 248 486 250 478 c 1,46,47
 259 476 259 476 263.5 470.5 c 128,-1,48
 268 465 268 465 276 462 c 1,49,50
 278 457 278 457 280 453.5 c 128,-1,51
 282 450 282 450 284 445 c 1,52,53
 304 436 304 436 314 417 c 1,54,55
 327 407 327 407 336.5 394.5 c 128,-1,56
 346 382 346 382 357 371 c 1,57,58
 359 367 359 367 358.5 361.5 c 128,-1,59
 358 356 358 356 358 351 c 1,60,61
 353 346 353 346 349.5 342 c 128,-1,62
 346 338 346 338 341.5 336.5 c 128,-1,63
 337 335 337 335 331.5 337 c 128,-1,64
 326 339 326 339 319 340 c 1,65,66
 315 349 315 349 308.5 354.5 c 128,-1,67
 302 360 302 360 300 371 c 1,68,69
 289 382 289 382 279 387 c 1,70,71
 276.782608696 395.869565217 276.782608696 395.869565217 270.391304348 400.434782609 c 128,-1,72
 264 405 264 405 260.5 408 c 128,-1,73
 257 411 257 411 254 414 c 128,-1,74
 251 417 251 417 246 417 c 1,75,76
 244 422 244 422 239.5 425 c 128,-1,77
 235 428 235 428 230 432.5 c 128,-1,78
 225 437 225 437 220.5 442 c 128,-1,79
 216 447 216 447 210 445 c 0,80,81
 201 443 201 443 201.5 433 c 128,-1,82
 202 423 202 423 202 419.5 c 2,83,-1
 202 404 l 1,84,85
 198 391 198 391 199 388 c 128,-1,86
 200 385 200 385 197.5 376.5 c 128,-1,87
 195 368 195 368 196.5 362.5 c 128,-1,88
 198 357 198 357 198 349.5 c 128,-1,89
 198 342 198 342 193.5 334 c 128,-1,90
 189 326 189 326 193 318 c 1,91,92
 187 314 187 314 182 308 c 128,-1,93
 177 302 177 302 169 301 c 256,94,95
 157 299.5 157 299.5 142 317 c 1,96,97
 140 322 140 322 142 325 c 128,-1,98
 144 328 144 328 144 333 c 2,99,-1
 142 344 l 1,100,-1
 150 376 l 1,101,-1
 147 387 l 1,102,103
 150 402 150 402 148.5 406.5 c 128,-1,104
 147 411 147 411 147.5 415 c 128,-1,105
 148 419 148 419 149.5 421 c 128,-1,106
 151 423 151 423 152 428 c 128,-1,107
 153 433 153 433 152.5 439.5 c 128,-1,108
 152 446 152 446 152 453 c 1,109,110
 147 456 147 456 145.5 452.5 c 128,-1,111
 144 449 144 449 140 447 c 1,112,113
 125 447 125 447 121 442.5 c 128,-1,114
 117 438 117 438 111 435 c 0,115,116
 109 433 109 433 108 430.5 c 128,-1,117
 107 428 107 428 97 422.5 c 128,-1,118
 87 417 87 417 79 408.5 c 128,-1,119
 71 400 71 400 58 395 c 1,120,121
 53 386 53 386 46 380 c 1,122,123
 34 380 34 380 27 387 c 1,124,125
 25 395 25 395 28.5 399 c 128,-1,126
 32 403 32 403 30 412 c 1,127,128
 37 417 37 417 41 424 c 128,-1,129
 45 431 45 431 55 433 c 1,130,131
 59 439 59 439 63 445 c 1,132,133
 77 457 77 457 85.5 460.5 c 128,-1,134
 94 464 94 464 96 474 c 1,135,136
 103 473 103 473 105 478.5 c 128,-1,137
 107 484 107 484 116 483 c 1,138,139
 130.358974359 505.974358974 130.358974359 505.974358974 140 512 c 1,140,141
 131 522 131 522 126.5 526.5 c 128,-1,142
 122 531 122 531 114 531 c 1,143,144
 108 543 108 543 96.5 547.5 c 128,-1,145
 85 552 85 552 80 563 c 1,146,147
 75 564 75 564 73 566.5 c 128,-1,148
 71 569 71 569 66 570 c 1,149,150
 64 573 64 573 63 576 c 128,-1,151
 62 579 62 579 60 582 c 1,152,153
 47.6923076923 589.692307692 47.6923076923 589.692307692 35 610 c 1,154,155
 28 613 28 613 24.5 620.5 c 128,-1,156
 21 628 21 628 13 632 c 1,157,158
 12 643 12 643 11 644 c 128,-1,159
 10 645 10 645 10 648.25 c 128,-1,160
 10 651.5 10 651.5 15 664 c 1,161,-1
 27 660 l 2,162,163
 31 659 31 659 35 661.5 c 128,-1,164
 39 664 39 664 44 660 c 1,165,166
 52 650 52 650 56.5 646 c 128,-1,167
 61 642 61 642 63 637 c 1,168,169
 74 628 74 628 83.5 614.5 c 128,-1,170
 93 601 93 601 103 595 c 128,-1,171
 113 589 113 589 118 578 c 1,172,173
 124 578 124 578 128.5 572.5 c 128,-1,174
 133 567 133 567 138.5 567 c 128,-1,175
 144 567 144 567 147 569.5 c 128,-1,176
 150 572 150 572 155 574 c 1,177,178
 153 579 153 579 155 582.5 c 0,179,180
 159 589.5 159 589.5 159 616.25 c 128,-1,181
 159 643 159 643 158 651.5 c 128,-1,182
 157 660 157 660 162 668 c 1,183,184
 159 679 159 679 163.5 692 c 128,-1,185
 168 705 168 705 167.5 707.5 c 128,-1,186
 167 710 167 710 168.5 713.5 c 128,-1,187
 170 717 170 717 173.5 719.5 c 128,-1,188
 177 722 177 722 178 726 c 1,189,190
 196 728 196 728 205 723 c 1,191,192
 214 712 214 712 214 694 c 128,-1,193
 214 676 214 676 207 664 c 1,194,195
 210 640 210 640 210 634 c 2,196,-1
 207 605 l 1,0,-1
EndSplineSet
EndChar

StartChar: plus
Encoding: 43 43 33
Width: 496
Flags: HW
LayerCount: 2
Fore
SplineSet
180 470 m 1,0,-1
 177 485 l 1,1,-1
 177 498 l 2,2,3
 177 505 177 505 177.5 510 c 128,-1,4
 178 515 178 515 178 519.5 c 0,5,6
 178 537.8 178 537.8 195 548 c 1,7,8
 203 548 203 548 210.5 549 c 0,9,10
 227 551.2 227 551.2 227 541 c 0,11,12
 227 532.4 227 532.4 231.5 529.7 c 128,-1,13
 236 527 236 527 238 520.5 c 128,-1,14
 240 514 240 514 239 507.5 c 128,-1,15
 238 501 238 501 239 493.5 c 0,16,17
 241 478.5 241 478.5 240.3 469.65 c 128,-1,18
 239.6 460.8 239.6 460.8 243 454 c 1,19,20
 240.833333333 447.5 240.833333333 447.5 244 438 c 1,21,-1
 241 422 l 1,22,-1
 241 407 l 1,23,-1
 238 391 l 1,24,25
 239 381 239 381 243 370.5 c 128,-1,26
 247 360 247 360 248 346 c 1,27,28
 256 338 256 338 264 340.5 c 128,-1,29
 272 343 272 343 284 344.5 c 128,-1,30
 296 346 296 346 310 346 c 128,-1,31
 324 346 324 346 336 348.5 c 128,-1,32
 348 351 348 351 349 350 c 128,-1,33
 350 349 350 349 353 349.5 c 128,-1,34
 356 350 356 350 358.5 351 c 128,-1,35
 361 352 361 352 368 353.5 c 128,-1,36
 375 355 375 355 387.5 356 c 128,-1,37
 400 357 400 357 410 359 c 128,-1,38
 420 361 420 361 426.5 363 c 128,-1,39
 433 365 433 365 438.5 366.5 c 128,-1,40
 444 368 444 368 447.5 369 c 128,-1,41
 451 370 451 370 455 369.5 c 128,-1,42
 459 369 459 369 460.5 367 c 128,-1,43
 462 365 462 365 467 366 c 1,44,45
 468 360 468 360 470 354.5 c 128,-1,46
 472 349 472 349 470 343.5 c 0,47,48
 465.6 331.4 465.6 331.4 440 325 c 0,49,50
 429.5 322 429.5 322 415.25 322 c 128,-1,51
 401 322 401 322 396 323 c 128,-1,52
 391 324 391 324 385.5 323 c 128,-1,53
 380 322 380 322 376 318.5 c 128,-1,54
 372 315 372 315 364 313 c 1,55,-1
 343 311 l 2,56,57
 336.5 311 336.5 311 326.25 307 c 128,-1,58
 316 303 316 303 312.5 303.5 c 128,-1,59
 309 304 309 304 301.5 301 c 128,-1,60
 294 298 294 298 286.25 298 c 128,-1,61
 278.5 298 278.5 298 247 280 c 1,62,-1
 249 244 l 1,63,64
 246 232 246 232 246 228 c 2,65,-1
 251 191 l 2,66,67
 251 186 251 186 249.5 182 c 128,-1,68
 248 178 248 178 252 174 c 1,69,70
 249 165 249 165 245 157 c 1,71,-1
 245 133 l 2,72,73
 245 125 245 125 243 119 c 1,74,75
 238 114 238 114 235.5 115 c 128,-1,76
 233 116 233 116 230 114.5 c 128,-1,77
 227 113 227 113 220 106.5 c 128,-1,78
 213 100 213 100 205.5 104 c 128,-1,79
 198 108 198 108 197 114.5 c 128,-1,80
 196 121 196 121 194 128 c 1,81,82
 190 135 190 135 190 147.5 c 128,-1,83
 190 160 190 160 193 167 c 128,-1,84
 196 174 196 174 195 181 c 1,85,-1
 190 198 l 1,86,87
 190 202 190 202 191.5 206 c 128,-1,88
 193 210 193 210 191 213 c 1,89,90
 190 221 190 221 187.5 227 c 128,-1,91
 185 233 185 233 184.5 240.5 c 128,-1,92
 184 248 184 248 184.5 255.5 c 128,-1,93
 185 263 185 263 184.5 269.5 c 0,94,95
 183.342105263 284.552631579 183.342105263 284.552631579 173 288 c 0,96,97
 169 290 169 290 167.5 292.5 c 128,-1,98
 166 295 166 295 163 297 c 1,99,100
 154 297 154 297 144 302 c 1,101,102
 140 301 140 301 137.5 299 c 128,-1,103
 135 297 135 297 127.5 295.5 c 128,-1,104
 120 294 120 294 120 293 c 128,-1,105
 120 292 120 292 116.5 291 c 128,-1,106
 113 290 113 290 108.5 291 c 128,-1,107
 104 292 104 292 99 292 c 2,108,-1
 87 290 l 2,109,110
 83 290 83 290 80.5 291 c 0,111,112
 77.6774193548 292.129032258 77.6774193548 292.129032258 70.8387096774 289.564516129 c 128,-1,113
 64 287 64 287 56.5 286.5 c 128,-1,114
 49 286 49 286 38.5 288 c 128,-1,115
 28 290 28 290 17 288 c 1,116,117
 8.93103448276 301.448275862 8.93103448276 301.448275862 10 310 c 1,118,119
 15 315 15 315 22 314.5 c 128,-1,120
 29 314 29 314 34.5 315 c 0,121,122
 44.5833333333 316.833333333 44.5833333333 316.833333333 55 321 c 0,123,124
 57 321 57 321 61.5 319.5 c 128,-1,125
 66 318 66 318 72 319.5 c 128,-1,126
 78 321 78 321 86.5 323.5 c 128,-1,127
 95 326 95 326 105 327 c 1,128,-1
 119 327 l 1,129,130
 132 326 132 326 135.5 328 c 128,-1,131
 139 330 139 330 145.5 330.5 c 128,-1,132
 152 331 152 331 161 329 c 128,-1,133
 170 327 170 327 178 334 c 1,134,135
 182 344 182 344 180 353.5 c 128,-1,136
 178 363 178 363 182 374 c 1,137,138
 177 383 177 383 178.5 392.5 c 128,-1,139
 180 402 180 402 175 413 c 1,140,141
 178 419 178 419 177.5 426 c 128,-1,142
 177 433 177 433 177 441 c 128,-1,143
 177 449 177 449 180 470 c 1,0,-1
EndSplineSet
EndChar

StartChar: comma
Encoding: 44 44 34
Width: 176
Flags: HW
LayerCount: 2
Fore
SplineSet
43 -67 m 1,0,1
 44 -59 44 -59 44.5 -53 c 128,-1,2
 45 -47 45 -47 47 -41 c 1,3,4
 50 -39 50 -39 52.5 -38 c 128,-1,5
 55 -37 55 -37 58 -35 c 1,6,7
 62.8 -23 62.8 -23 70 -14 c 256,8,9
 74 -9 74 -9 74 -6.5 c 128,-1,10
 74 -4 74 -4 75 -2 c 0,11,12
 80 6 80 6 84.5 14 c 0,13,14
 95.12 32.88 95.12 32.88 76 52 c 1,15,16
 37.6 36 37.6 36 25 54 c 0,17,18
 21 58 21 58 23.5 61 c 128,-1,19
 26 64 26 64 26 68 c 128,-1,20
 26 72 26 72 24 74.5 c 128,-1,21
 22 77 22 77 20 80 c 1,22,23
 18.8709677419 89.0322580645 18.8709677419 89.0322580645 27 108 c 1,24,25
 50 129 50 129 79 118 c 1,26,27
 84 120 84 120 94 122 c 1,28,29
 100 118 100 118 105.5 113 c 128,-1,30
 111 108 111 108 117 104 c 1,31,32
 123.461538462 84.6153846154 123.461538462 84.6153846154 130 82 c 1,33,34
 130 71 130 71 132 59 c 128,-1,35
 134 47 134 47 134.5 35.5 c 0,36,37
 135.704225352 7.80281690141 135.704225352 7.80281690141 121 -2 c 1,38,39
 121 -7 121 -7 119 -10 c 128,-1,40
 117 -13 117 -13 118 -18 c 1,41,42
 108.319148936 -23.8085106383 108.319148936 -23.8085106383 103.659574468 -33.9042553191 c 2,43,-1
 96 -50.5 l 2,44,45
 93 -57 93 -57 89 -62 c 1,46,47
 85 -64 85 -64 80 -69 c 1,48,49
 57 -79 57 -79 43 -67 c 1,0,1
EndSplineSet
EndChar

StartChar: hyphen
Encoding: 45 45 35
Width: 318
Flags: HW
LayerCount: 2
Fore
SplineSet
164.25 252 m 128,-1,1
 159.5 251 159.5 251 142 244 c 1,2,3
 135 246 135 246 130.5 244 c 128,-1,4
 126 242 126 242 120 240 c 1,5,6
 109 242 109 242 97 246 c 128,-1,7
 85 250 85 250 77 242 c 1,8,9
 72 241 72 241 67 241.5 c 0,10,11
 57 242.5 57 242.5 51.5 239.75 c 128,-1,12
 46 237 46 237 42 237.5 c 128,-1,13
 38 238 38 238 34.5 240 c 0,14,15
 24 246 24 246 18 246 c 128,-1,16
 12 246 12 246 10 251 c 1,17,18
 10 262.666666667 10 262.666666667 18 276 c 1,19,20
 35 279 35 279 52.5 281 c 128,-1,21
 70 283 70 283 85 286 c 1,22,23
 92 286 92 286 97 283 c 1,24,25
 109 291 109 291 123 288 c 128,-1,26
 137 285 137 285 149.5 287 c 128,-1,27
 162 289 162 289 172.5 293.5 c 128,-1,28
 183 298 183 298 195 300 c 128,-1,29
 207 302 207 302 218 301 c 128,-1,30
 229 300 229 300 242 303 c 128,-1,31
 255 306 255 306 263.5 303.5 c 128,-1,32
 272 301 272 301 282 303 c 1,33,34
 288.615384615 289.769230769 288.615384615 289.769230769 287 272 c 1,35,36
 278 261 278 261 269 256 c 1,37,38
 239 263.5 239 263.5 218 253 c 0,39,40
 199.459459459 243.72972973 199.459459459 243.72972973 184.22972973 248.364864865 c 128,-1,0
 169 253 169 253 164.25 252 c 128,-1,1
EndSplineSet
EndChar

StartChar: period
Encoding: 46 46 36
Width: 169
Flags: HW
LayerCount: 2
Fore
SplineSet
58 137 m 1,0,1
 65 136 65 136 67.5 132.5 c 128,-1,2
 70 129 70 129 74 126 c 1,3,4
 83 130 83 130 87 123 c 1,5,6
 100 121 100 121 104.5 117 c 128,-1,7
 109 113 109 113 115.5 106.5 c 128,-1,8
 122 100 122 100 124.5 93.5 c 128,-1,9
 127 87 127 87 127.5 85 c 0,10,11
 128.75 80 128.75 80 126 69 c 1,12,13
 115.888888889 50.2222222222 115.888888889 50.2222222222 114 37 c 1,14,15
 109 36 109 36 106.5 33 c 128,-1,16
 104 30 104 30 101 28 c 0,17,18
 84 22 84 22 71 28 c 128,-1,19
 58 34 58 34 57.5 36 c 0,20,21
 56.4 40.4 56.4 40.4 49.2 41.2 c 128,-1,22
 42 42 42 42 38 44 c 1,23,24
 36 50 36 50 31 56.5 c 128,-1,25
 26 63 26 63 30 71 c 1,26,27
 27 77 27 77 20 80 c 1,28,29
 26 90 26 90 27.5 98 c 128,-1,30
 29 106 29 106 34.5 112.5 c 128,-1,31
 40 119 40 119 45.5 125.5 c 128,-1,32
 51 132 51 132 58 137 c 1,0,1
EndSplineSet
EndChar

StartChar: slash
Encoding: 47 47 37
Width: 260
Flags: HW
LayerCount: 2
Fore
SplineSet
119 553 m 1,0,1
 127.788732394 563.253521127 127.788732394 563.253521127 128.894366197 580.126760563 c 128,-1,2
 130 597 130 597 133 600 c 128,-1,3
 136 603 136 603 138 608 c 1,4,5
 137 627 137 627 144.5 644 c 128,-1,6
 152 661 152 661 155 680 c 1,7,8
 161 681 161 681 166.5 683.5 c 128,-1,9
 172 686 172 686 177.5 687.5 c 0,10,11
 190.071428571 690.928571429 190.071428571 690.928571429 200 681 c 1,12,13
 203 669 203 669 204.5 665.5 c 0,14,15
 210.5 651.5 210.5 651.5 208.75 639.25 c 128,-1,16
 207 627 207 627 209 618 c 1,17,18
 204 611 204 611 203 602 c 128,-1,19
 202 593 202 593 200.5 574 c 128,-1,20
 199 555 199 555 187 542 c 1,21,22
 188.214285714 529.857142857 188.214285714 529.857142857 185.107142857 517.928571429 c 128,-1,23
 182 506 182 506 182.5 503 c 128,-1,24
 183 500 183 500 181.5 496 c 128,-1,25
 180 492 180 492 177 486.5 c 128,-1,26
 174 481 174 481 172 475 c 1,27,28
 173 467 173 467 171.5 466 c 128,-1,29
 170 465 170 465 169 463 c 128,-1,30
 168 461 168 461 169 457 c 128,-1,31
 170 453 170 453 168.5 450.5 c 128,-1,32
 167 448 167 448 164 444.5 c 128,-1,33
 161 441 161 441 158.5 432.5 c 128,-1,34
 156 424 156 424 157.5 409 c 128,-1,35
 159 394 159 394 154.5 385.5 c 128,-1,36
 150 377 150 377 150.5 375.5 c 128,-1,37
 151 374 151 374 151 372 c 1,38,39
 145 365 145 365 145.5 361 c 128,-1,40
 146 357 146 357 145.5 354.5 c 128,-1,41
 145 352 145 352 142.5 349.5 c 128,-1,42
 140 347 140 347 142 342 c 1,43,44
 139 339 139 339 137 335 c 128,-1,45
 135 331 135 331 132 327 c 1,46,47
 131 322 131 322 133 320 c 128,-1,48
 135 318 135 318 135 314 c 1,49,50
 132 309 132 309 130.5 302.5 c 128,-1,51
 129 296 129 296 125 291 c 1,52,53
 124 285 124 285 126 282.5 c 128,-1,54
 128 280 128 280 128 273 c 1,55,56
 123.25 258.75 123.25 258.75 118 250 c 1,57,58
 123.210526316 234.368421053 123.210526316 234.368421053 111 213 c 1,59,60
 112 191 112 191 104.5 174.5 c 128,-1,61
 97 158 97 158 93 147 c 0,62,63
 86.3333333333 128.666666667 86.3333333333 128.666666667 84 124 c 256,64,65
 82 120 82 120 82.5 115.5 c 128,-1,66
 83 111 83 111 81.5 106.5 c 128,-1,67
 80 102 80 102 77.5 98.5 c 128,-1,68
 75 95 75 95 73 90 c 128,-1,69
 71 85 71 85 70 82 c 128,-1,70
 69 79 69 79 67 77 c 128,-1,71
 65 75 65 75 61.5 73.5 c 2,72,-1
 51 69 l 258,73,74
 44 66 44 66 36.5 63.5 c 128,-1,75
 29 61 29 61 23 64 c 128,-1,76
 17 67 17 67 11.5 75.5 c 128,-1,77
 6 84 6 84 5 89.5 c 128,-1,78
 4 95 4 95 6 98.5 c 128,-1,79
 8 102 8 102 10 110.5 c 128,-1,80
 12 119 12 119 14 125 c 2,81,-1
 18.5 138.5 l 2,82,83
 21 146 21 146 26 153 c 1,84,85
 24 162 24 162 27 166.5 c 128,-1,86
 30 171 30 171 32 176 c 1,87,88
 37.4727272727 230.727272727 37.4727272727 230.727272727 46 249 c 1,89,90
 45 262 45 262 51 268 c 1,91,92
 51 293.666666667 51 293.666666667 59 314.833333333 c 0,93,94
 70.4794069193 345.205930807 70.4794069193 345.205930807 69.2397034596 355.602965404 c 128,-1,95
 68 366 68 366 72.5 367 c 128,-1,96
 77 368 77 368 79 380.5 c 128,-1,97
 81 393 81 393 86.5 415 c 128,-1,98
 92 437 92 437 95.5 450.5 c 128,-1,99
 99 464 99 464 101 473 c 128,-1,100
 103 482 103 482 103.5 485.5 c 128,-1,101
 104 489 104 489 105 493.5 c 128,-1,102
 106 498 106 498 109 505 c 128,-1,103
 112 512 112 512 112 515.5 c 128,-1,104
 112 519 112 519 113.5 524.5 c 128,-1,105
 115 530 115 530 118 537.5 c 128,-1,106
 121 545 121 545 119 553 c 1,0,1
EndSplineSet
EndChar

StartChar: zero
Encoding: 48 48 38
Width: 407
Flags: HW
LayerCount: 2
Fore
SplineSet
17.5 357 m 128,-1,1
 14 363 14 363 13.5 369.5 c 128,-1,2
 13 376 13 376 15 386 c 1,3,4
 15 396 15 396 16.5 397.5 c 128,-1,5
 18 399 18 399 18.5 402.5 c 128,-1,6
 19 406 19 406 17.5 411 c 128,-1,7
 16 416 16 416 17.5 424 c 128,-1,8
 19 432 19 432 25 440 c 128,-1,9
 31 448 31 448 30 457 c 1,10,11
 34 459 34 459 35.5 463.5 c 128,-1,12
 37 468 37 468 41 474.5 c 128,-1,13
 45 481 45 481 44.5 483 c 128,-1,14
 44 485 44 485 50.5 492.5 c 0,15,16
 65.9101123596 510.280898876 65.9101123596 510.280898876 67 519 c 1,17,18
 75 519 75 519 77.5 523.5 c 128,-1,19
 80 528 80 528 83 532 c 1,20,21
 87 532 87 532 89.5 534 c 128,-1,22
 92 536 92 536 96 538 c 128,-1,23
 100 540 100 540 104 542.5 c 128,-1,24
 108 545 108 545 114.5 546.5 c 128,-1,25
 121 548 121 548 126 551.5 c 128,-1,26
 131 555 131 555 136 557 c 128,-1,27
 141 559 141 559 145.5 559 c 128,-1,28
 150 559 150 559 155.5 561 c 0,29,30
 174.75 568 174.75 568 183.875 568 c 128,-1,31
 193 568 193 568 200.5 565 c 128,-1,32
 208 562 208 562 215 561 c 128,-1,33
 222 560 222 560 228 560.5 c 128,-1,34
 234 561 234 561 240.5 560 c 128,-1,35
 247 559 247 559 253 556.5 c 128,-1,36
 259 554 259 554 267 557 c 1,37,38
 269 553 269 553 272 554 c 128,-1,39
 275 555 275 555 277.5 554 c 0,40,41
 281.666666667 552.333333333 281.666666667 552.333333333 289 545 c 1,42,43
 297 540 297 540 297.5 538.5 c 128,-1,44
 298 537 298 537 301.5 534 c 128,-1,45
 305 531 305 531 311 527.5 c 128,-1,46
 317 524 317 524 323 519 c 1,47,48
 325.785714286 507.857142857 325.785714286 507.857142857 339 492 c 1,49,50
 341 487 341 487 343 477 c 0,51,52
 346.176470588 461.117647059 346.176470588 461.117647059 350.588235294 451.558823529 c 0,53,54
 357 437.666666667 357 437.666666667 357 429.333333333 c 128,-1,55
 357 421 357 421 358 416 c 2,56,-1
 360 396 l 1,57,-1
 356 384 l 2,58,59
 356 383 356 383 356.5 379.5 c 128,-1,60
 357 376 357 376 356 371.5 c 128,-1,61
 355 367 355 367 353 361 c 128,-1,62
 351 355 351 355 353 348 c 1,63,64
 348 345 348 345 347.5 338.5 c 128,-1,65
 347 332 347 332 342 329 c 1,66,67
 334 317 334 317 333 314 c 128,-1,68
 332 311 332 311 330 307 c 258,69,-1
 325 297 l 2,70,71
 322 291 322 291 313.5 288.5 c 128,-1,72
 305 286 305 286 302.5 282.5 c 128,-1,73
 300 279 300 279 298 276 c 1,74,75
 287 271 287 271 282 266 c 128,-1,76
 277 261 277 261 272.5 259 c 128,-1,77
 268 257 268 257 261 255.5 c 128,-1,78
 254 254 254 254 248 252 c 256,79,80
 242 250 242 250 231.5 249.5 c 128,-1,81
 221 249 221 249 213 246.5 c 128,-1,82
 205 244 205 244 205 243 c 128,-1,83
 205 242 205 242 198.5 240.5 c 0,84,85
 179 236 179 236 169 236 c 1,86,-1
 147 241 l 2,87,88
 141 242 141 242 134.5 240 c 128,-1,89
 128 238 128 238 122 240.5 c 128,-1,90
 116 243 116 243 112 247.5 c 128,-1,91
 108 252 108 252 99 252 c 1,92,93
 97 256 97 256 93.5 258 c 128,-1,94
 90 260 90 260 85 263 c 128,-1,95
 80 266 80 266 73 269 c 1,96,97
 68 279 68 279 59.5 284.5 c 128,-1,98
 51 290 51 290 49 302 c 1,99,100
 30.6296296296 313.481481481 30.6296296296 313.481481481 26 332 c 0,101,102
 25 335 25 335 25.5 338 c 128,-1,103
 26 341 26 341 23.5 346 c 128,-1,0
 21 351 21 351 17.5 357 c 128,-1,1
306 421 m 1,104,-1
 296 437 l 1,105,106
 296 443 296 443 294 448 c 128,-1,107
 292 453 292 453 291 457 c 1,108,109
 285 466 285 466 285 469.5 c 128,-1,110
 285 473 285 473 283.5 476.5 c 128,-1,111
 282 480 282 480 280 485 c 128,-1,112
 278 490 278 490 274.5 493.5 c 128,-1,113
 271 497 271 497 267 500.5 c 128,-1,114
 263 504 263 504 258 509 c 1,115,116
 252 508 252 508 248 511 c 128,-1,117
 244 514 244 514 239 515.5 c 128,-1,118
 234 517 234 517 228.5 517 c 128,-1,119
 223 517 223 517 217 518 c 1,120,121
 209.272727273 524.181818182 209.272727273 524.181818182 199.136363636 526.590909091 c 128,-1,122
 189 529 189 529 185 530 c 128,-1,123
 181 531 181 531 174.5 528.5 c 0,124,125
 152.4 520 152.4 520 138 512 c 1,126,127
 136 502 136 502 132.5 493.5 c 128,-1,128
 129 485 129 485 131 471 c 1,129,130
 124.25 457.5 124.25 457.5 128 450 c 1,131,132
 123 444 123 444 122 437.5 c 128,-1,133
 121 431 121 431 119 422 c 0,134,135
 113.421052632 396.894736842 113.421052632 396.894736842 115.210526316 384.947368421 c 0,136,137
 119.775510204 354.469387755 119.775510204 354.469387755 121 341 c 1,138,139
 125 339 125 339 126.5 335 c 0,140,141
 128.923076923 328.538461538 128.923076923 328.538461538 132.961538462 321.269230769 c 128,-1,142
 137 314 137 314 137 309 c 1,143,144
 145 303 145 303 151 295 c 1,145,146
 160 293 160 293 167.5 290 c 128,-1,147
 175 287 175 287 183 284 c 1,148,149
 191 288 191 288 197 287 c 128,-1,150
 203 286 203 286 209 288 c 128,-1,151
 215 290 215 290 219.5 293 c 128,-1,152
 224 296 224 296 228.5 297.5 c 128,-1,153
 233 299 233 299 237.5 298.5 c 128,-1,154
 242 298 242 298 245.5 300 c 128,-1,155
 249 302 249 302 251 304.5 c 128,-1,156
 253 307 253 307 258 311 c 128,-1,157
 263 315 263 315 264 314.5 c 128,-1,158
 265 314 265 314 268.5 317 c 128,-1,159
 272 320 272 320 275.5 322.5 c 128,-1,160
 279 325 279 325 283 330 c 128,-1,161
 287 335 287 335 292 339 c 128,-1,162
 297 343 297 343 303 348 c 1,163,164
 308 368 308 368 306 383.5 c 128,-1,165
 304 399 304 399 306 421 c 1,104,-1
EndSplineSet
EndChar

StartChar: one
Encoding: 49 49 39
Width: 336
Flags: HW
LayerCount: 2
Fore
SplineSet
245 486 m 2,0,-1
 242 468 l 258,1,2
 242 463 242 463 242.5 459.5 c 128,-1,3
 243 456 243 456 242 449.5 c 128,-1,4
 241 443 241 443 239 434.5 c 128,-1,5
 237 426 237 426 240 415 c 1,6,7
 244.25 410.75 244.25 410.75 242.125 395.875 c 0,8,9
 237.979591837 366.857142857 237.979591837 366.857142857 249 336 c 1,10,11
 244 322 244 322 246 305.5 c 128,-1,12
 248 289 248 289 247.5 278.5 c 0,13,14
 246.944444444 266.833333333 246.944444444 266.833333333 243.472222222 251.416666667 c 128,-1,15
 240 236 240 236 242 214 c 128,-1,16
 244 192 244 192 244 178.5 c 0,17,18
 244 150 244 150 241 143 c 128,-1,19
 238 136 238 136 236 130 c 128,-1,20
 234 124 234 124 233 116 c 128,-1,21
 232 108 232 108 230.5 100 c 0,22,23
 227 81.3333333333 227 81.3333333333 227 67 c 1,24,25
 221 57 221 57 210 52.5 c 128,-1,26
 199 48 199 48 189 41 c 1,27,28
 180 43 180 43 174.5 42 c 128,-1,29
 169 41 169 41 161 43 c 1,30,31
 159 45 159 45 157 48.5 c 0,32,33
 152.818181818 55.8181818182 152.818181818 55.8181818182 149.409090909 59.9090909091 c 128,-1,34
 146 64 146 64 145 68.5 c 128,-1,35
 144 73 144 73 145 77 c 128,-1,36
 146 81 146 81 146.5 89.5 c 128,-1,37
 147 98 147 98 145 112 c 128,-1,38
 143 126 143 126 148 134 c 1,39,40
 145 139 145 139 146 145.5 c 128,-1,41
 147 152 147 152 147 158 c 1,42,-1
 143 175 l 1,43,44
 143.846153846 182.615384615 143.846153846 182.615384615 141 194 c 1,45,-1
 143 208 l 1,46,47
 143 241.2 143 241.2 136 251 c 1,48,49
 138 254 138 254 138 259 c 128,-1,50
 138 264 138 264 141 266 c 1,51,52
 142 271 142 271 139.5 272.5 c 0,53,54
 135.055555556 275.166666667 135.055555556 275.166666667 141 293 c 1,55,56
 136 323 136 323 136 343 c 1,57,-1
 140 356 l 2,58,59
 140 359 140 359 138.5 362.5 c 128,-1,60
 137 366 137 366 140.5 379.5 c 128,-1,61
 144 393 144 393 143.5 411 c 128,-1,62
 143 429 143 429 143 445 c 1,63,-1
 147 458 l 1,64,-1
 145 472 l 1,65,66
 145 487.666666667 145 487.666666667 140 496 c 1,67,68
 132.666666667 496 132.666666667 496 129.333333333 491 c 0,69,70
 122.666666667 481 122.666666667 481 117 481 c 1,71,72
 110 470 110 470 107.5 468.5 c 128,-1,73
 105 467 105 467 104 465 c 1,74,75
 55.746031746 459.920634921 55.746031746 459.920634921 38 449 c 1,76,77
 33 452 33 452 26.5 450.5 c 128,-1,78
 20 449 20 449 14 449 c 1,79,80
 -2 454 -2 454 -8.5 454 c 128,-1,81
 -15 454 -15 454 -23 456 c 1,82,83
 -26 465 -26 465 -23 477 c 1,84,85
 -18 481 -18 481 -14 481.5 c 128,-1,86
 -10 482 -10 482 -2.5 485 c 128,-1,87
 5 488 5 488 8.5 486.5 c 128,-1,88
 12 485 12 485 20 486.5 c 0,89,90
 37.6842105263 489.815789474 37.6842105263 489.815789474 56.3421052632 496.407894737 c 128,-1,91
 75 503 75 503 81.5 505 c 128,-1,92
 88 507 88 507 91.5 509 c 0,93,94
 97.3333333333 512.333333333 97.3333333333 512.333333333 102 517 c 1,95,96
 113 521 113 521 115 520 c 1,97,98
 118 525 118 525 123 528.5 c 128,-1,99
 128 532 128 532 127 542 c 1,100,101
 132 547 132 547 137 550 c 128,-1,102
 142 553 142 553 141 561 c 1,103,104
 146 561 146 561 152.5 567.5 c 128,-1,105
 159 574 159 574 161 578.5 c 128,-1,106
 163 583 163 583 162 586.5 c 128,-1,107
 161 590 161 590 163 594 c 1,108,109
 169 598 169 598 170.5 602.5 c 128,-1,110
 172 607 172 607 177 609 c 1,111,112
 185 607 185 607 193 609.5 c 128,-1,113
 201 612 201 612 208 611 c 1,114,115
 225 604 225 604 227.5 599.5 c 128,-1,116
 230 595 230 595 234 583 c 1,117,118
 240 573 240 573 239.5 568.5 c 128,-1,119
 239 564 239 564 240 559.5 c 128,-1,120
 241 555 241 555 243 551.5 c 128,-1,121
 245 548 245 548 246 542.5 c 0,122,123
 247.666666667 533.333333333 247.666666667 533.333333333 245.833333333 513.666666667 c 128,-1,124
 244 494 244 494 245 491 c 128,-1,125
 246 488 246 488 245 486 c 2,0,-1
EndSplineSet
EndChar

StartChar: two
Encoding: 50 50 40
Width: 398
Flags: HW
LayerCount: 2
Fore
SplineSet
292 641 m 1,0,1
 295.3 624.5 295.3 624.5 310 614 c 1,2,3
 308 610 308 610 310.5 607 c 128,-1,4
 313 604 313 604 314.5 600 c 128,-1,5
 316 596 316 596 316.5 592 c 128,-1,6
 317 588 317 588 320 581 c 128,-1,7
 323 574 323 574 326 566.5 c 128,-1,8
 329 559 329 559 328 556.5 c 128,-1,9
 327 554 327 554 328.5 549 c 128,-1,10
 330 544 330 544 332.5 536.5 c 128,-1,11
 335 529 335 529 337 518 c 0,12,13
 342.44 488.08 342.44 488.08 339 464 c 1,14,-1
 340 460 l 1,15,16
 333 455 333 455 334 445.5 c 128,-1,17
 335 436 335 436 333.5 426.5 c 128,-1,18
 332 417 332 417 330.5 410.5 c 128,-1,19
 329 404 329 404 332 399 c 1,20,21
 326 391 326 391 325 380 c 128,-1,22
 324 369 324 369 321.5 361 c 128,-1,23
 319 353 319 353 317 349 c 128,-1,24
 315 345 315 345 312.5 337 c 128,-1,25
 310 329 310 329 309.5 319 c 128,-1,26
 309 309 309 309 299 306 c 1,27,28
 300.222222222 296.222222222 300.222222222 296.222222222 292 288 c 1,29,30
 292.75 285 292.75 285 290 274 c 1,31,32
 290 262.6 290 262.6 286 257.8 c 128,-1,33
 282 253 282 253 280 248.5 c 128,-1,34
 278 244 278 244 279 240 c 128,-1,35
 280 236 280 236 277.5 230.5 c 0,36,37
 273.947368421 222.684210526 273.947368421 222.684210526 263 209 c 256,38,39
 259 204 259 204 255.5 199.5 c 128,-1,40
 252 195 252 195 248 190 c 1,41,42
 247 186 247 186 245.5 184 c 128,-1,43
 244 182 244 182 244 177 c 1,44,45
 238 172 238 172 238 171 c 128,-1,46
 238 170 238 170 233 164.5 c 128,-1,47
 228 159 228 159 228 158.5 c 128,-1,48
 228 158 228 158 224 152 c 128,-1,49
 220 146 220 146 216 140 c 128,-1,50
 212 134 212 134 204 127 c 128,-1,51
 196 120 196 120 192 116 c 128,-1,52
 188 112 188 112 190 105 c 1,53,54
 199 96 199 96 210 99.5 c 128,-1,55
 221 103 221 103 229.5 103 c 128,-1,56
 238 103 238 103 245.5 100.5 c 128,-1,57
 253 98 253 98 260.5 101.5 c 128,-1,58
 268 105 268 105 271 104 c 128,-1,59
 274 103 274 103 279.5 105 c 128,-1,60
 285 107 285 107 288.5 109 c 0,61,62
 299.14893617 115.085106383 299.14893617 115.085106383 304.574468085 114.542553191 c 128,-1,63
 310 114 310 114 315.5 113 c 128,-1,64
 321 112 321 112 324.5 113.5 c 128,-1,65
 328 115 328 115 330.5 109.5 c 0,66,67
 335.808219178 97.8219178082 335.808219178 97.8219178082 328 77 c 1,68,69
 323 75 323 75 311.5 74.5 c 128,-1,70
 300 74 300 74 296 79 c 1,71,72
 292 77 292 77 288.5 74.5 c 0,73,74
 279.4 68 279.4 68 271.7 68 c 128,-1,75
 264 68 264 68 260 65 c 1,76,77
 255 69 255 69 250.5 67.5 c 128,-1,78
 246 66 246 66 234.5 66.5 c 128,-1,79
 223 67 223 67 213.5 63.5 c 128,-1,80
 204 60 204 60 194 68 c 1,81,82
 177 60 177 60 156.5 57.5 c 128,-1,83
 136 55 136 55 123.5 49.5 c 128,-1,84
 111 44 111 44 104.5 39.5 c 128,-1,85
 98 35 98 35 88 38 c 1,86,87
 84 37 84 37 81.5 35 c 128,-1,88
 79 33 79 33 73 35 c 1,89,90
 65 41 65 41 61 45 c 1,91,92
 59 50 59 50 62.5 55 c 128,-1,93
 66 60 66 60 67.5 67 c 128,-1,94
 69 74 69 74 74 79 c 1,95,96
 78 87 78 87 79.5 88 c 128,-1,97
 81 89 81 89 84 95 c 128,-1,98
 87 101 87 101 90.5 104.5 c 0,99,100
 97.2 111.2 97.2 111.2 104.6 126.1 c 128,-1,101
 112 141 112 141 113.5 141 c 0,102,103
 116 141 116 141 130 169.5 c 128,-1,104
 144 198 144 198 146.5 204 c 128,-1,105
 149 210 149 210 152 214 c 0,106,107
 165.125 231.5 165.125 231.5 172 259 c 1,108,109
 177 271 177 271 177.5 276.5 c 128,-1,110
 178 282 178 282 179 285.5 c 0,111,112
 183 299.5 183 299.5 187.5 311.25 c 128,-1,113
 192 323 192 323 192 329.5 c 128,-1,114
 192 336 192 336 194 343 c 128,-1,115
 196 350 196 350 199.5 359.5 c 128,-1,116
 203 369 203 369 204.5 377.5 c 128,-1,117
 206 386 206 386 206 390.5 c 128,-1,118
 206 395 206 395 207.5 399 c 128,-1,119
 209 403 209 403 210 406 c 128,-1,120
 211 409 211 409 212.5 412 c 128,-1,121
 214 415 214 415 214.5 418 c 128,-1,122
 215 421 215 421 217 426.5 c 0,123,124
 222 440.25 222 440.25 222 452 c 1,125,-1
 220 464 l 1,126,127
 225 478 225 478 225 482.5 c 128,-1,128
 225 487 225 487 226 493.5 c 128,-1,129
 227 500 227 500 227.5 505 c 2,130,-1
 229 520 l 2,131,132
 231 530 231 530 229 533.5 c 128,-1,133
 227 537 227 537 227 543 c 128,-1,134
 227 549 227 549 228.5 557.5 c 128,-1,135
 230 566 230 566 226.5 574 c 128,-1,136
 223 582 223 582 224 583.5 c 128,-1,137
 225 585 225 585 221 591.5 c 128,-1,138
 217 598 217 598 216 602.5 c 128,-1,139
 215 607 215 607 213 611.5 c 128,-1,140
 211 616 211 616 208 622 c 128,-1,141
 205 628 205 628 203 634 c 1,142,143
 189 637 189 637 179 644.5 c 128,-1,144
 169 652 169 652 155 654 c 1,145,146
 146 651 146 651 136.5 646.5 c 128,-1,147
 127 642 127 642 119 644 c 1,148,149
 116 641 116 641 112 635 c 0,150,151
 110 633 110 633 105 630.5 c 0,152,153
 96.8571428571 626.428571429 96.8571428571 626.428571429 91.9285714286 618.214285714 c 128,-1,154
 87 610 87 610 82.5 605 c 128,-1,155
 78 600 78 600 72 596 c 128,-1,156
 66 592 66 592 61 587 c 1,157,158
 54 575 54 575 54 570 c 128,-1,159
 54 565 54 565 49 563 c 1,160,161
 50 553 50 553 47.5 550.5 c 128,-1,162
 45 548 45 548 44 545 c 128,-1,163
 43 542 43 542 44 539 c 128,-1,164
 45 536 45 536 42.5 526 c 128,-1,165
 40 516 40 516 44 506.5 c 128,-1,166
 48 497 48 497 56 494 c 1,167,168
 55 489 55 489 57.5 487 c 128,-1,169
 60 485 60 485 59 481 c 1,170,171
 67 482 67 482 71.5 481.5 c 128,-1,172
 76 481 76 481 83 484 c 1,173,174
 90 496 90 496 88.5 508.5 c 128,-1,175
 87 521 87 521 92 535 c 1,176,177
 100 537 100 537 112 533.5 c 128,-1,178
 124 530 124 530 129 525 c 1,179,180
 129 521 129 521 130.5 518.5 c 128,-1,181
 132 516 132 516 133 510.5 c 128,-1,182
 134 505 134 505 130.5 498.5 c 128,-1,183
 127 492 127 492 131 481 c 1,184,185
 126 474 126 474 122.5 467 c 128,-1,186
 119 460 119 460 115.5 456.5 c 128,-1,187
 112 453 112 453 108.5 453.5 c 128,-1,188
 105 454 105 454 104 450 c 1,189,190
 92 451 92 451 92 449 c 128,-1,191
 92 447 92 447 92 445 c 1,192,193
 86 448 86 448 82 446 c 128,-1,194
 78 444 78 444 70 445.5 c 128,-1,195
 62 447 62 447 54 454 c 128,-1,196
 46 461 46 461 35 462 c 1,197,198
 32 465 32 465 31 468.5 c 128,-1,199
 30 472 30 472 25.5 480 c 128,-1,200
 21 488 21 488 18.5 491.5 c 128,-1,201
 16 495 16 495 14.5 501.5 c 128,-1,202
 13 508 13 508 15.5 517.5 c 128,-1,203
 18 527 18 527 13 537 c 1,204,205
 17 543 17 543 16 550 c 128,-1,206
 15 557 15 557 16 561.5 c 128,-1,207
 17 566 17 566 19.5 571 c 128,-1,208
 22 576 22 576 24 581.5 c 128,-1,209
 26 587 26 587 28.5 592.5 c 128,-1,210
 31 598 31 598 33.5 604.5 c 128,-1,211
 36 611 36 611 43 618.5 c 128,-1,212
 50 626 50 626 52 635 c 1,213,214
 60 640 60 640 65.5 646.5 c 128,-1,215
 71 653 71 653 81 655 c 1,216,217
 81 662 81 662 84 664 c 128,-1,218
 87 666 87 666 88 671 c 1,219,220
 103 675.5 103 675.5 118 683.25 c 128,-1,221
 133 691 133 691 138 691.5 c 128,-1,222
 143 692 143 692 157 693 c 2,223,-1
 174 695 l 1,224,225
 184 690 184 690 189 690 c 128,-1,226
 194 690 194 690 200.5 688.5 c 128,-1,227
 207 687 207 687 213.5 686.5 c 0,228,229
 228.834951456 685.32038835 228.834951456 685.32038835 238.417475728 679.160194175 c 128,-1,230
 248 673 248 673 255 669 c 1,231,232
 266 660 266 660 269 659.5 c 128,-1,233
 272 659 272 659 276 656 c 128,-1,234
 280 653 280 653 283 647 c 128,-1,235
 286 641 286 641 292 641 c 1,0,1
EndSplineSet
EndChar

StartChar: three
Encoding: 51 51 41
Width: 373
Flags: HW
LayerCount: 2
Fore
SplineSet
283 659 m 1,0,-1
 293 654 l 1,1,2
 327.824657534 641.169863014 327.824657534 641.169863014 314 602 c 0,3,4
 312 594 312 594 308.5 588 c 128,-1,5
 305 582 305 582 302 572 c 1,6,7
 296 568 296 568 292 562.5 c 128,-1,8
 288 557 288 557 282 554 c 1,9,10
 281 549 281 549 278 545.5 c 128,-1,11
 275 542 275 542 274 537 c 1,12,13
 271 535 271 535 269 532.5 c 128,-1,14
 267 530 267 530 263 530 c 1,15,16
 260.2 518.8 260.2 518.8 252.1 508.9 c 0,17,18
 237.25 490.75 237.25 490.75 233 478 c 1,19,20
 228 476 228 476 225.5 472 c 128,-1,21
 223 468 223 468 214 459 c 128,-1,22
 205 450 205 450 196 441 c 128,-1,23
 187 432 187 432 181 421 c 1,24,25
 185 413 185 413 198 410 c 128,-1,26
 211 407 211 407 218 398 c 1,27,28
 227.315789474 399.552631579 227.315789474 399.552631579 234.157894737 395.276315789 c 0,29,30
 249 386 249 386 256 386 c 1,31,32
 265 378 265 378 271 367 c 128,-1,33
 277 356 277 356 288 348 c 1,34,35
 292.666666667 322.333333333 292.666666667 322.333333333 301 309 c 1,36,-1
 307 285 l 1,37,38
 311 274 311 274 310.5 269.5 c 128,-1,39
 310 265 310 265 314 262 c 1,40,41
 315 239 315 239 316 219 c 128,-1,42
 317 199 317 199 312 177 c 1,43,44
 298.608695652 142.565217391 298.608695652 142.565217391 293 122 c 1,45,46
 290 120 290 120 287.5 118.5 c 0,47,48
 270.675675676 108.405405405 270.675675676 108.405405405 268 87 c 1,49,50
 261 82 261 82 253 78.5 c 128,-1,51
 245 75 245 75 240 67 c 1,52,53
 224.8 63.2 224.8 63.2 215.4 56.6 c 128,-1,54
 206 50 206 50 202 49.5 c 128,-1,55
 198 49 198 49 196 45 c 1,56,-1
 183 46 l 1,57,58
 178 44 178 44 172 42 c 128,-1,59
 166 40 166 40 157.5 33.5 c 128,-1,60
 149 27 149 27 128 31 c 128,-1,61
 107 35 107 35 106 36.5 c 128,-1,62
 105 38 105 38 101.5 39 c 128,-1,63
 98 40 98 40 94.5 38.5 c 128,-1,64
 91 37 91 37 87.5 38.5 c 0,65,66
 73.1818181818 44.6363636364 73.1818181818 44.6363636364 71.0909090909 48.8181818182 c 0,67,68
 67 57 67 57 62.5 57 c 128,-1,69
 58 57 58 57 51.5 61 c 128,-1,70
 45 65 45 65 46 67 c 128,-1,71
 47 69 47 69 41 74 c 128,-1,72
 35 79 35 79 33 82 c 128,-1,73
 31 85 31 85 28 89 c 256,74,75
 17.125 103.5 17.125 103.5 15 112 c 1,76,77
 13 115 13 115 10.5 117 c 128,-1,78
 8 119 8 119 6 122 c 1,79,80
 5 128 5 128 3 131 c 128,-1,81
 1 134 1 134 1 140.5 c 2,82,-1
 1 150.5 l 2,83,84
 1 154 1 154 0 157 c 1,85,-1
 0 170 l 1,86,-1
 7 202.5 l 2,87,88
 7 207 7 207 11.5 213 c 128,-1,89
 16 219 16 219 16 221 c 128,-1,90
 16 223 16 223 17.5 226 c 128,-1,91
 19 229 19 229 22.5 232 c 128,-1,92
 26 235 26 235 27 240 c 1,93,94
 40.0612244898 248.163265306 40.0612244898 248.163265306 54.5306122449 250.581632653 c 128,-1,95
 69 253 69 253 75.5 255 c 128,-1,96
 82 257 82 257 86.5 256.5 c 0,97,98
 93.4 255.733333333 93.4 255.733333333 99 252 c 1,99,-1
 111 249 l 1,100,101
 121 248 121 248 124.5 246 c 128,-1,102
 128 244 128 244 134 245 c 1,103,104
 138 240 138 240 139 233 c 128,-1,105
 140 226 140 226 141.5 219 c 128,-1,106
 143 212 143 212 143 208.5 c 128,-1,107
 143 205 143 205 140.5 200 c 0,108,109
 134.5 188 134.5 188 124.25 187.5 c 128,-1,110
 114 187 114 187 111 192.5 c 128,-1,111
 108 198 108 198 96 199 c 1,112,113
 92 204 92 204 89.5 208.5 c 128,-1,114
 87 213 87 213 79 216 c 0,115,116
 67.0579710145 220.47826087 67.0579710145 220.47826087 42 199 c 1,117,118
 42 191 42 191 38.5 189 c 128,-1,119
 35 187 35 187 33 183 c 1,120,121
 34 177 34 177 34 167.5 c 128,-1,122
 34 158 34 158 29 154 c 1,123,124
 29 148 29 148 33 145 c 128,-1,125
 37 142 37 142 35 135 c 1,126,127
 45.8 124.2 45.8 124.2 49 113 c 1,128,129
 66.7441860465 105.395348837 66.7441860465 105.395348837 70 94 c 1,130,131
 82 91 82 91 95 78 c 1,132,133
 101 76 101 76 110.5 75.5 c 128,-1,134
 120 75 120 75 126 72 c 1,135,136
 133 73 133 73 136.5 77.5 c 128,-1,137
 140 82 140 82 148 82 c 1,138,139
 157.230769231 97.3846153846 157.230769231 97.3846153846 160.615384615 100.192307692 c 128,-1,140
 164 103 164 103 164.5 106 c 128,-1,141
 165 109 165 109 168.5 116 c 128,-1,142
 172 123 172 123 174 128 c 128,-1,143
 176 133 176 133 178 136 c 128,-1,144
 180 139 180 139 177 145 c 1,145,146
 183 152 183 152 184.5 161.5 c 128,-1,147
 186 171 186 171 188.5 179.5 c 128,-1,148
 191 188 191 188 193 193.5 c 128,-1,149
 195 199 195 199 196 205.5 c 128,-1,150
 197 212 197 212 197 217.5 c 128,-1,151
 197 223 197 223 199 232.5 c 128,-1,152
 201 242 201 242 204 251.5 c 128,-1,153
 207 261 207 261 208.5 267 c 128,-1,154
 210 273 210 273 209 277 c 128,-1,155
 208 281 208 281 211 290 c 128,-1,156
 214 299 214 299 214 307 c 128,-1,157
 214 315 214 315 214 321.5 c 128,-1,158
 214 328 214 328 214.5 335.5 c 128,-1,159
 215 343 215 343 212.5 349 c 128,-1,160
 210 355 210 355 200 358 c 128,-1,161
 190 361 190 361 185 369 c 1,162,163
 176 366 176 366 166 368 c 128,-1,164
 156 370 156 370 142 365.5 c 128,-1,165
 128 361 128 361 119 357.5 c 128,-1,166
 110 354 110 354 103 344 c 1,167,168
 94 343 94 343 85 338.5 c 128,-1,169
 76 334 76 334 68 337 c 0,170,171
 46.5346534653 345.04950495 46.5346534653 345.04950495 45.2673267327 361.524752475 c 128,-1,172
 44 378 44 378 48 387 c 256,173,174
 52 396 52 396 59.5 403.5 c 2,175,-1
 72 416 l 2,176,177
 77 421 77 421 82 428 c 256,178,179
 87 435 87 435 88 435 c 128,-1,180
 89 435 89 435 90.5 437.5 c 128,-1,181
 92 440 92 440 95.5 443 c 128,-1,182
 99 446 99 446 103 450 c 1,183,184
 104 454 104 454 107 456.5 c 128,-1,185
 110 459 110 459 111 464 c 1,186,187
 116 464 116 464 119 468 c 128,-1,188
 122 472 122 472 126 476.5 c 0,189,190
 131.333333333 482.5 131.333333333 482.5 139.666666667 494.75 c 128,-1,191
 148 507 148 507 149.5 507.5 c 128,-1,192
 151 508 151 508 153 510.5 c 0,193,194
 156.333333333 514.666666667 156.333333333 514.666666667 160.166666667 521.833333333 c 128,-1,195
 164 529 164 529 167 532.5 c 128,-1,196
 170 536 170 536 172 538.5 c 128,-1,197
 174 541 174 541 176 545 c 128,-1,198
 178 549 178 549 183 555 c 128,-1,199
 188 561 188 561 188.5 564 c 128,-1,200
 189 567 189 567 196 576.5 c 128,-1,201
 203 586 203 586 203 598 c 1,202,203
 192.263157895 608.736842105 192.263157895 608.736842105 179.631578947 605.368421053 c 0,204,205
 150.411764706 597.576470588 150.411764706 597.576470588 139 601 c 1,206,-1
 121 594 l 1,207,208
 117 596 117 596 112.5 595 c 0,209,210
 101.454545455 592.545454545 101.454545455 592.545454545 92 602 c 1,211,212
 87 602 87 602 84 601.5 c 128,-1,213
 81 601 81 601 77 604 c 1,214,-1
 70 620 l 2,215,216
 69 624 69 624 67.5 629.5 c 128,-1,217
 66 635 66 635 70 642 c 1,218,219
 75 645 75 645 80 646 c 128,-1,220
 85 647 85 647 92 648.5 c 128,-1,221
 99 650 99 650 106 649.5 c 128,-1,222
 113 649 113 649 122.5 651.5 c 128,-1,223
 132 654 132 654 134 652.5 c 0,224,225
 137.636363636 649.772727273 137.636363636 649.772727273 163 654 c 1,226,-1
 183 653 l 1,227,-1
 205 653 l 1,228,229
 217 649 217 649 221.25 649.75 c 128,-1,230
 225.5 650.5 225.5 650.5 233.25 652.75 c 128,-1,231
 241 655 241 655 244.5 654.5 c 128,-1,232
 248 654 248 654 255.5 656 c 128,-1,233
 263 658 263 658 266 657 c 128,-1,234
 269 656 269 656 273 656 c 128,-1,235
 277 656 277 656 283 659 c 1,0,-1
EndSplineSet
EndChar

StartChar: four
Encoding: 52 52 42
Width: 398
Flags: HW
LayerCount: 2
Fore
SplineSet
74 325 m 1,0,-1
 75 338 l 1,1,2
 84 347 84 347 84 353 c 128,-1,3
 84 359 84 359 86 363.5 c 128,-1,4
 88 368 88 368 91.5 374 c 128,-1,5
 95 380 95 380 95 388 c 1,6,7
 102 397 102 397 103.5 397.5 c 128,-1,8
 105 398 105 398 107.5 406.5 c 128,-1,9
 110 415 110 415 112.5 421.5 c 128,-1,10
 115 428 115 428 117 436 c 256,11,12
 119 444 119 444 121 446 c 128,-1,13
 123 448 123 448 128 454 c 1,14,15
 129 459 129 459 129 462.5 c 128,-1,16
 129 466 129 466 130 469.5 c 0,17,18
 132 476.5 132 476.5 135 481 c 256,19,20
 137 484 137 484 137 487.5 c 128,-1,21
 137 491 137 491 139 495.5 c 128,-1,22
 141 500 141 500 144 505.5 c 128,-1,23
 147 511 147 511 146 518 c 1,24,25
 158.897959184 526.06122449 158.897959184 526.06122449 163.448979592 537.530612245 c 128,-1,26
 168 549 168 549 171 552 c 128,-1,27
 174 555 174 555 177 559 c 1,28,29
 181 570 181 570 182 570 c 128,-1,30
 183 570 183 570 184.5 573.5 c 128,-1,31
 186 577 186 577 196.5 581 c 128,-1,32
 207 585 207 585 213 589 c 1,33,34
 213 596 213 596 215.5 596 c 128,-1,35
 218 596 218 596 220 598 c 256,36,37
 222 600 222 600 230 598.5 c 128,-1,38
 238 597 238 597 243 598 c 1,39,40
 246 597 246 597 247.5 593.5 c 128,-1,41
 249 590 249 590 251.5 588 c 0,42,43
 273.545454545 570.363636364 273.545454545 570.363636364 269 559 c 1,44,45
 272 557 272 557 270.5 553 c 128,-1,46
 269 549 269 549 271 544 c 128,-1,47
 273 539 273 539 273.5 536.5 c 128,-1,48
 274 534 274 534 276 530.5 c 0,49,50
 282.727272727 518.727272727 282.727272727 518.727272727 275 511 c 1,51,52
 278 503 278 503 278 494 c 128,-1,53
 278 485 278 485 279 477 c 2,54,-1
 281 463 l 2,55,56
 281 457 281 457 279.5 455.5 c 128,-1,57
 278 454 278 454 276 447 c 1,58,-1
 279 434 l 1,59,60
 280 424 280 424 278.5 415 c 128,-1,61
 277 406 277 406 283 398 c 1,62,63
 279 388 279 388 279 379 c 257,64,-1
 283 360 l 1,65,66
 283 355 283 355 281.5 350 c 0,67,68
 277.76744186 337.558139535 277.76744186 337.558139535 278.38372093 330.779069767 c 128,-1,69
 279 324 279 324 274 319 c 1,70,71
 282 304 282 304 279.5 289.5 c 128,-1,72
 277 275 277 275 278 265 c 128,-1,73
 279 255 279 255 283 243 c 1,74,75
 283 238 283 238 282.5 235 c 128,-1,76
 282 232 282 232 284 227.5 c 128,-1,77
 286 223 286 223 285 216.5 c 128,-1,78
 284 210 284 210 286 202 c 1,79,80
 289 197 289 197 289.5 190 c 128,-1,81
 290 183 290 183 292.5 181.5 c 128,-1,82
 295 180 295 180 297 178 c 1,83,84
 308 179 308 179 320 178 c 128,-1,85
 332 177 332 177 342.5 180.5 c 128,-1,86
 353 184 353 184 360 186.5 c 128,-1,87
 367 189 367 189 377 186 c 1,88,89
 380 180 380 180 382 169.5 c 128,-1,90
 384 159 384 159 386 152 c 1,91,92
 374 142 374 142 368 141 c 128,-1,93
 362 140 362 140 357 136 c 1,94,95
 353 138 353 138 350 138 c 2,96,-1
 343 138 l 258,97,98
 339 138 339 138 337 136.5 c 128,-1,99
 335 135 335 135 331.5 134 c 128,-1,100
 328 133 328 133 324 134.5 c 128,-1,101
 320 136 320 136 317 136 c 1,102,103
 315 131 315 131 308.5 130 c 128,-1,104
 302 129 302 129 297 127 c 1,105,106
 293 118 293 118 297.5 109 c 128,-1,107
 302 100 302 100 298.5 94 c 128,-1,108
 295 88 295 88 298 87 c 128,-1,109
 301 86 301 86 302 82 c 1,110,-1
 292 50 l 1,111,112
 293 38 293 38 291.5 35 c 128,-1,113
 290 32 290 32 290 30 c 2,114,-1
 293 11 l 2,115,116
 294 8 294 8 293 5.5 c 128,-1,117
 292 3 292 3 292.5 -1 c 128,-1,118
 293 -5 293 -5 292 -7.5 c 0,119,120
 289.842105263 -12.8947368421 289.842105263 -12.8947368421 293.421052632 -20.9473684211 c 128,-1,121
 297 -29 297 -29 299 -34 c 1,122,123
 300 -70 300 -70 276 -82 c 1,124,125
 268 -82 268 -82 258.5 -79.5 c 128,-1,126
 249 -77 249 -77 241 -76 c 1,127,128
 235 -69 235 -69 226 -61 c 1,129,130
 220 -45 220 -45 223.5 -32.5 c 128,-1,131
 227 -20 227 -20 226.5 -8 c 128,-1,132
 226 4 226 4 223 5 c 128,-1,133
 220 6 220 6 217 7 c 1,134,135
 221 13 221 13 224 16 c 1,136,137
 225 42 225 42 225 68.5 c 128,-1,138
 225 95 225 95 219 121 c 1,139,140
 210 119 210 119 202.5 116.5 c 128,-1,141
 195 114 195 114 183.5 112.5 c 128,-1,142
 172 111 172 111 167 108 c 128,-1,143
 162 105 162 105 154 110 c 1,144,145
 149 109 149 109 147 107 c 128,-1,146
 145 105 145 105 138.5 103.5 c 128,-1,147
 132 102 132 102 124.5 104.5 c 128,-1,148
 117 107 117 107 110 104.5 c 128,-1,149
 103 102 103 102 99 100 c 128,-1,150
 95 98 95 98 90.5 97 c 128,-1,151
 86 96 86 96 82.5 96.5 c 128,-1,152
 79 97 79 97 73.5 96 c 128,-1,153
 68 95 68 95 61 92 c 128,-1,154
 54 89 54 89 46 91 c 1,155,156
 26.5555555556 83.2222222222 26.5555555556 83.2222222222 19.7777777778 86.6111111111 c 128,-1,157
 13 90 13 90 9 91 c 1,158,159
 -2.38235294118 125.147058824 -2.38235294118 125.147058824 6 157 c 1,160,161
 12 166 12 166 12 168.5 c 128,-1,162
 12 171 12 171 14 177.5 c 0,163,164
 24.4736842105 211.539473684 24.4736842105 211.539473684 33 219 c 1,165,166
 34.0526315789 227.421052632 34.0526315789 227.421052632 44 244 c 1,167,168
 44 257 44 257 46 258.5 c 128,-1,169
 48 260 48 260 50 263 c 128,-1,170
 52 266 52 266 54 274.5 c 128,-1,171
 56 283 56 283 58.5 291 c 0,172,173
 64.25 309.4 64.25 309.4 74 325 c 1,0,-1
216 233 m 1,174,175
 211 243 211 243 210 248 c 1,176,177
 214.134146341 263.158536585 214.134146341 263.158536585 215.067073171 292.079268293 c 0,178,179
 216.843373494 347.144578313 216.843373494 347.144578313 221 361 c 1,180,181
 219 366 219 366 218 375.5 c 128,-1,182
 217 385 217 385 215 390 c 0,183,184
 214 395 214 395 215 400.5 c 128,-1,185
 216 406 216 406 214 412 c 1,186,187
 211 415 211 415 205 416 c 128,-1,188
 199 417 199 417 196 414 c 0,189,190
 189.5 407.5 189.5 407.5 191 400 c 1,191,192
 177.595744681 394.638297872 177.595744681 394.638297872 171.5 354 c 0,193,194
 170 344 170 344 171 337 c 1,195,196
 168 333 168 333 163.5 330.5 c 128,-1,197
 159 328 159 328 156.5 318.5 c 128,-1,198
 154 309 154 309 153 305 c 128,-1,199
 152 301 152 301 152.5 298 c 128,-1,200
 153 295 153 295 152 289.5 c 128,-1,201
 151 284 151 284 148 276.5 c 128,-1,202
 145 269 145 269 144 262 c 1,203,204
 142 259 142 259 139 258.5 c 128,-1,205
 136 258 136 258 136 254 c 1,206,207
 133 250 133 250 132.5 246 c 0,208,209
 131.294117647 236.352941176 131.294117647 236.352941176 126.147058824 232.676470588 c 128,-1,210
 121 229 121 229 120 225 c 128,-1,211
 119 221 119 221 120 219 c 128,-1,212
 121 217 121 217 121 212 c 1,213,214
 114.733333333 202.6 114.733333333 202.6 116 195 c 1,215,216
 114 190 114 190 109 180.5 c 128,-1,217
 104 171 104 171 104 164 c 1,218,219
 117 158 117 158 121.5 159 c 128,-1,220
 126 160 126 160 129 160 c 0,221,222
 133 160 133 160 142 163 c 1,223,224
 158 165 158 165 174.5 164 c 128,-1,225
 191 163 191 163 204 169 c 1,226,227
 206 175 206 175 211.5 179 c 128,-1,228
 217 183 217 183 217.5 189 c 128,-1,229
 218 195 218 195 217 201 c 128,-1,230
 216 207 216 207 215 213 c 0,231,232
 212.285714286 229.285714286 212.285714286 229.285714286 216 233 c 1,174,175
EndSplineSet
EndChar

